<?xml version="1.0" standalone="no"?>
 <!DOCTYPE svg PUBLIC "-//W3C//DTD SVG 1.1//EN" 
 "http://www.w3.org/Graphics/SVG/1.1/DTD/svg11.dtd"> 
<svg xmlns="http://www.w3.org/2000/svg" version="1.1" 
    width="29.7002cm" height="21.0007cm" viewBox="0 0 116930 82680 ">
<title>SVG Picture created as BreadBoard PS Ver2-F_Mask.svg date 2022/04/19 14:23:44 </title>
  <desc>Picture generated by PCBNEW </desc>
<g style="fill:#000000; fill-opacity:1;stroke:#000000; stroke-opacity:1;
stroke-linecap:round; stroke-linejoin:round; "
 transform="translate(0 0) scale(1 1)">
</g>
<g style="fill:#000000; fill-opacity:0.0; 
stroke:#000000; stroke-width:-0.000393701; stroke-opacity:1; 
stroke-linecap:round; stroke-linejoin:round;">
</g>
<g style="fill:#000000; fill-opacity:0.0; 
stroke:#000000; stroke-width:39.3701; stroke-opacity:1; 
stroke-linecap:round; stroke-linejoin:round;">
</g>
<g style="fill:#000000; fill-opacity:0.0; 
stroke:#000000; stroke-width:59.0551; stroke-opacity:1; 
stroke-linecap:round; stroke-linejoin:round;">
<rect x="69685.9" y="65357.2" width="42519.7" height="12598.4" rx="0" />
</g>
<g style="fill:#000000; fill-opacity:0.0; 
stroke:#000000; stroke-width:39.3701; stroke-opacity:1; 
stroke-linecap:round; stroke-linejoin:round;">
</g>
<g style="fill:#000000; fill-opacity:0.0; 
stroke:#000000; stroke-width:59.0551; stroke-opacity:1; 
stroke-linecap:round; stroke-linejoin:round;">
<rect x="3937.01" y="3937.01" width="109056" height="74806" rx="0" />
</g>
<g style="fill:#000000; fill-opacity:0.0; 
stroke:#000000; stroke-width:39.3701; stroke-opacity:1; 
stroke-linecap:round; stroke-linejoin:round;">
</g>
<g style="fill:#000000; fill-opacity:0.0; 
stroke:#000000; stroke-width:59.0551; stroke-opacity:1; 
stroke-linecap:round; stroke-linejoin:round;">
<rect x="4724.41" y="4724.41" width="107481" height="73231.2" rx="0" />
</g>
<g style="fill:#000000; fill-opacity:0.0; 
stroke:#000000; stroke-width:39.3701; stroke-opacity:1; 
stroke-linecap:round; stroke-linejoin:round;">
</g>
<g style="fill:#000000; fill-opacity:0.0; 
stroke:#000000; stroke-width:59.0551; stroke-opacity:1; 
stroke-linecap:round; stroke-linejoin:round;">
<path d="M23622 4724
L23622 3937
" />
</g>
<g style="fill:#000000; fill-opacity:0.0; 
stroke:#000000; stroke-width:39.3701; stroke-opacity:1; 
stroke-linecap:round; stroke-linejoin:round;">
</g>
<g style="fill:#000000; fill-opacity:0.0; 
stroke:#000000; stroke-width:59.0551; stroke-opacity:1; 
stroke-linecap:round; stroke-linejoin:round;">
<path d="M43307 4724
L43307 3937
" />
</g>
<g style="fill:#000000; fill-opacity:0.0; 
stroke:#000000; stroke-width:39.3701; stroke-opacity:1; 
stroke-linecap:round; stroke-linejoin:round;">
</g>
<g style="fill:#000000; fill-opacity:0.0; 
stroke:#000000; stroke-width:59.0551; stroke-opacity:1; 
stroke-linecap:round; stroke-linejoin:round;">
<path d="M62992 4724
L62992 3937
" />
</g>
<g style="fill:#000000; fill-opacity:0.0; 
stroke:#000000; stroke-width:39.3701; stroke-opacity:1; 
stroke-linecap:round; stroke-linejoin:round;">
</g>
<g style="fill:#000000; fill-opacity:0.0; 
stroke:#000000; stroke-width:59.0551; stroke-opacity:1; 
stroke-linecap:round; stroke-linejoin:round;">
<path d="M82677 4724
L82677 3937
" />
</g>
<g style="fill:#000000; fill-opacity:0.0; 
stroke:#000000; stroke-width:39.3701; stroke-opacity:1; 
stroke-linecap:round; stroke-linejoin:round;">
</g>
<g style="fill:#000000; fill-opacity:0.0; 
stroke:#000000; stroke-width:59.0551; stroke-opacity:1; 
stroke-linecap:round; stroke-linejoin:round;">
<path d="M102362 4724
L102362 3937
" />
</g>
<g style="fill:#000000; fill-opacity:0.0; 
stroke:#000000; stroke-width:39.3701; stroke-opacity:1; 
stroke-linecap:round; stroke-linejoin:round;">
</g>
<g style="fill:#000000; fill-opacity:0.0; 
stroke:#000000; stroke-width:59.0551; stroke-opacity:1; 
stroke-linecap:round; stroke-linejoin:round;">
<path d="M14199 4562
L13906 4562
" />
<path d="M14052 4562
L14052 4050
L14004 4123
L13955 4172
L13906 4196
" />
</g>
<g style="fill:#000000; fill-opacity:0.0; 
stroke:#000000; stroke-width:39.3701; stroke-opacity:1; 
stroke-linecap:round; stroke-linejoin:round;">
</g>
<g style="fill:#000000; fill-opacity:0.0; 
stroke:#000000; stroke-width:59.0551; stroke-opacity:1; 
stroke-linecap:round; stroke-linejoin:round;">
<path d="M33591 4099
L33615 4074
L33664 4050
L33786 4050
L33835 4074
L33859 4099
L33884 4147
L33884 4196
L33859 4269
L33567 4562
L33884 4562
" />
</g>
<g style="fill:#000000; fill-opacity:0.0; 
stroke:#000000; stroke-width:39.3701; stroke-opacity:1; 
stroke-linecap:round; stroke-linejoin:round;">
</g>
<g style="fill:#000000; fill-opacity:0.0; 
stroke:#000000; stroke-width:59.0551; stroke-opacity:1; 
stroke-linecap:round; stroke-linejoin:round;">
<path d="M53252 4050
L53569 4050
L53398 4245
L53471 4245
L53520 4269
L53544 4294
L53569 4342
L53569 4464
L53544 4513
L53520 4537
L53471 4562
L53325 4562
L53276 4537
L53252 4513
" />
</g>
<g style="fill:#000000; fill-opacity:0.0; 
stroke:#000000; stroke-width:39.3701; stroke-opacity:1; 
stroke-linecap:round; stroke-linejoin:round;">
</g>
<g style="fill:#000000; fill-opacity:0.0; 
stroke:#000000; stroke-width:59.0551; stroke-opacity:1; 
stroke-linecap:round; stroke-linejoin:round;">
<path d="M73205 4221
L73205 4562
" />
<path d="M73083 4026
L72961 4391
L73278 4391
" />
</g>
<g style="fill:#000000; fill-opacity:0.0; 
stroke:#000000; stroke-width:39.3701; stroke-opacity:1; 
stroke-linecap:round; stroke-linejoin:round;">
</g>
<g style="fill:#000000; fill-opacity:0.0; 
stroke:#000000; stroke-width:59.0551; stroke-opacity:1; 
stroke-linecap:round; stroke-linejoin:round;">
<path d="M92914 4050
L92671 4050
L92646 4294
L92671 4269
L92719 4245
L92841 4245
L92890 4269
L92914 4294
L92939 4342
L92939 4464
L92914 4513
L92890 4537
L92841 4562
L92719 4562
L92671 4537
L92646 4513
" />
</g>
<g style="fill:#000000; fill-opacity:0.0; 
stroke:#000000; stroke-width:39.3701; stroke-opacity:1; 
stroke-linecap:round; stroke-linejoin:round;">
</g>
<g style="fill:#000000; fill-opacity:0.0; 
stroke:#000000; stroke-width:59.0551; stroke-opacity:1; 
stroke-linecap:round; stroke-linejoin:round;">
<path d="M112575 4050
L112477 4050
L112429 4074
L112404 4099
L112356 4172
L112331 4269
L112331 4464
L112356 4513
L112380 4537
L112429 4562
L112526 4562
L112575 4537
L112599 4513
L112624 4464
L112624 4342
L112599 4294
L112575 4269
L112526 4245
L112429 4245
L112380 4269
L112356 4294
L112331 4342
" />
</g>
<g style="fill:#000000; fill-opacity:0.0; 
stroke:#000000; stroke-width:39.3701; stroke-opacity:1; 
stroke-linecap:round; stroke-linejoin:round;">
</g>
<g style="fill:#000000; fill-opacity:0.0; 
stroke:#000000; stroke-width:59.0551; stroke-opacity:1; 
stroke-linecap:round; stroke-linejoin:round;">
<path d="M23622 77955
L23622 78742
" />
</g>
<g style="fill:#000000; fill-opacity:0.0; 
stroke:#000000; stroke-width:39.3701; stroke-opacity:1; 
stroke-linecap:round; stroke-linejoin:round;">
</g>
<g style="fill:#000000; fill-opacity:0.0; 
stroke:#000000; stroke-width:59.0551; stroke-opacity:1; 
stroke-linecap:round; stroke-linejoin:round;">
<path d="M43307 77955
L43307 78742
" />
</g>
<g style="fill:#000000; fill-opacity:0.0; 
stroke:#000000; stroke-width:39.3701; stroke-opacity:1; 
stroke-linecap:round; stroke-linejoin:round;">
</g>
<g style="fill:#000000; fill-opacity:0.0; 
stroke:#000000; stroke-width:59.0551; stroke-opacity:1; 
stroke-linecap:round; stroke-linejoin:round;">
<path d="M62992 77955
L62992 78742
" />
</g>
<g style="fill:#000000; fill-opacity:0.0; 
stroke:#000000; stroke-width:39.3701; stroke-opacity:1; 
stroke-linecap:round; stroke-linejoin:round;">
</g>
<g style="fill:#000000; fill-opacity:0.0; 
stroke:#000000; stroke-width:59.0551; stroke-opacity:1; 
stroke-linecap:round; stroke-linejoin:round;">
<path d="M82677 77955
L82677 78742
" />
</g>
<g style="fill:#000000; fill-opacity:0.0; 
stroke:#000000; stroke-width:39.3701; stroke-opacity:1; 
stroke-linecap:round; stroke-linejoin:round;">
</g>
<g style="fill:#000000; fill-opacity:0.0; 
stroke:#000000; stroke-width:59.0551; stroke-opacity:1; 
stroke-linecap:round; stroke-linejoin:round;">
<path d="M102362 77955
L102362 78742
" />
</g>
<g style="fill:#000000; fill-opacity:0.0; 
stroke:#000000; stroke-width:39.3701; stroke-opacity:1; 
stroke-linecap:round; stroke-linejoin:round;">
</g>
<g style="fill:#000000; fill-opacity:0.0; 
stroke:#000000; stroke-width:59.0551; stroke-opacity:1; 
stroke-linecap:round; stroke-linejoin:round;">
<path d="M14199 78580
L13906 78580
" />
<path d="M14052 78580
L14052 78069
L14004 78142
L13955 78190
L13906 78215
" />
</g>
<g style="fill:#000000; fill-opacity:0.0; 
stroke:#000000; stroke-width:39.3701; stroke-opacity:1; 
stroke-linecap:round; stroke-linejoin:round;">
</g>
<g style="fill:#000000; fill-opacity:0.0; 
stroke:#000000; stroke-width:59.0551; stroke-opacity:1; 
stroke-linecap:round; stroke-linejoin:round;">
<path d="M33591 78117
L33615 78093
L33664 78069
L33786 78069
L33835 78093
L33859 78117
L33884 78166
L33884 78215
L33859 78288
L33567 78580
L33884 78580
" />
</g>
<g style="fill:#000000; fill-opacity:0.0; 
stroke:#000000; stroke-width:39.3701; stroke-opacity:1; 
stroke-linecap:round; stroke-linejoin:round;">
</g>
<g style="fill:#000000; fill-opacity:0.0; 
stroke:#000000; stroke-width:59.0551; stroke-opacity:1; 
stroke-linecap:round; stroke-linejoin:round;">
<path d="M53252 78069
L53569 78069
L53398 78263
L53471 78263
L53520 78288
L53544 78312
L53569 78361
L53569 78483
L53544 78532
L53520 78556
L53471 78580
L53325 78580
L53276 78556
L53252 78532
" />
</g>
<g style="fill:#000000; fill-opacity:0.0; 
stroke:#000000; stroke-width:39.3701; stroke-opacity:1; 
stroke-linecap:round; stroke-linejoin:round;">
</g>
<g style="fill:#000000; fill-opacity:0.0; 
stroke:#000000; stroke-width:59.0551; stroke-opacity:1; 
stroke-linecap:round; stroke-linejoin:round;">
<path d="M73205 78239
L73205 78580
" />
<path d="M73083 78044
L72961 78410
L73278 78410
" />
</g>
<g style="fill:#000000; fill-opacity:0.0; 
stroke:#000000; stroke-width:39.3701; stroke-opacity:1; 
stroke-linecap:round; stroke-linejoin:round;">
</g>
<g style="fill:#000000; fill-opacity:0.0; 
stroke:#000000; stroke-width:59.0551; stroke-opacity:1; 
stroke-linecap:round; stroke-linejoin:round;">
<path d="M92914 78069
L92671 78069
L92646 78312
L92671 78288
L92719 78263
L92841 78263
L92890 78288
L92914 78312
L92939 78361
L92939 78483
L92914 78532
L92890 78556
L92841 78580
L92719 78580
L92671 78556
L92646 78532
" />
</g>
<g style="fill:#000000; fill-opacity:0.0; 
stroke:#000000; stroke-width:39.3701; stroke-opacity:1; 
stroke-linecap:round; stroke-linejoin:round;">
</g>
<g style="fill:#000000; fill-opacity:0.0; 
stroke:#000000; stroke-width:59.0551; stroke-opacity:1; 
stroke-linecap:round; stroke-linejoin:round;">
<path d="M112575 78069
L112477 78069
L112429 78093
L112404 78117
L112356 78190
L112331 78288
L112331 78483
L112356 78532
L112380 78556
L112429 78580
L112526 78580
L112575 78556
L112599 78532
L112624 78483
L112624 78361
L112599 78312
L112575 78288
L112526 78263
L112429 78263
L112380 78288
L112356 78312
L112331 78361
" />
</g>
<g style="fill:#000000; fill-opacity:0.0; 
stroke:#000000; stroke-width:39.3701; stroke-opacity:1; 
stroke-linecap:round; stroke-linejoin:round;">
</g>
<g style="fill:#000000; fill-opacity:0.0; 
stroke:#000000; stroke-width:59.0551; stroke-opacity:1; 
stroke-linecap:round; stroke-linejoin:round;">
<path d="M3937 23622
L4724 23622
" />
</g>
<g style="fill:#000000; fill-opacity:0.0; 
stroke:#000000; stroke-width:39.3701; stroke-opacity:1; 
stroke-linecap:round; stroke-linejoin:round;">
</g>
<g style="fill:#000000; fill-opacity:0.0; 
stroke:#000000; stroke-width:59.0551; stroke-opacity:1; 
stroke-linecap:round; stroke-linejoin:round;">
<path d="M3937 43307
L4724 43307
" />
</g>
<g style="fill:#000000; fill-opacity:0.0; 
stroke:#000000; stroke-width:39.3701; stroke-opacity:1; 
stroke-linecap:round; stroke-linejoin:round;">
</g>
<g style="fill:#000000; fill-opacity:0.0; 
stroke:#000000; stroke-width:59.0551; stroke-opacity:1; 
stroke-linecap:round; stroke-linejoin:round;">
<path d="M3937 62992
L4724 62992
" />
</g>
<g style="fill:#000000; fill-opacity:0.0; 
stroke:#000000; stroke-width:39.3701; stroke-opacity:1; 
stroke-linecap:round; stroke-linejoin:round;">
</g>
<g style="fill:#000000; fill-opacity:0.0; 
stroke:#000000; stroke-width:59.0551; stroke-opacity:1; 
stroke-linecap:round; stroke-linejoin:round;">
<path d="M4208 13864
L4452 13864
" />
<path d="M4160 14011
L4330 13499
L4501 14011
" />
</g>
<g style="fill:#000000; fill-opacity:0.0; 
stroke:#000000; stroke-width:39.3701; stroke-opacity:1; 
stroke-linecap:round; stroke-linejoin:round;">
</g>
<g style="fill:#000000; fill-opacity:0.0; 
stroke:#000000; stroke-width:59.0551; stroke-opacity:1; 
stroke-linecap:round; stroke-linejoin:round;">
<path d="M4367 33428
L4440 33452
L4464 33476
L4489 33525
L4489 33598
L4464 33647
L4440 33671
L4391 33696
L4196 33696
L4196 33184
L4367 33184
L4416 33208
L4440 33233
L4464 33281
L4464 33330
L4440 33379
L4416 33403
L4367 33428
L4196 33428
" />
</g>
<g style="fill:#000000; fill-opacity:0.0; 
stroke:#000000; stroke-width:39.3701; stroke-opacity:1; 
stroke-linecap:round; stroke-linejoin:round;">
</g>
<g style="fill:#000000; fill-opacity:0.0; 
stroke:#000000; stroke-width:59.0551; stroke-opacity:1; 
stroke-linecap:round; stroke-linejoin:round;">
<path d="M4489 53332
L4464 53356
L4391 53381
L4342 53381
L4269 53356
L4221 53308
L4196 53259
L4172 53161
L4172 53088
L4196 52991
L4221 52942
L4269 52893
L4342 52869
L4391 52869
L4464 52893
L4489 52918
" />
</g>
<g style="fill:#000000; fill-opacity:0.0; 
stroke:#000000; stroke-width:39.3701; stroke-opacity:1; 
stroke-linecap:round; stroke-linejoin:round;">
</g>
<g style="fill:#000000; fill-opacity:0.0; 
stroke:#000000; stroke-width:59.0551; stroke-opacity:1; 
stroke-linecap:round; stroke-linejoin:round;">
<path d="M4196 73066
L4196 72554
L4318 72554
L4391 72578
L4440 72627
L4464 72676
L4489 72773
L4489 72846
L4464 72944
L4440 72993
L4391 73041
L4318 73066
L4196 73066
" />
</g>
<g style="fill:#000000; fill-opacity:0.0; 
stroke:#000000; stroke-width:39.3701; stroke-opacity:1; 
stroke-linecap:round; stroke-linejoin:round;">
</g>
<g style="fill:#000000; fill-opacity:0.0; 
stroke:#000000; stroke-width:59.0551; stroke-opacity:1; 
stroke-linecap:round; stroke-linejoin:round;">
<path d="M112992 23622
L112205 23622
" />
</g>
<g style="fill:#000000; fill-opacity:0.0; 
stroke:#000000; stroke-width:39.3701; stroke-opacity:1; 
stroke-linecap:round; stroke-linejoin:round;">
</g>
<g style="fill:#000000; fill-opacity:0.0; 
stroke:#000000; stroke-width:59.0551; stroke-opacity:1; 
stroke-linecap:round; stroke-linejoin:round;">
<path d="M112992 43307
L112205 43307
" />
</g>
<g style="fill:#000000; fill-opacity:0.0; 
stroke:#000000; stroke-width:39.3701; stroke-opacity:1; 
stroke-linecap:round; stroke-linejoin:round;">
</g>
<g style="fill:#000000; fill-opacity:0.0; 
stroke:#000000; stroke-width:59.0551; stroke-opacity:1; 
stroke-linecap:round; stroke-linejoin:round;">
<path d="M112992 62992
L112205 62992
" />
</g>
<g style="fill:#000000; fill-opacity:0.0; 
stroke:#000000; stroke-width:39.3701; stroke-opacity:1; 
stroke-linecap:round; stroke-linejoin:round;">
</g>
<g style="fill:#000000; fill-opacity:0.0; 
stroke:#000000; stroke-width:59.0551; stroke-opacity:1; 
stroke-linecap:round; stroke-linejoin:round;">
<path d="M112477 13864
L112721 13864
" />
<path d="M112428 14011
L112599 13499
L112769 14011
" />
</g>
<g style="fill:#000000; fill-opacity:0.0; 
stroke:#000000; stroke-width:39.3701; stroke-opacity:1; 
stroke-linecap:round; stroke-linejoin:round;">
</g>
<g style="fill:#000000; fill-opacity:0.0; 
stroke:#000000; stroke-width:59.0551; stroke-opacity:1; 
stroke-linecap:round; stroke-linejoin:round;">
<path d="M112635 33428
L112708 33452
L112733 33476
L112757 33525
L112757 33598
L112733 33647
L112708 33671
L112660 33696
L112465 33696
L112465 33184
L112635 33184
L112684 33208
L112708 33233
L112733 33281
L112733 33330
L112708 33379
L112684 33403
L112635 33428
L112465 33428
" />
</g>
<g style="fill:#000000; fill-opacity:0.0; 
stroke:#000000; stroke-width:39.3701; stroke-opacity:1; 
stroke-linecap:round; stroke-linejoin:round;">
</g>
<g style="fill:#000000; fill-opacity:0.0; 
stroke:#000000; stroke-width:59.0551; stroke-opacity:1; 
stroke-linecap:round; stroke-linejoin:round;">
<path d="M112757 53332
L112733 53356
L112660 53381
L112611 53381
L112538 53356
L112489 53308
L112465 53259
L112440 53161
L112440 53088
L112465 52991
L112489 52942
L112538 52893
L112611 52869
L112660 52869
L112733 52893
L112757 52918
" />
</g>
<g style="fill:#000000; fill-opacity:0.0; 
stroke:#000000; stroke-width:39.3701; stroke-opacity:1; 
stroke-linecap:round; stroke-linejoin:round;">
</g>
<g style="fill:#000000; fill-opacity:0.0; 
stroke:#000000; stroke-width:59.0551; stroke-opacity:1; 
stroke-linecap:round; stroke-linejoin:round;">
<path d="M112465 73066
L112465 72554
L112587 72554
L112660 72578
L112708 72627
L112733 72676
L112757 72773
L112757 72846
L112733 72944
L112708 72993
L112660 73041
L112587 73066
L112465 73066
" />
</g>
<g style="fill:#000000; fill-opacity:0.0; 
stroke:#000000; stroke-width:39.3701; stroke-opacity:1; 
stroke-linecap:round; stroke-linejoin:round;">
</g>
<g style="fill:#000000; fill-opacity:0.0; 
stroke:#000000; stroke-width:59.0551; stroke-opacity:1; 
stroke-linecap:round; stroke-linejoin:round;">
<path d="M78911 76293
L78911 75703
L79051 75703
L79136 75731
L79192 75787
L79220 75843
L79248 75956
L79248 76040
L79220 76153
L79192 76209
L79136 76265
L79051 76293
L78911 76293
" />
<path d="M79754 76293
L79754 75984
L79726 75928
L79670 75899
L79557 75899
L79501 75928
" />
<path d="M79754 76265
L79698 76293
L79557 76293
L79501 76265
L79473 76209
L79473 76153
L79501 76096
L79557 76068
L79698 76068
L79754 76040
" />
<path d="M79951 75899
L80176 75899
" />
<path d="M80036 75703
L80036 76209
L80064 76265
L80120 76293
L80176 76293
" />
<path d="M80598 76265
L80542 76293
L80429 76293
L80373 76265
L80345 76209
L80345 75984
L80373 75928
L80429 75899
L80542 75899
L80598 75928
L80626 75984
L80626 76040
L80345 76096
" />
<path d="M80879 76237
L80907 76265
L80879 76293
L80851 76265
L80879 76237
L80879 76293
" />
<path d="M80879 75928
L80907 75956
L80879 75984
L80851 75956
L80879 75928
L80879 75984
" />
<path d="M81582 75759
L81610 75731
L81667 75703
L81807 75703
L81863 75731
L81892 75759
L81920 75815
L81920 75871
L81892 75956
L81554 76293
L81920 76293
" />
<path d="M82285 75703
L82341 75703
L82398 75731
L82426 75759
L82454 75815
L82482 75928
L82482 76068
L82454 76181
L82426 76237
L82398 76265
L82341 76293
L82285 76293
L82229 76265
L82201 76237
L82173 76181
L82145 76068
L82145 75928
L82173 75815
L82201 75759
L82229 75731
L82285 75703
" />
<path d="M82707 75759
L82735 75731
L82791 75703
L82932 75703
L82988 75731
L83016 75759
L83045 75815
L83045 75871
L83016 75956
L82679 76293
L83045 76293
" />
<path d="M83607 76293
L83269 76293
" />
<path d="M83438 76293
L83438 75703
L83382 75787
L83326 75843
L83269 75871
" />
<path d="M83860 76068
L84310 76068
" />
<path d="M84901 76293
L84563 76293
" />
<path d="M84732 76293
L84732 75703
L84676 75787
L84619 75843
L84563 75871
" />
<path d="M85126 75759
L85154 75731
L85210 75703
L85350 75703
L85407 75731
L85435 75759
L85463 75815
L85463 75871
L85435 75956
L85097 76293
L85463 76293
" />
<path d="M85716 76068
L86166 76068
" />
<path d="M86560 75703
L86616 75703
L86672 75731
L86700 75759
L86728 75815
L86757 75928
L86757 76068
L86728 76181
L86700 76237
L86672 76265
L86616 76293
L86560 76293
L86503 76265
L86475 76237
L86447 76181
L86419 76068
L86419 75928
L86447 75815
L86475 75759
L86503 75731
L86560 75703
" />
<path d="M87319 76293
L86982 76293
" />
<path d="M87150 76293
L87150 75703
L87094 75787
L87038 75843
L86982 75871
" />
</g>
<g style="fill:#000000; fill-opacity:0.0; 
stroke:#000000; stroke-width:39.3701; stroke-opacity:1; 
stroke-linecap:round; stroke-linejoin:round;">
</g>
<g style="fill:#000000; fill-opacity:0.0; 
stroke:#000000; stroke-width:59.0551; stroke-opacity:1; 
stroke-linecap:round; stroke-linejoin:round;">
<path d="M69685 76577
L112205 76577
" />
</g>
<g style="fill:#000000; fill-opacity:0.0; 
stroke:#000000; stroke-width:39.3701; stroke-opacity:1; 
stroke-linecap:round; stroke-linejoin:round;">
</g>
<g style="fill:#000000; fill-opacity:0.0; 
stroke:#000000; stroke-width:59.0551; stroke-opacity:1; 
stroke-linecap:round; stroke-linejoin:round;">
<path d="M70249 77395
L70249 76805
" />
<path d="M70587 77395
L70334 77058
" />
<path d="M70587 76805
L70249 77142
" />
<path d="M70840 77395
L70840 77002
" />
<path d="M70840 76805
L70812 76833
L70840 76861
L70868 76833
L70840 76805
L70840 76861
" />
<path d="M71458 77339
L71430 77367
L71346 77395
L71290 77395
L71205 77367
L71149 77311
L71121 77255
L71093 77142
L71093 77058
L71121 76946
L71149 76889
L71205 76833
L71290 76805
L71346 76805
L71430 76833
L71458 76861
" />
<path d="M71965 77395
L71965 77086
L71937 77030
L71880 77002
L71768 77002
L71712 77030
" />
<path d="M71965 77367
L71908 77395
L71768 77395
L71712 77367
L71683 77311
L71683 77255
L71712 77199
L71768 77171
L71908 77171
L71965 77142
" />
<path d="M72499 77395
L72499 76805
" />
<path d="M72499 77367
L72443 77395
L72330 77395
L72274 77367
L72246 77339
L72218 77283
L72218 77114
L72246 77058
L72274 77030
L72330 77002
L72443 77002
L72499 77030
" />
<path d="M73230 77086
L73427 77086
" />
<path d="M73511 77395
L73230 77395
L73230 76805
L73511 76805
" />
<path d="M73764 77339
L73793 77367
L73764 77395
L73736 77367
L73764 77339
L73764 77395
" />
<path d="M74046 77395
L74046 76805
L74186 76805
L74271 76833
L74327 76889
L74355 76946
L74383 77058
L74383 77142
L74355 77255
L74327 77311
L74271 77367
L74186 77395
L74046 77395
" />
<path d="M74636 77339
L74664 77367
L74636 77395
L74608 77367
L74636 77339
L74636 77395
" />
<path d="M74889 77227
L75171 77227
" />
<path d="M74833 77395
L75030 76805
L75227 77395
" />
<path d="M75424 77339
L75452 77367
L75424 77395
L75395 77367
L75424 77339
L75424 77395
" />
<path d="M76605 77395
L76605 76805
" />
<path d="M76661 77171
L76830 77395
" />
<path d="M76830 77002
L76605 77227
" />
<path d="M77083 77395
L77083 77002
" />
<path d="M77083 76805
L77055 76833
L77083 76861
L77111 76833
L77083 76805
L77083 76861
" />
<path d="M77617 77367
L77561 77395
L77448 77395
L77392 77367
L77364 77339
L77336 77283
L77336 77114
L77364 77058
L77392 77030
L77448 77002
L77561 77002
L77617 77030
" />
<path d="M78123 77395
L78123 77086
L78095 77030
L78039 77002
L77926 77002
L77870 77030
" />
<path d="M78123 77367
L78067 77395
L77926 77395
L77870 77367
L77842 77311
L77842 77255
L77870 77199
L77926 77171
L78067 77171
L78123 77142
" />
<path d="M78658 77395
L78658 76805
" />
<path d="M78658 77367
L78601 77395
L78489 77395
L78433 77367
L78404 77339
L78376 77283
L78376 77114
L78404 77058
L78433 77030
L78489 77002
L78601 77002
L78658 77030
" />
<path d="M79557 77620
L79529 77592
L79473 77508
L79445 77452
L79417 77367
L79389 77227
L79389 77114
L79417 76974
L79445 76889
L79473 76833
L79529 76749
L79557 76721
" />
<path d="M80064 76805
L79782 76805
L79754 77086
L79782 77058
L79839 77030
L79979 77030
L80036 77058
L80064 77086
L80092 77142
L80092 77283
L80064 77339
L80036 77367
L79979 77395
L79839 77395
L79782 77367
L79754 77339
" />
<path d="M80345 77339
L80373 77367
L80345 77395
L80317 77367
L80345 77339
L80345 77395
" />
<path d="M80935 77395
L80598 77395
" />
<path d="M80767 77395
L80767 76805
L80710 76889
L80654 76946
L80598 76974
" />
<path d="M81188 77339
L81217 77367
L81188 77395
L81160 77367
L81188 77339
L81188 77395
" />
<path d="M81723 77002
L81723 77395
" />
<path d="M81582 76777
L81442 77199
L81807 77199
" />
<path d="M81976 77620
L82004 77592
L82060 77508
L82088 77452
L82117 77367
L82145 77227
L82145 77114
L82117 76974
L82088 76889
L82060 76833
L82004 76749
L81976 76721
" />
<path d="M82426 77171
L82876 77171
" />
<path d="M83466 77395
L83129 77395
" />
<path d="M83298 77395
L83298 76805
L83241 76889
L83185 76946
L83129 76974
" />
</g>
<g style="fill:#000000; fill-opacity:0.0; 
stroke:#000000; stroke-width:39.3701; stroke-opacity:1; 
stroke-linecap:round; stroke-linejoin:round;">
</g>
<g style="fill:#000000; fill-opacity:0.0; 
stroke:#000000; stroke-width:59.0551; stroke-opacity:1; 
stroke-linecap:round; stroke-linejoin:round;">
<path d="M69685 75396
L112205 75396
" />
</g>
<g style="fill:#000000; fill-opacity:0.0; 
stroke:#000000; stroke-width:39.3701; stroke-opacity:1; 
stroke-linecap:round; stroke-linejoin:round;">
</g>
<g style="fill:#000000; fill-opacity:0.0; 
stroke:#000000; stroke-width:118.11; stroke-opacity:1; 
stroke-linecap:round; stroke-linejoin:round;">
<path d="M104099 76293
L103902 76012
" />
<path d="M103761 76293
L103761 75703
L103986 75703
L104042 75731
L104070 75759
L104099 75815
L104099 75899
L104070 75956
L104042 75984
L103986 76012
L103761 76012
" />
<path d="M104577 76265
L104520 76293
L104408 76293
L104352 76265
L104323 76209
L104323 75984
L104352 75928
L104408 75899
L104520 75899
L104577 75928
L104605 75984
L104605 76040
L104323 76096
" />
<path d="M104802 75899
L104942 76293
L105083 75899
" />
<path d="M105308 76237
L105336 76265
L105308 76293
L105280 76265
L105308 76237
L105308 76293
" />
<path d="M105308 75928
L105336 75956
L105308 75984
L105280 75956
L105308 75928
L105308 75984
" />
<path d="M106011 75759
L106039 75731
L106095 75703
L106236 75703
L106292 75731
L106320 75759
L106348 75815
L106348 75871
L106320 75956
L105983 76293
L106348 76293
" />
</g>
<g style="fill:#000000; fill-opacity:0.0; 
stroke:#000000; stroke-width:39.3701; stroke-opacity:1; 
stroke-linecap:round; stroke-linejoin:round;">
</g>
<g style="fill:#000000; fill-opacity:0.0; 
stroke:#000000; stroke-width:59.0551; stroke-opacity:1; 
stroke-linecap:round; stroke-linejoin:round;">
<path d="M70221 76265
L70305 76293
L70446 76293
L70502 76265
L70530 76237
L70559 76181
L70559 76124
L70530 76068
L70502 76040
L70446 76012
L70334 75984
L70277 75956
L70249 75928
L70221 75871
L70221 75815
L70249 75759
L70277 75731
L70334 75703
L70474 75703
L70559 75731
" />
<path d="M70812 76293
L70812 75899
" />
<path d="M70812 75703
L70784 75731
L70812 75759
L70840 75731
L70812 75703
L70812 75759
" />
<path d="M71037 75899
L71346 75899
L71037 76293
L71346 76293
" />
<path d="M71796 76265
L71740 76293
L71627 76293
L71571 76265
L71543 76209
L71543 75984
L71571 75928
L71627 75899
L71740 75899
L71796 75928
L71824 75984
L71824 76040
L71543 76096
" />
<path d="M72077 76237
L72105 76265
L72077 76293
L72049 76265
L72077 76237
L72077 76293
" />
<path d="M72077 75928
L72105 75956
L72077 75984
L72049 75956
L72077 75928
L72077 75984
" />
<path d="M72780 76124
L73061 76124
" />
<path d="M72724 76293
L72921 75703
L73118 76293
" />
<path d="M73568 75899
L73568 76293
" />
<path d="M73427 75674
L73286 76096
L73652 76096
" />
</g>
<g style="fill:#000000; fill-opacity:0.0; 
stroke:#000000; stroke-width:39.3701; stroke-opacity:1; 
stroke-linecap:round; stroke-linejoin:round;">
</g>
<g style="fill:#000000; fill-opacity:0.0; 
stroke:#000000; stroke-width:59.0551; stroke-opacity:1; 
stroke-linecap:round; stroke-linejoin:round;">
<path d="M103714 77395
L103714 76805
" />
<path d="M104248 77395
L104248 76805
" />
<path d="M104248 77367
L104192 77395
L104079 77395
L104023 77367
L103995 77339
L103967 77283
L103967 77114
L103995 77058
L104023 77030
L104079 77002
L104192 77002
L104248 77030
" />
<path d="M104529 77339
L104557 77367
L104529 77395
L104501 77367
L104529 77339
L104529 77395
" />
<path d="M104529 77030
L104557 77058
L104529 77086
L104501 77058
L104529 77030
L104529 77086
" />
<path d="M105570 77395
L105232 77395
" />
<path d="M105401 77395
L105401 76805
L105345 76889
L105289 76946
L105232 76974
" />
<path d="M106245 76777
L105739 77536
" />
<path d="M106751 77395
L106413 77395
" />
<path d="M106582 77395
L106582 76805
L106526 76889
L106470 76946
L106413 76974
" />
</g>
<g style="fill:#000000; fill-opacity:0.0; 
stroke:#000000; stroke-width:39.3701; stroke-opacity:1; 
stroke-linecap:round; stroke-linejoin:round;">
</g>
<g style="fill:#000000; fill-opacity:0.0; 
stroke:#000000; stroke-width:59.0551; stroke-opacity:1; 
stroke-linecap:round; stroke-linejoin:round;">
<path d="M69685 73821
L112205 73821
" />
</g>
<g style="fill:#000000; fill-opacity:0.0; 
stroke:#000000; stroke-width:39.3701; stroke-opacity:1; 
stroke-linecap:round; stroke-linejoin:round;">
</g>
<g style="fill:#000000; fill-opacity:0.0; 
stroke:#000000; stroke-width:157.48; stroke-opacity:1; 
stroke-linecap:round; stroke-linejoin:round;">
<path d="M70360 74099
L70810 74099
" />
<path d="M70486 74886
L70585 74099
" />
<path d="M70974 74886
L71039 74361
" />
<path d="M71072 74099
L71030 74136
L71063 74174
L71105 74136
L71072 74099
L71063 74174
" />
<path d="M71302 74361
L71602 74361
" />
<path d="M71447 74099
L71363 74774
L71391 74849
L71461 74886
L71536 74886
" />
<path d="M71911 74886
L71841 74849
L71813 74774
L71897 74099
" />
<path d="M72516 74849
L72436 74886
L72286 74886
L72216 74849
L72187 74774
L72225 74474
L72272 74399
L72352 74361
L72501 74361
L72572 74399
L72600 74474
L72591 74549
L72206 74624
" />
<path d="M72895 74811
L72928 74849
L72886 74886
L72853 74849
L72895 74811
L72886 74886
" />
<path d="M72947 74399
L72980 74436
L72937 74474
L72905 74436
L72947 74399
L72937 74474
" />
<path d="M74175 74474
L74283 74511
L74315 74549
L74343 74624
L74329 74736
L74283 74811
L74240 74849
L74161 74886
L73861 74886
L73959 74099
L74222 74099
L74292 74136
L74325 74174
L74353 74249
L74343 74324
L74297 74399
L74254 74436
L74175 74474
L73912 74474
" />
<path d="M74648 74886
L74714 74361
" />
<path d="M74695 74511
L74742 74436
L74784 74399
L74864 74361
L74939 74361
" />
<path d="M75440 74849
L75361 74886
L75211 74886
L75140 74849
L75112 74774
L75150 74474
L75196 74399
L75276 74361
L75426 74361
L75496 74399
L75525 74474
L75515 74549
L75131 74624
" />
<path d="M76148 74886
L76199 74474
L76171 74399
L76101 74361
L75951 74361
L75871 74399
" />
<path d="M76153 74849
L76073 74886
L75885 74886
L75815 74849
L75787 74774
L75796 74699
L75843 74624
L75923 74586
L76110 74586
L76190 74549
" />
<path d="M76860 74886
L76959 74099
" />
<path d="M76865 74849
L76785 74886
L76635 74886
L76565 74849
L76532 74811
L76504 74736
L76532 74511
L76579 74436
L76621 74399
L76701 74361
L76851 74361
L76921 74399
" />
<path d="M77235 74886
L77334 74099
" />
<path d="M77296 74399
L77376 74361
L77526 74361
L77596 74399
L77629 74436
L77657 74511
L77629 74736
L77582 74811
L77540 74849
L77460 74886
L77310 74886
L77240 74849
" />
<path d="M78060 74886
L77990 74849
L77957 74811
L77929 74736
L77957 74511
L78004 74436
L78046 74399
L78126 74361
L78238 74361
L78309 74399
L78341 74436
L78370 74511
L78341 74736
L78295 74811
L78252 74849
L78173 74886
L78060 74886
" />
<path d="M78998 74886
L79049 74474
L79021 74399
L78951 74361
L78801 74361
L78721 74399
" />
<path d="M79002 74849
L78923 74886
L78735 74886
L78665 74849
L78637 74774
L78646 74699
L78693 74624
L78773 74586
L78960 74586
L79040 74549
" />
<path d="M79373 74886
L79438 74361
" />
<path d="M79419 74511
L79466 74436
L79508 74399
L79588 74361
L79663 74361
" />
<path d="M80197 74886
L80296 74099
" />
<path d="M80202 74849
L80122 74886
L79972 74886
L79902 74849
L79869 74811
L79841 74736
L79869 74511
L79916 74436
L79958 74399
L80038 74361
L80188 74361
L80258 74399
" />
<path d="M81646 74099
L81271 74099
L81186 74474
L81229 74436
L81308 74399
L81496 74399
L81566 74436
L81599 74474
L81627 74549
L81603 74736
L81557 74811
L81514 74849
L81435 74886
L81247 74886
L81177 74849
L81144 74811
" />
<path d="M81908 74099
L82072 74886
L82433 74099
" />
<path d="M83263 74361
L83164 75149
" />
<path d="M83258 74399
L83338 74361
L83488 74361
L83558 74399
L83591 74436
L83619 74511
L83591 74736
L83544 74811
L83502 74849
L83422 74886
L83272 74886
L83202 74849
" />
<path d="M84022 74886
L83952 74849
L83919 74811
L83891 74736
L83919 74511
L83966 74436
L84008 74399
L84088 74361
L84200 74361
L84270 74399
L84303 74436
L84331 74511
L84303 74736
L84256 74811
L84214 74849
L84134 74886
L84022 74886
" />
<path d="M84612 74361
L84697 74886
L84894 74511
L84997 74886
L85212 74361
" />
<path d="M85751 74849
L85672 74886
L85522 74886
L85451 74849
L85423 74774
L85461 74474
L85508 74399
L85587 74361
L85737 74361
L85808 74399
L85836 74474
L85826 74549
L85442 74624
" />
<path d="M86122 74886
L86187 74361
" />
<path d="M86169 74511
L86215 74436
L86258 74399
L86337 74361
L86412 74361
" />
<path d="M87176 74849
L87247 74886
L87397 74886
L87476 74849
L87523 74774
L87528 74736
L87500 74661
L87429 74624
L87317 74624
L87247 74586
L87218 74511
L87223 74474
L87270 74399
L87350 74361
L87462 74361
L87532 74399
" />
<path d="M88250 74361
L88184 74886
" />
<path d="M87912 74361
L87861 74774
L87889 74849
L87959 74886
L88071 74886
L88151 74849
L88193 74811
" />
<path d="M88624 74361
L88526 75149
" />
<path d="M88620 74399
L88699 74361
L88849 74361
L88920 74399
L88953 74436
L88981 74511
L88953 74736
L88906 74811
L88864 74849
L88784 74886
L88634 74886
L88564 74849
" />
<path d="M89337 74361
L89238 75149
" />
<path d="M89332 74399
L89412 74361
L89562 74361
L89632 74399
L89665 74436
L89693 74511
L89665 74736
L89618 74811
L89576 74849
L89496 74886
L89346 74886
L89276 74849
" />
<path d="M90096 74886
L90026 74849
L89998 74774
L90082 74099
" />
<path d="M90387 74361
L90509 74886
" />
<path d="M90762 74361
L90509 74886
L90410 75074
L90368 75111
L90288 75149
" />
</g>
<g style="fill:#000000; fill-opacity:0.0; 
stroke:#000000; stroke-width:39.3701; stroke-opacity:1; 
stroke-linecap:round; stroke-linejoin:round;">
</g>
<g style="fill:#000000; fill-opacity:0.0; 
stroke:#000000; stroke-width:59.0551; stroke-opacity:1; 
stroke-linecap:round; stroke-linejoin:round;">
<path d="M70446 73070
L70249 73070
" />
<path d="M70249 73380
L70249 72789
L70530 72789
" />
<path d="M70755 73380
L70755 72986
" />
<path d="M70755 72789
L70727 72817
L70755 72845
L70784 72817
L70755 72789
L70755 72845
" />
<path d="M71121 73380
L71065 73352
L71037 73295
L71037 72789
" />
<path d="M71571 73352
L71515 73380
L71402 73380
L71346 73352
L71318 73295
L71318 73070
L71346 73014
L71402 72986
L71515 72986
L71571 73014
L71599 73070
L71599 73127
L71318 73183
" />
<path d="M71852 73323
L71880 73352
L71852 73380
L71824 73352
L71852 73323
L71852 73380
" />
<path d="M71852 73014
L71880 73042
L71852 73070
L71824 73042
L71852 73014
L71852 73070
" />
<path d="M72780 73070
L72865 73099
L72893 73127
L72921 73183
L72921 73267
L72893 73323
L72865 73352
L72808 73380
L72583 73380
L72583 72789
L72780 72789
L72836 72817
L72865 72845
L72893 72902
L72893 72958
L72865 73014
L72836 73042
L72780 73070
L72583 73070
" />
<path d="M73174 73380
L73174 72986
" />
<path d="M73174 73099
L73202 73042
L73230 73014
L73286 72986
L73343 72986
" />
<path d="M73764 73352
L73708 73380
L73596 73380
L73539 73352
L73511 73295
L73511 73070
L73539 73014
L73596 72986
L73708 72986
L73764 73014
L73793 73070
L73793 73127
L73511 73183
" />
<path d="M74299 73380
L74299 73070
L74271 73014
L74214 72986
L74102 72986
L74046 73014
" />
<path d="M74299 73352
L74242 73380
L74102 73380
L74046 73352
L74018 73295
L74018 73239
L74046 73183
L74102 73155
L74242 73155
L74299 73127
" />
<path d="M74833 73380
L74833 72789
" />
<path d="M74833 73352
L74777 73380
L74664 73380
L74608 73352
L74580 73323
L74552 73267
L74552 73099
L74580 73042
L74608 73014
L74664 72986
L74777 72986
L74833 73014
" />
<path d="M75311 73070
L75395 73099
L75424 73127
L75452 73183
L75452 73267
L75424 73323
L75395 73352
L75339 73380
L75114 73380
L75114 72789
L75311 72789
L75367 72817
L75395 72845
L75424 72902
L75424 72958
L75395 73014
L75367 73042
L75311 73070
L75114 73070
" />
<path d="M75789 73380
L75733 73352
L75705 73323
L75677 73267
L75677 73099
L75705 73042
L75733 73014
L75789 72986
L75874 72986
L75930 73014
L75958 73042
L75986 73099
L75986 73267
L75958 73323
L75930 73352
L75874 73380
L75789 73380
" />
<path d="M76492 73380
L76492 73070
L76464 73014
L76408 72986
L76295 72986
L76239 73014
" />
<path d="M76492 73352
L76436 73380
L76295 73380
L76239 73352
L76211 73295
L76211 73239
L76239 73183
L76295 73155
L76436 73155
L76492 73127
" />
<path d="M76773 73380
L76773 72986
" />
<path d="M76773 73099
L76802 73042
L76830 73014
L76886 72986
L76942 72986
" />
<path d="M77392 73380
L77392 72789
" />
<path d="M77392 73352
L77336 73380
L77223 73380
L77167 73352
L77139 73323
L77111 73267
L77111 73099
L77139 73042
L77167 73014
L77223 72986
L77336 72986
L77392 73014
" />
<path d="M78123 73380
L78123 72789
L78348 72789
L78404 72817
L78433 72845
L78461 72902
L78461 72986
L78433 73042
L78404 73070
L78348 73099
L78123 73099
" />
<path d="M78686 73352
L78770 73380
L78911 73380
L78967 73352
L78995 73323
L79023 73267
L79023 73211
L78995 73155
L78967 73127
L78911 73099
L78798 73070
L78742 73042
L78714 73014
L78686 72958
L78686 72902
L78714 72845
L78742 72817
L78798 72789
L78939 72789
L79023 72817
" />
<path d="M79642 72789
L79839 73380
L80036 72789
" />
<path d="M80457 73352
L80401 73380
L80289 73380
L80232 73352
L80204 73295
L80204 73070
L80232 73014
L80289 72986
L80401 72986
L80457 73014
L80485 73070
L80485 73127
L80204 73183
" />
<path d="M80739 73380
L80739 72986
" />
<path d="M80739 73099
L80767 73042
L80795 73014
L80851 72986
L80907 72986
" />
<path d="M81076 72845
L81104 72817
L81160 72789
L81301 72789
L81357 72817
L81385 72845
L81413 72902
L81413 72958
L81385 73042
L81048 73380
L81413 73380
" />
<path d="M81667 73323
L81695 73352
L81667 73380
L81638 73352
L81667 73323
L81667 73380
" />
<path d="M81948 73380
L81948 72789
" />
<path d="M82004 73155
L82173 73380
" />
<path d="M82173 72986
L81948 73211
" />
<path d="M82426 73380
L82426 72986
" />
<path d="M82426 72789
L82398 72817
L82426 72845
L82454 72817
L82426 72789
L82426 72845
" />
<path d="M82960 73352
L82904 73380
L82791 73380
L82735 73352
L82707 73323
L82679 73267
L82679 73099
L82707 73042
L82735 73014
L82791 72986
L82904 72986
L82960 73014
" />
<path d="M83466 73380
L83466 73070
L83438 73014
L83382 72986
L83269 72986
L83213 73014
" />
<path d="M83466 73352
L83410 73380
L83269 73380
L83213 73352
L83185 73295
L83185 73239
L83213 73183
L83269 73155
L83410 73155
L83466 73127
" />
<path d="M84001 73380
L84001 72789
" />
<path d="M84001 73352
L83944 73380
L83832 73380
L83776 73352
L83748 73323
L83719 73267
L83719 73099
L83748 73042
L83776 73014
L83832 72986
L83944 72986
L84001 73014
" />
<path d="M84141 73436
L84591 73436
" />
<path d="M84732 72986
L84732 73577
" />
<path d="M84732 73014
L84788 72986
L84901 72986
L84957 73014
L84985 73042
L85013 73099
L85013 73267
L84985 73323
L84957 73352
L84901 73380
L84788 73380
L84732 73352
" />
<path d="M85519 73352
L85463 73380
L85350 73380
L85294 73352
L85266 73323
L85238 73267
L85238 73099
L85266 73042
L85294 73014
L85350 72986
L85463 72986
L85519 73014
" />
<path d="M85772 73380
L85772 72789
" />
<path d="M85772 73014
L85829 72986
L85941 72986
L85997 73014
L86025 73042
L86054 73099
L86054 73267
L86025 73323
L85997 73352
L85941 73380
L85829 73380
L85772 73352
" />
</g>
<g style="fill:#000000; fill-opacity:0.0; 
stroke:#000000; stroke-width:39.3701; stroke-opacity:1; 
stroke-linecap:round; stroke-linejoin:round;">
</g>
<g style="fill:#000000; fill-opacity:0.0; 
stroke:#000000; stroke-width:59.0551; stroke-opacity:1; 
stroke-linecap:round; stroke-linejoin:round;">
<path d="M69685 71459
L112205 71459
" />
</g>
<g style="fill:#000000; fill-opacity:0.0; 
stroke:#000000; stroke-width:39.3701; stroke-opacity:1; 
stroke-linecap:round; stroke-linejoin:round;">
</g>
<g style="fill:#000000; fill-opacity:0.0; 
stroke:#000000; stroke-width:59.0551; stroke-opacity:1; 
stroke-linecap:round; stroke-linejoin:round;">
<path d="M70221 72289
L70305 72317
L70446 72317
L70502 72289
L70530 72260
L70559 72204
L70559 72148
L70530 72092
L70502 72064
L70446 72036
L70334 72007
L70277 71979
L70249 71951
L70221 71895
L70221 71839
L70249 71782
L70277 71754
L70334 71726
L70474 71726
L70559 71754
" />
<path d="M70812 72317
L70812 71726
" />
<path d="M71065 72317
L71065 72007
L71037 71951
L70980 71923
L70896 71923
L70840 71951
L70812 71979
" />
<path d="M71571 72289
L71515 72317
L71402 72317
L71346 72289
L71318 72232
L71318 72007
L71346 71951
L71402 71923
L71515 71923
L71571 71951
L71599 72007
L71599 72064
L71318 72120
" />
<path d="M72077 72289
L72021 72317
L71908 72317
L71852 72289
L71824 72232
L71824 72007
L71852 71951
L71908 71923
L72021 71923
L72077 71951
L72105 72007
L72105 72064
L71824 72120
" />
<path d="M72274 71923
L72499 71923
" />
<path d="M72358 71726
L72358 72232
L72386 72289
L72443 72317
L72499 72317
" />
<path d="M72696 72260
L72724 72289
L72696 72317
L72668 72289
L72696 72260
L72696 72317
" />
<path d="M72696 71951
L72724 71979
L72696 72007
L72668 71979
L72696 71951
L72696 72007
" />
</g>
<g style="fill:#000000; fill-opacity:0.0; 
stroke:#000000; stroke-width:39.3701; stroke-opacity:1; 
stroke-linecap:round; stroke-linejoin:round;">
</g>
<g style="fill:#000000; fill-opacity:0.0; 
stroke:#000000; stroke-width:118.11; stroke-opacity:1; 
stroke-linecap:round; stroke-linejoin:round;">
<path d="M70212 70545
L70550 70545
" />
<path d="M70381 71136
L70381 70545
" />
<path d="M70718 71108
L70803 71136
L70943 71136
L71000 71108
L71028 71079
L71056 71023
L71056 70967
L71028 70911
L71000 70883
L70943 70854
L70831 70826
L70775 70798
L70746 70770
L70718 70714
L70718 70658
L70746 70601
L70775 70573
L70831 70545
L70971 70545
L71056 70573
" />
<path d="M71590 71136
L71309 71136
L71309 70545
" />
</g>
<g style="fill:#000000; fill-opacity:0.0; 
stroke:#000000; stroke-width:39.3701; stroke-opacity:1; 
stroke-linecap:round; stroke-linejoin:round;">
</g>
<g style="fill:#000000; fill-opacity:0.0; 
stroke:#000000; stroke-width:59.0551; stroke-opacity:1; 
stroke-linecap:round; stroke-linejoin:round;">
<path d="M70165 69364
L70502 69364
" />
<path d="M70334 69955
L70334 69364
" />
<path d="M70699 69955
L70699 69561
" />
<path d="M70699 69364
L70671 69392
L70699 69420
L70727 69392
L70699 69364
L70699 69420
" />
<path d="M70980 69955
L70980 69561
" />
<path d="M70980 69617
L71009 69589
L71065 69561
L71149 69561
L71205 69589
L71233 69645
L71233 69955
" />
<path d="M71233 69645
L71262 69589
L71318 69561
L71402 69561
L71458 69589
L71487 69645
L71487 69955
" />
<path d="M72499 69955
L72218 69955
L72218 69364
" />
<path d="M72921 69926
L72865 69955
L72752 69955
L72696 69926
L72668 69870
L72668 69645
L72696 69589
L72752 69561
L72865 69561
L72921 69589
L72949 69645
L72949 69701
L72668 69758
" />
<path d="M73202 69955
L73202 69561
" />
<path d="M73202 69364
L73174 69392
L73202 69420
L73230 69392
L73202 69364
L73202 69420
" />
<path d="M73455 69926
L73511 69955
L73624 69955
L73680 69926
L73708 69870
L73708 69842
L73680 69786
L73624 69758
L73539 69758
L73483 69730
L73455 69673
L73455 69645
L73483 69589
L73539 69561
L73624 69561
L73680 69589
" />
<path d="M73961 69955
L73961 69364
" />
<path d="M74214 69955
L74214 69645
L74186 69589
L74130 69561
L74046 69561
L73989 69589
L73961 69617
" />
<path d="M74496 69955
L74496 69561
" />
<path d="M74496 69617
L74524 69589
L74580 69561
L74664 69561
L74721 69589
L74749 69645
L74749 69955
" />
<path d="M74749 69645
L74777 69589
L74833 69561
L74917 69561
L74974 69589
L75002 69645
L75002 69955
" />
<path d="M75536 69955
L75536 69645
L75508 69589
L75452 69561
L75339 69561
L75283 69589
" />
<path d="M75536 69926
L75480 69955
L75339 69955
L75283 69926
L75255 69870
L75255 69814
L75283 69758
L75339 69730
L75480 69730
L75536 69701
" />
<path d="M75817 69561
L75817 69955
" />
<path d="M75817 69617
L75845 69589
L75902 69561
L75986 69561
L76042 69589
L76070 69645
L76070 69955
" />
</g>
<g style="fill:#000000; fill-opacity:0.0; 
stroke:#000000; stroke-width:39.3701; stroke-opacity:1; 
stroke-linecap:round; stroke-linejoin:round;">
</g>
<g style="fill:#000000; fill-opacity:0.0; 
stroke:#000000; stroke-width:59.0551; stroke-opacity:1; 
stroke-linecap:round; stroke-linejoin:round;">
<path d="M77559 75396
L77559 76577
" />
</g>
<g style="fill:#000000; fill-opacity:0.0; 
stroke:#000000; stroke-width:39.3701; stroke-opacity:1; 
stroke-linecap:round; stroke-linejoin:round;">
</g>
<g style="fill:#000000; fill-opacity:0.0; 
stroke:#000000; stroke-width:59.0551; stroke-opacity:1; 
stroke-linecap:round; stroke-linejoin:round;">
<path d="M102756 75396
L102756 77955
" />
</g>
<g style="fill:#840084; fill-opacity:0.0; 
stroke:#840084; stroke-width:59.0551; stroke-opacity:1; 
stroke-linecap:round; stroke-linejoin:round;">
</g>
<g style="fill:#840084; fill-opacity:1.0; 
stroke:#840084; stroke-width:0; stroke-opacity:1; 
stroke-linecap:round; stroke-linejoin:round;">
<path style="fill:#840084; fill-opacity:1.0; 
stroke:#840084; stroke-width:0; stroke-opacity:1; 
stroke-linecap:round; stroke-linejoin:round;fill-rule:evenodd;"
d="M 64980,47612
65006,47615
65072,47635
65134,47668
65148,47680
65188,47712
65221,47752
65232,47766
65265,47828
65286,47895
65293,47965
65286,48034
65265,48101
65232,48163
65221,48177
65188,48217
65148,48249
65134,48261
65072,48294
65006,48314
64980,48317
64954,48319
64919,48319
64893,48317
64867,48314
64800,48294
64738,48261
64724,48249
64684,48217
64651,48177
64640,48163
64607,48101
64586,48034
64580,47965
64586,47895
64607,47828
64640,47766
64651,47752
64684,47712
64724,47680
64738,47668
64800,47635
64867,47615
64893,47612
64919,47610
64954,47610
64980,47612
Z" /> 
<path style="fill:#840084; fill-opacity:1.0; 
stroke:#840084; stroke-width:0; stroke-opacity:1; 
stroke-linecap:round; stroke-linejoin:round;fill-rule:evenodd;"
d="M 63980,47612
64006,47615
64072,47635
64134,47668
64148,47680
64188,47712
64221,47752
64232,47766
64265,47828
64286,47895
64293,47965
64286,48034
64265,48101
64232,48163
64221,48177
64188,48217
64148,48249
64134,48261
64072,48294
64006,48314
63980,48317
63954,48319
63919,48319
63893,48317
63867,48314
63800,48294
63738,48261
63724,48249
63684,48217
63651,48177
63640,48163
63607,48101
63586,48034
63580,47965
63586,47895
63607,47828
63640,47766
63651,47752
63684,47712
63724,47680
63738,47668
63800,47635
63867,47615
63893,47612
63919,47610
63954,47610
63980,47612
Z" /> 
<path style="fill:#840084; fill-opacity:1.0; 
stroke:#840084; stroke-width:0; stroke-opacity:1; 
stroke-linecap:round; stroke-linejoin:round;fill-rule:evenodd;"
d="M 59070,47612
59096,47615
59162,47635
59224,47668
59238,47680
59278,47712
59311,47752
59322,47766
59355,47828
59376,47895
59383,47965
59376,48034
59355,48101
59322,48163
59311,48177
59278,48217
59238,48249
59224,48261
59162,48294
59096,48314
59070,48317
59044,48319
59009,48319
58983,48317
58957,48314
58890,48294
58828,48261
58814,48249
58774,48217
58741,48177
58730,48163
58697,48101
58676,48034
58670,47965
58676,47895
58697,47828
58730,47766
58741,47752
58774,47712
58814,47680
58828,47668
58890,47635
58957,47615
58983,47612
59009,47610
59044,47610
59070,47612
Z" /> 
<path style="fill:#840084; fill-opacity:1.0; 
stroke:#840084; stroke-width:0; stroke-opacity:1; 
stroke-linecap:round; stroke-linejoin:round;fill-rule:evenodd;"
d="M 58070,47612
58096,47615
58162,47635
58224,47668
58238,47680
58278,47712
58311,47752
58322,47766
58355,47828
58376,47895
58383,47965
58376,48034
58355,48101
58322,48163
58311,48177
58278,48217
58238,48249
58224,48261
58162,48294
58096,48314
58070,48317
58044,48319
58009,48319
57983,48317
57957,48314
57890,48294
57828,48261
57814,48249
57774,48217
57741,48177
57730,48163
57697,48101
57676,48034
57670,47965
57676,47895
57697,47828
57730,47766
57741,47752
57774,47712
57814,47680
57828,47668
57890,47635
57957,47615
57983,47612
58009,47610
58044,47610
58070,47612
Z" /> 
<path style="fill:#840084; fill-opacity:1.0; 
stroke:#840084; stroke-width:0; stroke-opacity:1; 
stroke-linecap:round; stroke-linejoin:round;fill-rule:evenodd;"
d="M 64291,47319
63581,47319
63581,46610
64291,46610
64291,47319
Z" /> 
<path style="fill:#840084; fill-opacity:1.0; 
stroke:#840084; stroke-width:0; stroke-opacity:1; 
stroke-linecap:round; stroke-linejoin:round;fill-rule:evenodd;"
d="M 58381,47319
57671,47319
57671,46610
58381,46610
58381,47319
Z" /> 
<path style="fill:#840084; fill-opacity:1.0; 
stroke:#840084; stroke-width:0; stroke-opacity:1; 
stroke-linecap:round; stroke-linejoin:round;fill-rule:evenodd;"
d="M 59070,46612
59096,46615
59162,46635
59224,46668
59238,46680
59278,46712
59311,46752
59322,46766
59355,46828
59376,46895
59383,46965
59376,47034
59355,47101
59322,47163
59311,47177
59278,47217
59238,47249
59224,47261
59162,47294
59096,47314
59070,47317
59044,47319
59009,47319
58983,47317
58957,47314
58890,47294
58828,47261
58814,47249
58774,47217
58741,47177
58730,47163
58697,47101
58676,47034
58670,46965
58676,46895
58697,46828
58730,46766
58741,46752
58774,46712
58814,46680
58828,46668
58890,46635
58957,46615
58983,46612
59009,46610
59044,46610
59070,46612
Z" /> 
<path style="fill:#840084; fill-opacity:1.0; 
stroke:#840084; stroke-width:0; stroke-opacity:1; 
stroke-linecap:round; stroke-linejoin:round;fill-rule:evenodd;"
d="M 64980,46612
65006,46615
65072,46635
65134,46668
65148,46680
65188,46712
65221,46752
65232,46766
65265,46828
65286,46895
65293,46965
65286,47034
65265,47101
65232,47163
65221,47177
65188,47217
65148,47249
65134,47261
65072,47294
65006,47314
64980,47317
64954,47319
64919,47319
64893,47317
64867,47314
64800,47294
64738,47261
64724,47249
64684,47217
64651,47177
64640,47163
64607,47101
64586,47034
64580,46965
64586,46895
64607,46828
64640,46766
64651,46752
64684,46712
64724,46680
64738,46668
64800,46635
64867,46615
64893,46612
64919,46610
64954,46610
64980,46612
Z" /> 
<path style="fill:#840084; fill-opacity:1.0; 
stroke:#840084; stroke-width:0; stroke-opacity:1; 
stroke-linecap:round; stroke-linejoin:round;fill-rule:evenodd;"
d="M 61220,45205
61220,45205
61220,45205
61290,45227
61290,45227
61290,45227
61355,45261
61412,45308
61459,45365
61494,45430
61494,45430
61515,45501
61515,45501
61523,45574
61515,45648
61515,45648
61515,45648
61494,45718
61494,45718
61494,45718
61459,45783
61412,45840
61355,45887
61290,45922
61290,45922
61220,45943
61220,45943
61220,45943
61165,45949
60262,45949
60207,45943
60207,45943
60207,45943
60136,45922
60136,45922
60071,45887
60014,45840
59968,45783
59933,45718
59933,45718
59933,45718
59911,45648
59911,45648
59911,45648
59904,45574
59911,45501
59911,45501
59933,45430
59933,45430
59968,45365
60014,45308
60071,45261
60136,45227
60136,45227
60136,45227
60207,45205
60207,45205
60207,45205
60262,45200
61165,45200
61220,45205
Z" /> 
<path style="fill:#840084; fill-opacity:1.0; 
stroke:#840084; stroke-width:0; stroke-opacity:1; 
stroke-linecap:round; stroke-linejoin:round;fill-rule:evenodd;"
d="M 62269,44571
61520,44571
61520,42798
62269,42798
62269,44571
Z" /> 
<path style="fill:#840084; fill-opacity:1.0; 
stroke:#840084; stroke-width:0; stroke-opacity:1; 
stroke-linecap:round; stroke-linejoin:round;fill-rule:evenodd;"
d="M 59684,42882
59684,42882
59684,42882
59755,42904
59755,42904
59755,42904
59820,42939
59877,42985
59924,43042
59957,43104
59959,43107
59980,43178
59980,43178
59985,43233
59985,44136
59980,44191
59980,44191
59980,44191
59959,44262
59959,44262
59959,44262
59924,44327
59877,44384
59820,44430
59755,44465
59755,44465
59684,44487
59684,44487
59684,44487
59611,44494
59538,44487
59538,44487
59538,44487
59467,44465
59467,44465
59402,44430
59345,44384
59298,44327
59263,44262
59263,44262
59263,44262
59242,44191
59242,44191
59242,44191
59237,44136
59237,43233
59242,43178
59242,43178
59263,43107
59265,43104
59298,43042
59345,42985
59402,42939
59467,42904
59467,42904
59467,42904
59538,42882
59538,42882
59538,42882
59611,42875
59684,42882
Z" /> 
<path style="fill:#840084; fill-opacity:1.0; 
stroke:#840084; stroke-width:0; stroke-opacity:1; 
stroke-linecap:round; stroke-linejoin:round;fill-rule:evenodd;"
d="M 64338,43638
63511,43638
63511,42811
64338,42811
64338,43638
Z" /> 
<path style="fill:#840084; fill-opacity:1.0; 
stroke:#840084; stroke-width:0; stroke-opacity:1; 
stroke-linecap:round; stroke-linejoin:round;fill-rule:evenodd;"
d="M 66014,42827
66089,42858
66089,42858
66126,42882
66157,42903
66214,42961
66260,43029
66291,43104
66307,43184
66307,43265
66291,43345
66260,43420
66260,43420
66214,43488
66157,43546
66089,43591
66089,43591
66089,43591
66014,43622
65934,43638
65852,43638
65772,43622
65697,43591
65697,43591
65697,43591
65629,43546
65572,43488
65526,43420
65526,43420
65495,43345
65479,43265
65479,43184
65495,43104
65526,43029
65572,42961
65629,42903
65660,42882
65697,42858
65697,42858
65772,42827
65852,42811
65934,42811
66014,42827
Z" /> 
<path style="fill:#840084; fill-opacity:1.0; 
stroke:#840084; stroke-width:0; stroke-opacity:1; 
stroke-linecap:round; stroke-linejoin:round;fill-rule:evenodd;"
d="M 63480,39981
63502,39983
63588,40009
63588,40009
63666,40051
63735,40108
63792,40177
63834,40255
63860,40341
63869,40430
63860,40518
63834,40604
63792,40682
63735,40751
63666,40808
63588,40850
63588,40850
63502,40876
63480,40878
63436,40883
63391,40883
63347,40878
63324,40876
63239,40850
63239,40850
63160,40808
63091,40751
63035,40682
62993,40604
62967,40518
62958,40430
62967,40341
62993,40255
63035,40177
63091,40108
63160,40051
63239,40009
63239,40009
63324,39983
63347,39981
63391,39976
63436,39976
63480,39981
Z" /> 
<path style="fill:#840084; fill-opacity:1.0; 
stroke:#840084; stroke-width:0; stroke-opacity:1; 
stroke-linecap:round; stroke-linejoin:round;fill-rule:evenodd;"
d="M 59866,40883
58960,40883
58960,39976
59866,39976
59866,40883
Z" /> 
<path style="fill:#840084; fill-opacity:1.0; 
stroke:#840084; stroke-width:0; stroke-opacity:1; 
stroke-linecap:round; stroke-linejoin:round;fill-rule:evenodd;"
d="M 66004,39254
65255,39254
65255,38505
66004,38505
66004,39254
Z" /> 
<path style="fill:#840084; fill-opacity:1.0; 
stroke:#840084; stroke-width:0; stroke-opacity:1; 
stroke-linecap:round; stroke-linejoin:round;fill-rule:evenodd;"
d="M 63480,37767
63502,37769
63588,37795
63588,37795
63666,37837
63735,37894
63792,37963
63818,38012
63834,38042
63860,38127
63869,38216
63860,38305
63837,38380
63834,38390
63792,38469
63735,38538
63666,38595
63588,38637
63588,38637
63502,38663
63480,38665
63436,38669
63391,38669
63347,38665
63324,38663
63239,38637
63239,38637
63160,38595
63091,38538
63035,38469
62993,38390
62989,38380
62967,38305
62958,38216
62967,38127
62993,38042
63009,38012
63035,37963
63091,37894
63160,37837
63239,37795
63239,37795
63324,37769
63347,37767
63391,37763
63436,37763
63480,37767
Z" /> 
<path style="fill:#840084; fill-opacity:1.0; 
stroke:#840084; stroke-width:0; stroke-opacity:1; 
stroke-linecap:round; stroke-linejoin:round;fill-rule:evenodd;"
d="M 59866,38669
58960,38669
58960,37763
59866,37763
59866,38669
Z" /> 
<path style="fill:#840084; fill-opacity:1.0; 
stroke:#840084; stroke-width:0; stroke-opacity:1; 
stroke-linecap:round; stroke-linejoin:round;fill-rule:evenodd;"
d="M 57190,38380
56519,38380
56519,37709
57190,37709
57190,38380
Z" /> 
<path style="fill:#840084; fill-opacity:1.0; 
stroke:#840084; stroke-width:0; stroke-opacity:1; 
stroke-linecap:round; stroke-linejoin:round;fill-rule:evenodd;"
d="M 57740,37722
57801,37748
57855,37784
57902,37831
57939,37886
57964,37947
57977,38012
57977,38077
57964,38142
57939,38203
57902,38258
57855,38305
57801,38341
57740,38367
57675,38380
57609,38380
57544,38367
57483,38341
57428,38305
57382,38258
57345,38203
57320,38142
57307,38077
57307,38012
57320,37947
57345,37886
57382,37831
57428,37784
57483,37748
57544,37722
57609,37709
57675,37709
57740,37722
Z" /> 
<path style="fill:#840084; fill-opacity:1.0; 
stroke:#840084; stroke-width:0; stroke-opacity:1; 
stroke-linecap:round; stroke-linejoin:round;fill-rule:evenodd;"
d="M 65739,37519
65807,37548
65807,37548
65868,37589
65920,37641
65920,37641
65961,37702
65990,37770
66004,37843
66004,37916
65990,37989
65961,38057
65961,38057
65920,38118
65868,38170
65837,38191
65807,38211
65739,38240
65666,38254
65593,38254
65520,38240
65452,38211
65422,38191
65391,38170
65339,38118
65298,38057
65298,38057
65269,37989
65255,37916
65255,37843
65269,37770
65298,37702
65339,37641
65339,37641
65391,37589
65452,37548
65452,37548
65520,37519
65593,37505
65666,37505
65739,37519
Z" /> 
<path style="fill:#840084; fill-opacity:1.0; 
stroke:#840084; stroke-width:0; stroke-opacity:1; 
stroke-linecap:round; stroke-linejoin:round;fill-rule:evenodd;"
d="M 59866,36455
58960,36455
58960,35549
59866,35549
59866,36455
Z" /> 
<path style="fill:#840084; fill-opacity:1.0; 
stroke:#840084; stroke-width:0; stroke-opacity:1; 
stroke-linecap:round; stroke-linejoin:round;fill-rule:evenodd;"
d="M 63480,35554
63502,35556
63588,35582
63588,35582
63666,35624
63735,35680
63792,35749
63834,35828
63860,35913
63869,36002
63860,36091
63834,36177
63792,36255
63735,36324
63666,36381
63588,36423
63588,36423
63502,36449
63480,36451
63436,36455
63391,36455
63347,36451
63324,36449
63239,36423
63239,36423
63160,36381
63091,36324
63035,36255
62993,36177
62967,36091
62958,36002
62967,35913
62993,35828
63035,35749
63091,35680
63160,35624
63239,35582
63239,35582
63324,35556
63347,35554
63391,35549
63436,35549
63480,35554
Z" /> 
<path style="fill:#840084; fill-opacity:1.0; 
stroke:#840084; stroke-width:0; stroke-opacity:1; 
stroke-linecap:round; stroke-linejoin:round;fill-rule:evenodd;"
d="M 57938,35695
57111,35695
57111,34904
57938,34904
57938,35695
Z" /> 
<path style="fill:#840084; fill-opacity:1.0; 
stroke:#840084; stroke-width:0; stroke-opacity:1; 
stroke-linecap:round; stroke-linejoin:round;fill-rule:evenodd;"
d="M 66261,35019
66315,35041
66363,35073
66404,35115
66437,35163
66459,35217
66470,35274
66470,35332
66459,35389
66437,35443
66404,35491
66363,35533
66315,35565
66315,35565
66315,35565
66261,35587
66204,35599
66145,35599
66088,35587
66034,35565
66034,35565
66034,35565
65986,35533
65945,35491
65912,35443
65890,35389
65879,35332
65879,35274
65890,35217
65912,35163
65945,35115
65986,35073
66034,35041
66088,35019
66145,35007
66204,35007
66261,35019
Z" /> 
<path style="fill:#840084; fill-opacity:1.0; 
stroke:#840084; stroke-width:0; stroke-opacity:1; 
stroke-linecap:round; stroke-linejoin:round;fill-rule:evenodd;"
d="M 64962,35019
65015,35041
65064,35073
65105,35115
65137,35163
65160,35217
65171,35274
65171,35332
65160,35389
65137,35443
65105,35491
65064,35533
65015,35565
65015,35565
65015,35565
64962,35587
64904,35599
64846,35599
64789,35587
64735,35565
64735,35565
64735,35565
64687,35533
64646,35491
64613,35443
64591,35389
64580,35332
64580,35274
64591,35217
64613,35163
64646,35115
64687,35073
64735,35041
64789,35019
64846,35007
64904,35007
64962,35019
Z" /> 
<path style="fill:#840084; fill-opacity:1.0; 
stroke:#840084; stroke-width:0; stroke-opacity:1; 
stroke-linecap:round; stroke-linejoin:round;fill-rule:evenodd;"
d="M 57582,33906
57621,33910
57695,33933
57764,33969
57824,34019
57873,34079
57910,34148
57933,34222
57940,34300
57933,34377
57910,34451
57873,34520
57824,34580
57764,34630
57695,34666
57621,34689
57582,34693
57563,34695
57486,34695
57467,34693
57428,34689
57354,34666
57285,34630
57225,34580
57176,34520
57139,34451
57116,34377
57109,34300
57116,34222
57139,34148
57176,34079
57225,34019
57285,33969
57354,33933
57428,33910
57467,33906
57486,33904
57563,33904
57582,33906
Z" /> 
<path style="fill:#840084; fill-opacity:1.0; 
stroke:#840084; stroke-width:0; stroke-opacity:1; 
stroke-linecap:round; stroke-linejoin:round;fill-rule:evenodd;"
d="M 66261,34034
66315,34057
66363,34089
66404,34130
66429,34167
66437,34179
66459,34233
66470,34290
66470,34348
66464,34377
66459,34405
66437,34459
66404,34507
66363,34548
66315,34581
66315,34581
66315,34581
66261,34603
66204,34614
66145,34614
66088,34603
66034,34581
66034,34581
66034,34581
65986,34548
65945,34507
65912,34459
65890,34405
65885,34377
65879,34348
65879,34290
65890,34233
65912,34179
65920,34167
65945,34130
65986,34089
66034,34057
66088,34034
66145,34023
66204,34023
66261,34034
Z" /> 
<path style="fill:#840084; fill-opacity:1.0; 
stroke:#840084; stroke-width:0; stroke-opacity:1; 
stroke-linecap:round; stroke-linejoin:round;fill-rule:evenodd;"
d="M 64962,34034
65015,34057
65064,34089
65105,34130
65130,34167
65137,34179
65160,34233
65171,34290
65171,34348
65165,34377
65160,34405
65137,34459
65105,34507
65064,34548
65015,34581
65015,34581
65015,34581
64962,34603
64904,34614
64846,34614
64789,34603
64735,34581
64735,34581
64735,34581
64687,34548
64646,34507
64613,34459
64591,34405
64585,34377
64580,34348
64580,34290
64591,34233
64613,34179
64621,34167
64646,34130
64687,34089
64735,34057
64789,34034
64846,34023
64904,34023
64962,34034
Z" /> 
<path style="fill:#840084; fill-opacity:1.0; 
stroke:#840084; stroke-width:0; stroke-opacity:1; 
stroke-linecap:round; stroke-linejoin:round;fill-rule:evenodd;"
d="M 59866,34242
58960,34242
58960,33336
59866,33336
59866,34242
Z" /> 
<path style="fill:#840084; fill-opacity:1.0; 
stroke:#840084; stroke-width:0; stroke-opacity:1; 
stroke-linecap:round; stroke-linejoin:round;fill-rule:evenodd;"
d="M 63480,33340
63502,33342
63588,33368
63588,33368
63666,33410
63735,33467
63792,33536
63834,33614
63834,33614
63860,33700
63869,33789
63860,33878
63852,33904
63834,33963
63792,34042
63735,34111
63666,34167
63588,34209
63588,34209
63502,34235
63480,34238
63436,34242
63391,34242
63347,34238
63324,34235
63239,34209
63239,34209
63160,34167
63091,34111
63035,34042
62993,33963
62975,33904
62967,33878
62958,33789
62967,33700
62993,33614
62993,33614
63035,33536
63091,33467
63160,33410
63239,33368
63239,33368
63324,33342
63347,33340
63391,33336
63436,33336
63480,33340
Z" /> 
<path style="fill:#840084; fill-opacity:1.0; 
stroke:#840084; stroke-width:0; stroke-opacity:1; 
stroke-linecap:round; stroke-linejoin:round;fill-rule:evenodd;"
d="M 57582,32906
57621,32910
57695,32933
57764,32969
57824,33019
57873,33079
57910,33148
57933,33222
57940,33300
57933,33377
57910,33451
57873,33520
57824,33580
57764,33630
57695,33666
57621,33689
57582,33693
57563,33695
57486,33695
57467,33693
57428,33689
57354,33666
57285,33630
57225,33580
57176,33520
57139,33451
57116,33377
57109,33300
57116,33222
57139,33148
57176,33079
57225,33019
57285,32969
57354,32933
57428,32910
57467,32906
57486,32904
57563,32904
57582,32906
Z" /> 
<path style="fill:#840084; fill-opacity:1.0; 
stroke:#840084; stroke-width:0; stroke-opacity:1; 
stroke-linecap:round; stroke-linejoin:round;fill-rule:evenodd;"
d="M 64962,33050
65015,33072
65064,33105
65105,33146
65106,33148
65137,33194
65160,33248
65171,33305
65171,33364
65162,33410
65160,33421
65137,33475
65105,33523
65064,33564
65015,33597
65015,33597
65015,33597
64962,33619
64904,33630
64846,33630
64789,33619
64735,33597
64735,33597
64735,33597
64687,33564
64646,33523
64613,33475
64591,33421
64589,33410
64580,33364
64580,33305
64591,33248
64613,33194
64645,33148
64646,33146
64687,33105
64735,33072
64789,33050
64846,33039
64904,33039
64962,33050
Z" /> 
<path style="fill:#840084; fill-opacity:1.0; 
stroke:#840084; stroke-width:0; stroke-opacity:1; 
stroke-linecap:round; stroke-linejoin:round;fill-rule:evenodd;"
d="M 66470,33630
65879,33630
65879,33039
66470,33039
66470,33630
Z" /> 
<path style="fill:#840084; fill-opacity:1.0; 
stroke:#840084; stroke-width:0; stroke-opacity:1; 
stroke-linecap:round; stroke-linejoin:round;fill-rule:evenodd;"
d="M 60629,31292
60690,31318
60745,31354
60792,31401
60828,31456
60854,31517
60866,31582
60866,31647
60854,31712
60828,31773
60792,31828
60745,31875
60690,31911
60629,31937
60564,31950
60498,31950
60434,31937
60373,31911
60318,31875
60271,31828
60234,31773
60209,31712
60196,31647
60196,31582
60209,31517
60234,31456
60271,31401
60318,31354
60373,31318
60434,31292
60498,31279
60564,31279
60629,31292
Z" /> 
<path style="fill:#840084; fill-opacity:1.0; 
stroke:#840084; stroke-width:0; stroke-opacity:1; 
stroke-linecap:round; stroke-linejoin:round;fill-rule:evenodd;"
d="M 63597,31284
63660,31303
63687,31318
63718,31335
63769,31376
63811,31427
63811,31427
63842,31486
63862,31549
63868,31615
63862,31680
63842,31743
63826,31773
63811,31802
63769,31853
63718,31894
63718,31894
63660,31926
63597,31945
63548,31950
63515,31950
63466,31945
63403,31926
63344,31894
63344,31894
63293,31853
63251,31802
63236,31773
63220,31743
63201,31680
63195,31615
63201,31549
63220,31486
63251,31427
63251,31427
63293,31376
63344,31335
63376,31318
63403,31303
63466,31284
63515,31279
63548,31279
63597,31284
Z" /> 
<path style="fill:#840084; fill-opacity:1.0; 
stroke:#840084; stroke-width:0; stroke-opacity:1; 
stroke-linecap:round; stroke-linejoin:round;fill-rule:evenodd;"
d="M 58070,29902
58096,29905
58162,29925
58224,29958
58238,29970
58278,30002
58311,30042
58322,30056
58355,30118
58376,30185
58383,30255
58376,30324
58355,30391
58322,30453
58311,30467
58278,30507
58238,30539
58224,30551
58162,30584
58096,30604
58070,30607
58044,30609
58009,30609
57983,30607
57957,30604
57890,30584
57828,30551
57814,30539
57774,30507
57741,30467
57730,30453
57697,30391
57676,30324
57670,30255
57676,30185
57697,30118
57730,30056
57741,30042
57774,30002
57814,29970
57828,29958
57890,29925
57957,29905
57983,29902
58009,29900
58044,29900
58070,29902
Z" /> 
<path style="fill:#840084; fill-opacity:1.0; 
stroke:#840084; stroke-width:0; stroke-opacity:1; 
stroke-linecap:round; stroke-linejoin:round;fill-rule:evenodd;"
d="M 59070,29902
59096,29905
59162,29925
59224,29958
59238,29970
59278,30002
59311,30042
59322,30056
59355,30118
59376,30185
59383,30255
59376,30324
59355,30391
59322,30453
59311,30467
59278,30507
59238,30539
59224,30551
59162,30584
59096,30604
59070,30607
59044,30609
59009,30609
58983,30607
58957,30604
58890,30584
58828,30551
58814,30539
58774,30507
58741,30467
58730,30453
58697,30391
58676,30324
58670,30255
58676,30185
58697,30118
58730,30056
58741,30042
58774,30002
58814,29970
58828,29958
58890,29925
58957,29905
58983,29902
59009,29900
59044,29900
59070,29902
Z" /> 
<path style="fill:#840084; fill-opacity:1.0; 
stroke:#840084; stroke-width:0; stroke-opacity:1; 
stroke-linecap:round; stroke-linejoin:round;fill-rule:evenodd;"
d="M 64955,29902
64981,29905
65047,29925
65109,29958
65123,29970
65163,30002
65196,30042
65207,30056
65240,30118
65261,30185
65268,30255
65261,30324
65240,30391
65207,30453
65196,30467
65163,30507
65123,30539
65109,30551
65047,30584
64981,30604
64955,30607
64929,30609
64894,30609
64868,30607
64842,30604
64775,30584
64713,30551
64699,30539
64659,30507
64626,30467
64615,30453
64582,30391
64561,30324
64555,30255
64561,30185
64582,30118
64615,30056
64626,30042
64659,30002
64699,29970
64713,29958
64775,29925
64842,29905
64868,29902
64894,29900
64929,29900
64955,29902
Z" /> 
<path style="fill:#840084; fill-opacity:1.0; 
stroke:#840084; stroke-width:0; stroke-opacity:1; 
stroke-linecap:round; stroke-linejoin:round;fill-rule:evenodd;"
d="M 63955,29902
63981,29905
64047,29925
64109,29958
64123,29970
64163,30002
64196,30042
64207,30056
64240,30118
64261,30185
64268,30255
64261,30324
64240,30391
64207,30453
64196,30467
64163,30507
64123,30539
64109,30551
64047,30584
63981,30604
63955,30607
63929,30609
63894,30609
63868,30607
63842,30604
63775,30584
63713,30551
63699,30539
63659,30507
63626,30467
63615,30453
63582,30391
63561,30324
63555,30255
63561,30185
63582,30118
63615,30056
63626,30042
63659,30002
63699,29970
63713,29958
63775,29925
63842,29905
63868,29902
63894,29900
63929,29900
63955,29902
Z" /> 
<path style="fill:#840084; fill-opacity:1.0; 
stroke:#840084; stroke-width:0; stroke-opacity:1; 
stroke-linecap:round; stroke-linejoin:round;fill-rule:evenodd;"
d="M 58381,29609
57671,29609
57671,28900
58381,28900
58381,29609
Z" /> 
<path style="fill:#840084; fill-opacity:1.0; 
stroke:#840084; stroke-width:0; stroke-opacity:1; 
stroke-linecap:round; stroke-linejoin:round;fill-rule:evenodd;"
d="M 59070,28902
59096,28905
59162,28925
59224,28958
59238,28970
59278,29002
59311,29042
59322,29056
59355,29118
59376,29185
59383,29255
59376,29324
59355,29391
59322,29453
59311,29467
59278,29507
59238,29539
59224,29551
59162,29584
59096,29604
59070,29607
59044,29609
59009,29609
58983,29607
58957,29604
58890,29584
58828,29551
58814,29539
58774,29507
58741,29467
58730,29453
58697,29391
58676,29324
58670,29255
58676,29185
58697,29118
58730,29056
58741,29042
58774,29002
58814,28970
58828,28958
58890,28925
58957,28905
58983,28902
59009,28900
59044,28900
59070,28902
Z" /> 
<path style="fill:#840084; fill-opacity:1.0; 
stroke:#840084; stroke-width:0; stroke-opacity:1; 
stroke-linecap:round; stroke-linejoin:round;fill-rule:evenodd;"
d="M 64266,29609
63556,29609
63556,28900
64266,28900
64266,29609
Z" /> 
<path style="fill:#840084; fill-opacity:1.0; 
stroke:#840084; stroke-width:0; stroke-opacity:1; 
stroke-linecap:round; stroke-linejoin:round;fill-rule:evenodd;"
d="M 64955,28902
64981,28905
65047,28925
65109,28958
65123,28970
65163,29002
65196,29042
65207,29056
65240,29118
65261,29185
65268,29255
65261,29324
65240,29391
65207,29453
65196,29467
65163,29507
65123,29539
65109,29551
65047,29584
64981,29604
64955,29607
64929,29609
64894,29609
64868,29607
64842,29604
64775,29584
64713,29551
64699,29539
64659,29507
64626,29467
64615,29453
64582,29391
64561,29324
64555,29255
64561,29185
64582,29118
64615,29056
64626,29042
64659,29002
64699,28970
64713,28958
64775,28925
64842,28905
64868,28902
64894,28900
64929,28900
64955,28902
Z" /> 
</g>
<g style="fill:#000000; fill-opacity:1.0; 
stroke:#000000; stroke-width:0; stroke-opacity:1; 
stroke-linecap:round; stroke-linejoin:round;">
</g>
<g style="fill:#C2C200; fill-opacity:1.0; 
stroke:#C2C200; stroke-width:0; stroke-opacity:1; 
stroke-linecap:round; stroke-linejoin:round;">
</g>
<g style="fill:#C2C200; fill-opacity:1.0; 
stroke:#C2C200; stroke-width:19.685; stroke-opacity:1; 
stroke-linecap:round; stroke-linejoin:round;">
</g>
<g style="fill:#C2C200; fill-opacity:0.0; 
stroke:#C2C200; stroke-width:19.685; stroke-opacity:1; 
stroke-linecap:round; stroke-linejoin:round;">
<path d="M55560 29795
L55560 47415
" />
<path d="M57010 28375
L56980 28375
" />
<path d="M65875 28375
L57010 28375
" />
<path d="M67295 29855
L67295 29795
" />
<path d="M67295 47415
L67295 29855
" />
<path d="M57025 48835
L56980 48835
" />
<path d="M65875 48835
L57025 48835
" />
<path d="M55560 47415 A1420 1420 0.0 0 0 56980 48835 " />
<path d="M56980 28375 A1420 1420 0.0 0 0 55560 29795 " />
<path d="M67295 29795 A1420 1420 0.0 0 0 65875 28375 " />
<path d="M65875 48835 A1420 1420 0.0 0 0 67295 47415 " />
<g >
</g>
<g >
</g>
<g >
</g>
<g >
</g>
<g >
</g>
<g >
</g>
<g >
</g>
<g >
</g>
<g >
</g>
<g >
</g>
<g >
</g>
<g >
</g>
<g >
</g>
<g >
</g>
<g >
</g>
<g >
</g>
<g >
</g>
<g >
</g>
</g> 
</svg>
