G04 #@! TF.GenerationSoftware,KiCad,Pcbnew,(5.1.4)-1*
G04 #@! TF.CreationDate,2021-12-06T15:52:36-07:00*
G04 #@! TF.ProjectId,BreadBoard PS Ver2,42726561-6442-46f6-9172-642050532056,2*
G04 #@! TF.SameCoordinates,Original*
G04 #@! TF.FileFunction,Legend,Top*
G04 #@! TF.FilePolarity,Positive*
%FSLAX46Y46*%
G04 Gerber Fmt 4.6, Leading zero omitted, Abs format (unit mm)*
G04 Created by KiCad (PCBNEW (5.1.4)-1) date 2021-12-06 15:52:36*
%MOMM*%
%LPD*%
G04 APERTURE LIST*
%ADD10C,0.150000*%
%ADD11C,0.120000*%
G04 APERTURE END LIST*
D10*
X158043309Y-74817219D02*
X158519500Y-74817219D01*
X158567119Y-74341028D01*
X158519500Y-74388647D01*
X158424261Y-74436266D01*
X158186166Y-74436266D01*
X158090928Y-74388647D01*
X158043309Y-74341028D01*
X157995690Y-74245790D01*
X157995690Y-74007695D01*
X158043309Y-73912457D01*
X158090928Y-73864838D01*
X158186166Y-73817219D01*
X158424261Y-73817219D01*
X158519500Y-73864838D01*
X158567119Y-73912457D01*
X157709976Y-74817219D02*
X157376642Y-73817219D01*
X157043309Y-74817219D01*
X155376642Y-73817219D02*
X155709976Y-74293409D01*
X155948071Y-73817219D02*
X155948071Y-74817219D01*
X155567119Y-74817219D01*
X155471880Y-74769600D01*
X155424261Y-74721980D01*
X155376642Y-74626742D01*
X155376642Y-74483885D01*
X155424261Y-74388647D01*
X155471880Y-74341028D01*
X155567119Y-74293409D01*
X155948071Y-74293409D01*
X154519500Y-73817219D02*
X154519500Y-74341028D01*
X154567119Y-74436266D01*
X154662357Y-74483885D01*
X154852833Y-74483885D01*
X154948071Y-74436266D01*
X154519500Y-73864838D02*
X154614738Y-73817219D01*
X154852833Y-73817219D01*
X154948071Y-73864838D01*
X154995690Y-73960076D01*
X154995690Y-74055314D01*
X154948071Y-74150552D01*
X154852833Y-74198171D01*
X154614738Y-74198171D01*
X154519500Y-74245790D01*
X154043309Y-73817219D02*
X154043309Y-74483885D01*
X154043309Y-74817219D02*
X154090928Y-74769600D01*
X154043309Y-74721980D01*
X153995690Y-74769600D01*
X154043309Y-74817219D01*
X154043309Y-74721980D01*
X153424261Y-73817219D02*
X153519500Y-73864838D01*
X153567119Y-73960076D01*
X153567119Y-74817219D01*
X158792538Y-77335000D02*
X158887776Y-77382619D01*
X159030633Y-77382619D01*
X159173490Y-77335000D01*
X159268728Y-77239761D01*
X159316347Y-77144523D01*
X159363966Y-76954047D01*
X159363966Y-76811190D01*
X159316347Y-76620714D01*
X159268728Y-76525476D01*
X159173490Y-76430238D01*
X159030633Y-76382619D01*
X158935395Y-76382619D01*
X158792538Y-76430238D01*
X158744919Y-76477857D01*
X158744919Y-76811190D01*
X158935395Y-76811190D01*
X158316347Y-76382619D02*
X158316347Y-77382619D01*
X157744919Y-76382619D01*
X157744919Y-77382619D01*
X157268728Y-76382619D02*
X157268728Y-77382619D01*
X157030633Y-77382619D01*
X156887776Y-77335000D01*
X156792538Y-77239761D01*
X156744919Y-77144523D01*
X156697300Y-76954047D01*
X156697300Y-76811190D01*
X156744919Y-76620714D01*
X156792538Y-76525476D01*
X156887776Y-76430238D01*
X157030633Y-76382619D01*
X157268728Y-76382619D01*
X154935395Y-76382619D02*
X155268728Y-76858809D01*
X155506823Y-76382619D02*
X155506823Y-77382619D01*
X155125871Y-77382619D01*
X155030633Y-77335000D01*
X154983014Y-77287380D01*
X154935395Y-77192142D01*
X154935395Y-77049285D01*
X154983014Y-76954047D01*
X155030633Y-76906428D01*
X155125871Y-76858809D01*
X155506823Y-76858809D01*
X154078252Y-76382619D02*
X154078252Y-76906428D01*
X154125871Y-77001666D01*
X154221109Y-77049285D01*
X154411585Y-77049285D01*
X154506823Y-77001666D01*
X154078252Y-76430238D02*
X154173490Y-76382619D01*
X154411585Y-76382619D01*
X154506823Y-76430238D01*
X154554442Y-76525476D01*
X154554442Y-76620714D01*
X154506823Y-76715952D01*
X154411585Y-76763571D01*
X154173490Y-76763571D01*
X154078252Y-76811190D01*
X153602061Y-76382619D02*
X153602061Y-77049285D01*
X153602061Y-77382619D02*
X153649680Y-77335000D01*
X153602061Y-77287380D01*
X153554442Y-77335000D01*
X153602061Y-77382619D01*
X153602061Y-77287380D01*
X152983014Y-76382619D02*
X153078252Y-76430238D01*
X153125871Y-76525476D01*
X153125871Y-77382619D01*
X153360761Y-121267600D02*
X153265523Y-121219980D01*
X153122666Y-121219980D01*
X152979809Y-121267600D01*
X152884571Y-121362838D01*
X152836952Y-121458076D01*
X152789333Y-121648552D01*
X152789333Y-121791409D01*
X152836952Y-121981885D01*
X152884571Y-122077123D01*
X152979809Y-122172361D01*
X153122666Y-122219980D01*
X153217904Y-122219980D01*
X153360761Y-122172361D01*
X153408380Y-122124742D01*
X153408380Y-121791409D01*
X153217904Y-121791409D01*
X153836952Y-122219980D02*
X153836952Y-121219980D01*
X154408380Y-122219980D01*
X154408380Y-121219980D01*
X154884571Y-122219980D02*
X154884571Y-121219980D01*
X155122666Y-121219980D01*
X155265523Y-121267600D01*
X155360761Y-121362838D01*
X155408380Y-121458076D01*
X155456000Y-121648552D01*
X155456000Y-121791409D01*
X155408380Y-121981885D01*
X155360761Y-122077123D01*
X155265523Y-122172361D01*
X155122666Y-122219980D01*
X154884571Y-122219980D01*
X157217904Y-122219980D02*
X156884571Y-121743790D01*
X156646476Y-122219980D02*
X156646476Y-121219980D01*
X157027428Y-121219980D01*
X157122666Y-121267600D01*
X157170285Y-121315219D01*
X157217904Y-121410457D01*
X157217904Y-121553314D01*
X157170285Y-121648552D01*
X157122666Y-121696171D01*
X157027428Y-121743790D01*
X156646476Y-121743790D01*
X158075047Y-122219980D02*
X158075047Y-121696171D01*
X158027428Y-121600933D01*
X157932190Y-121553314D01*
X157741714Y-121553314D01*
X157646476Y-121600933D01*
X158075047Y-122172361D02*
X157979809Y-122219980D01*
X157741714Y-122219980D01*
X157646476Y-122172361D01*
X157598857Y-122077123D01*
X157598857Y-121981885D01*
X157646476Y-121886647D01*
X157741714Y-121839028D01*
X157979809Y-121839028D01*
X158075047Y-121791409D01*
X158551238Y-122219980D02*
X158551238Y-121553314D01*
X158551238Y-121219980D02*
X158503619Y-121267600D01*
X158551238Y-121315219D01*
X158598857Y-121267600D01*
X158551238Y-121219980D01*
X158551238Y-121315219D01*
X159170285Y-122219980D02*
X159075047Y-122172361D01*
X159027428Y-122077123D01*
X159027428Y-121219980D01*
X154097290Y-118692680D02*
X153621100Y-118692680D01*
X153573480Y-119168871D01*
X153621100Y-119121252D01*
X153716338Y-119073633D01*
X153954433Y-119073633D01*
X154049671Y-119121252D01*
X154097290Y-119168871D01*
X154144909Y-119264109D01*
X154144909Y-119502204D01*
X154097290Y-119597442D01*
X154049671Y-119645061D01*
X153954433Y-119692680D01*
X153716338Y-119692680D01*
X153621100Y-119645061D01*
X153573480Y-119597442D01*
X154430623Y-118692680D02*
X154763957Y-119692680D01*
X155097290Y-118692680D01*
X156763957Y-119692680D02*
X156430623Y-119216490D01*
X156192528Y-119692680D02*
X156192528Y-118692680D01*
X156573480Y-118692680D01*
X156668719Y-118740300D01*
X156716338Y-118787919D01*
X156763957Y-118883157D01*
X156763957Y-119026014D01*
X156716338Y-119121252D01*
X156668719Y-119168871D01*
X156573480Y-119216490D01*
X156192528Y-119216490D01*
X157621100Y-119692680D02*
X157621100Y-119168871D01*
X157573480Y-119073633D01*
X157478242Y-119026014D01*
X157287766Y-119026014D01*
X157192528Y-119073633D01*
X157621100Y-119645061D02*
X157525861Y-119692680D01*
X157287766Y-119692680D01*
X157192528Y-119645061D01*
X157144909Y-119549823D01*
X157144909Y-119454585D01*
X157192528Y-119359347D01*
X157287766Y-119311728D01*
X157525861Y-119311728D01*
X157621100Y-119264109D01*
X158097290Y-119692680D02*
X158097290Y-119026014D01*
X158097290Y-118692680D02*
X158049671Y-118740300D01*
X158097290Y-118787919D01*
X158144909Y-118740300D01*
X158097290Y-118692680D01*
X158097290Y-118787919D01*
X158716338Y-119692680D02*
X158621100Y-119645061D01*
X158573480Y-119549823D01*
X158573480Y-118692680D01*
X142774919Y-98170838D02*
X142774919Y-97980361D01*
X142727300Y-97885123D01*
X142679680Y-97837504D01*
X142536823Y-97742266D01*
X142346347Y-97694647D01*
X141965395Y-97694647D01*
X141870157Y-97742266D01*
X141822538Y-97789885D01*
X141774919Y-97885123D01*
X141774919Y-98075600D01*
X141822538Y-98170838D01*
X141870157Y-98218457D01*
X141965395Y-98266076D01*
X142203490Y-98266076D01*
X142298728Y-98218457D01*
X142346347Y-98170838D01*
X142393966Y-98075600D01*
X142393966Y-97885123D01*
X142346347Y-97789885D01*
X142298728Y-97742266D01*
X142203490Y-97694647D01*
X142774919Y-98551790D02*
X141774919Y-98885123D01*
X142774919Y-99218457D01*
X142441585Y-100170838D02*
X142441585Y-100551790D01*
X142774919Y-100313695D02*
X141917776Y-100313695D01*
X141822538Y-100361314D01*
X141774919Y-100456552D01*
X141774919Y-100551790D01*
X141774919Y-101027980D02*
X141822538Y-100932742D01*
X141870157Y-100885123D01*
X141965395Y-100837504D01*
X142251109Y-100837504D01*
X142346347Y-100885123D01*
X142393966Y-100932742D01*
X142441585Y-101027980D01*
X142441585Y-101170838D01*
X142393966Y-101266076D01*
X142346347Y-101313695D01*
X142251109Y-101361314D01*
X141965395Y-101361314D01*
X141870157Y-101313695D01*
X141822538Y-101266076D01*
X141774919Y-101170838D01*
X141774919Y-101027980D01*
X142774919Y-102456552D02*
X142774919Y-103075600D01*
X142393966Y-102742266D01*
X142393966Y-102885123D01*
X142346347Y-102980361D01*
X142298728Y-103027980D01*
X142203490Y-103075600D01*
X141965395Y-103075600D01*
X141870157Y-103027980D01*
X141822538Y-102980361D01*
X141774919Y-102885123D01*
X141774919Y-102599409D01*
X141822538Y-102504171D01*
X141870157Y-102456552D01*
X142774919Y-103980361D02*
X142774919Y-103504171D01*
X142298728Y-103456552D01*
X142346347Y-103504171D01*
X142393966Y-103599409D01*
X142393966Y-103837504D01*
X142346347Y-103932742D01*
X142298728Y-103980361D01*
X142203490Y-104027980D01*
X141965395Y-104027980D01*
X141870157Y-103980361D01*
X141822538Y-103932742D01*
X141774919Y-103837504D01*
X141774919Y-103599409D01*
X141822538Y-103504171D01*
X141870157Y-103456552D01*
X142774919Y-104313695D02*
X141774919Y-104647028D01*
X142774919Y-104980361D01*
X141393966Y-106361314D02*
X141441585Y-106313695D01*
X141584442Y-106218457D01*
X141679680Y-106170838D01*
X141822538Y-106123219D01*
X142060633Y-106075600D01*
X142251109Y-106075600D01*
X142489204Y-106123219D01*
X142632061Y-106170838D01*
X142727300Y-106218457D01*
X142870157Y-106313695D01*
X142917776Y-106361314D01*
X141774919Y-106742266D02*
X142774919Y-106742266D01*
X142774919Y-106980361D01*
X142727300Y-107123219D01*
X142632061Y-107218457D01*
X142536823Y-107266076D01*
X142346347Y-107313695D01*
X142203490Y-107313695D01*
X142013014Y-107266076D01*
X141917776Y-107218457D01*
X141822538Y-107123219D01*
X141774919Y-106980361D01*
X141774919Y-106742266D01*
X141774919Y-107885123D02*
X141822538Y-107789885D01*
X141870157Y-107742266D01*
X141965395Y-107694647D01*
X142251109Y-107694647D01*
X142346347Y-107742266D01*
X142393966Y-107789885D01*
X142441585Y-107885123D01*
X142441585Y-108027980D01*
X142393966Y-108123219D01*
X142346347Y-108170838D01*
X142251109Y-108218457D01*
X141965395Y-108218457D01*
X141870157Y-108170838D01*
X141822538Y-108123219D01*
X141774919Y-108027980D01*
X141774919Y-107885123D01*
X142441585Y-109408933D02*
X141774919Y-109408933D01*
X142346347Y-109408933D02*
X142393966Y-109456552D01*
X142441585Y-109551790D01*
X142441585Y-109694647D01*
X142393966Y-109789885D01*
X142298728Y-109837504D01*
X141774919Y-109837504D01*
X141774919Y-110456552D02*
X141822538Y-110361314D01*
X141870157Y-110313695D01*
X141965395Y-110266076D01*
X142251109Y-110266076D01*
X142346347Y-110313695D01*
X142393966Y-110361314D01*
X142441585Y-110456552D01*
X142441585Y-110599409D01*
X142393966Y-110694647D01*
X142346347Y-110742266D01*
X142251109Y-110789885D01*
X141965395Y-110789885D01*
X141870157Y-110742266D01*
X141822538Y-110694647D01*
X141774919Y-110599409D01*
X141774919Y-110456552D01*
X142441585Y-111075600D02*
X142441585Y-111456552D01*
X142774919Y-111218457D02*
X141917776Y-111218457D01*
X141822538Y-111266076D01*
X141774919Y-111361314D01*
X141774919Y-111456552D01*
X141822538Y-112932742D02*
X141774919Y-112837504D01*
X141774919Y-112647028D01*
X141822538Y-112551790D01*
X141917776Y-112504171D01*
X142298728Y-112504171D01*
X142393966Y-112551790D01*
X142441585Y-112647028D01*
X142441585Y-112837504D01*
X142393966Y-112932742D01*
X142298728Y-112980361D01*
X142203490Y-112980361D01*
X142108252Y-112504171D01*
X141774919Y-113313695D02*
X142441585Y-113837504D01*
X142441585Y-113313695D02*
X141774919Y-113837504D01*
X141822538Y-114647028D02*
X141774919Y-114551790D01*
X141774919Y-114361314D01*
X141822538Y-114266076D01*
X141870157Y-114218457D01*
X141965395Y-114170838D01*
X142251109Y-114170838D01*
X142346347Y-114218457D01*
X142393966Y-114266076D01*
X142441585Y-114361314D01*
X142441585Y-114551790D01*
X142393966Y-114647028D01*
X141822538Y-115456552D02*
X141774919Y-115361314D01*
X141774919Y-115170838D01*
X141822538Y-115075600D01*
X141917776Y-115027980D01*
X142298728Y-115027980D01*
X142393966Y-115075600D01*
X142441585Y-115170838D01*
X142441585Y-115361314D01*
X142393966Y-115456552D01*
X142298728Y-115504171D01*
X142203490Y-115504171D01*
X142108252Y-115027980D01*
X141822538Y-116313695D02*
X141774919Y-116218457D01*
X141774919Y-116027980D01*
X141822538Y-115932742D01*
X141917776Y-115885123D01*
X142298728Y-115885123D01*
X142393966Y-115932742D01*
X142441585Y-116027980D01*
X142441585Y-116218457D01*
X142393966Y-116313695D01*
X142298728Y-116361314D01*
X142203490Y-116361314D01*
X142108252Y-115885123D01*
X141774919Y-117218457D02*
X142774919Y-117218457D01*
X141822538Y-117218457D02*
X141774919Y-117123219D01*
X141774919Y-116932742D01*
X141822538Y-116837504D01*
X141870157Y-116789885D01*
X141965395Y-116742266D01*
X142251109Y-116742266D01*
X142346347Y-116789885D01*
X142393966Y-116837504D01*
X142441585Y-116932742D01*
X142441585Y-117123219D01*
X142393966Y-117218457D01*
X142774919Y-118361314D02*
X142774919Y-118980361D01*
X142393966Y-118647028D01*
X142393966Y-118789885D01*
X142346347Y-118885123D01*
X142298728Y-118932742D01*
X142203490Y-118980361D01*
X141965395Y-118980361D01*
X141870157Y-118932742D01*
X141822538Y-118885123D01*
X141774919Y-118789885D01*
X141774919Y-118504171D01*
X141822538Y-118408933D01*
X141870157Y-118361314D01*
X142774919Y-119885123D02*
X142774919Y-119408933D01*
X142298728Y-119361314D01*
X142346347Y-119408933D01*
X142393966Y-119504171D01*
X142393966Y-119742266D01*
X142346347Y-119837504D01*
X142298728Y-119885123D01*
X142203490Y-119932742D01*
X141965395Y-119932742D01*
X141870157Y-119885123D01*
X141822538Y-119837504D01*
X141774919Y-119742266D01*
X141774919Y-119504171D01*
X141822538Y-119408933D01*
X141870157Y-119361314D01*
X142774919Y-120218457D02*
X141774919Y-120551790D01*
X142774919Y-120885123D01*
X141393966Y-121123219D02*
X141441585Y-121170838D01*
X141584442Y-121266076D01*
X141679680Y-121313695D01*
X141822538Y-121361314D01*
X142060633Y-121408933D01*
X142251109Y-121408933D01*
X142489204Y-121361314D01*
X142632061Y-121313695D01*
X142727300Y-121266076D01*
X142870157Y-121170838D01*
X142917776Y-121123219D01*
X166190680Y-81883166D02*
X166190680Y-81692690D01*
X166238300Y-81597452D01*
X166333538Y-81502214D01*
X166524014Y-81454595D01*
X166857347Y-81454595D01*
X167047823Y-81502214D01*
X167143061Y-81597452D01*
X167190680Y-81692690D01*
X167190680Y-81883166D01*
X167143061Y-81978404D01*
X167047823Y-82073642D01*
X166857347Y-82121261D01*
X166524014Y-82121261D01*
X166333538Y-82073642D01*
X166238300Y-81978404D01*
X166190680Y-81883166D01*
X166524014Y-81168880D02*
X166524014Y-80787928D01*
X167190680Y-81026023D02*
X166333538Y-81026023D01*
X166238300Y-80978404D01*
X166190680Y-80883166D01*
X166190680Y-80787928D01*
X166524014Y-80597452D02*
X166524014Y-80216500D01*
X167190680Y-80454595D02*
X166333538Y-80454595D01*
X166238300Y-80406976D01*
X166190680Y-80311738D01*
X166190680Y-80216500D01*
X166177980Y-93702119D02*
X166177980Y-93511642D01*
X166225600Y-93416404D01*
X166320838Y-93321166D01*
X166511314Y-93273547D01*
X166844647Y-93273547D01*
X167035123Y-93321166D01*
X167130361Y-93416404D01*
X167177980Y-93511642D01*
X167177980Y-93702119D01*
X167130361Y-93797357D01*
X167035123Y-93892595D01*
X166844647Y-93940214D01*
X166511314Y-93940214D01*
X166320838Y-93892595D01*
X166225600Y-93797357D01*
X166177980Y-93702119D01*
X166511314Y-92844976D02*
X167177980Y-92844976D01*
X166606552Y-92844976D02*
X166558933Y-92797357D01*
X166511314Y-92702119D01*
X166511314Y-92559261D01*
X166558933Y-92464023D01*
X166654171Y-92416404D01*
X167177980Y-92416404D01*
D11*
X169989500Y-109791500D02*
G75*
G03X169989500Y-109791500I-5120000J0D01*
G01*
X164869500Y-104711500D02*
X164869500Y-114871500D01*
X164909500Y-104711500D02*
X164909500Y-114871500D01*
X164949500Y-104711500D02*
X164949500Y-114871500D01*
X164989500Y-104712500D02*
X164989500Y-114870500D01*
X165029500Y-104713500D02*
X165029500Y-114869500D01*
X165069500Y-104714500D02*
X165069500Y-114868500D01*
X165109500Y-104716500D02*
X165109500Y-114866500D01*
X165149500Y-104718500D02*
X165149500Y-114864500D01*
X165189500Y-104721500D02*
X165189500Y-114861500D01*
X165229500Y-104723500D02*
X165229500Y-114859500D01*
X165269500Y-104726500D02*
X165269500Y-114856500D01*
X165309500Y-104729500D02*
X165309500Y-114853500D01*
X165349500Y-104733500D02*
X165349500Y-114849500D01*
X165389500Y-104737500D02*
X165389500Y-114845500D01*
X165429500Y-104741500D02*
X165429500Y-114841500D01*
X165469500Y-104746500D02*
X165469500Y-114836500D01*
X165509500Y-104751500D02*
X165509500Y-114831500D01*
X165549500Y-104756500D02*
X165549500Y-114826500D01*
X165590500Y-104761500D02*
X165590500Y-114821500D01*
X165630500Y-104767500D02*
X165630500Y-114815500D01*
X165670500Y-104773500D02*
X165670500Y-114809500D01*
X165710500Y-104780500D02*
X165710500Y-114802500D01*
X165750500Y-104787500D02*
X165750500Y-114795500D01*
X165790500Y-104794500D02*
X165790500Y-114788500D01*
X165830500Y-104801500D02*
X165830500Y-114781500D01*
X165870500Y-104809500D02*
X165870500Y-114773500D01*
X165910500Y-104817500D02*
X165910500Y-114765500D01*
X165950500Y-104826500D02*
X165950500Y-114756500D01*
X165990500Y-104835500D02*
X165990500Y-114747500D01*
X166030500Y-104844500D02*
X166030500Y-114738500D01*
X166070500Y-104853500D02*
X166070500Y-114729500D01*
X166110500Y-104863500D02*
X166110500Y-114719500D01*
X166150500Y-104873500D02*
X166150500Y-108550500D01*
X166150500Y-111032500D02*
X166150500Y-114709500D01*
X166190500Y-104884500D02*
X166190500Y-108550500D01*
X166190500Y-111032500D02*
X166190500Y-114698500D01*
X166230500Y-104894500D02*
X166230500Y-108550500D01*
X166230500Y-111032500D02*
X166230500Y-114688500D01*
X166270500Y-104906500D02*
X166270500Y-108550500D01*
X166270500Y-111032500D02*
X166270500Y-114676500D01*
X166310500Y-104917500D02*
X166310500Y-108550500D01*
X166310500Y-111032500D02*
X166310500Y-114665500D01*
X166350500Y-104929500D02*
X166350500Y-108550500D01*
X166350500Y-111032500D02*
X166350500Y-114653500D01*
X166390500Y-104941500D02*
X166390500Y-108550500D01*
X166390500Y-111032500D02*
X166390500Y-114641500D01*
X166430500Y-104954500D02*
X166430500Y-108550500D01*
X166430500Y-111032500D02*
X166430500Y-114628500D01*
X166470500Y-104967500D02*
X166470500Y-108550500D01*
X166470500Y-111032500D02*
X166470500Y-114615500D01*
X166510500Y-104980500D02*
X166510500Y-108550500D01*
X166510500Y-111032500D02*
X166510500Y-114602500D01*
X166550500Y-104994500D02*
X166550500Y-108550500D01*
X166550500Y-111032500D02*
X166550500Y-114588500D01*
X166590500Y-105008500D02*
X166590500Y-108550500D01*
X166590500Y-111032500D02*
X166590500Y-114574500D01*
X166630500Y-105023500D02*
X166630500Y-108550500D01*
X166630500Y-111032500D02*
X166630500Y-114559500D01*
X166670500Y-105037500D02*
X166670500Y-108550500D01*
X166670500Y-111032500D02*
X166670500Y-114545500D01*
X166710500Y-105053500D02*
X166710500Y-108550500D01*
X166710500Y-111032500D02*
X166710500Y-114529500D01*
X166750500Y-105068500D02*
X166750500Y-108550500D01*
X166750500Y-111032500D02*
X166750500Y-114514500D01*
X166790500Y-105084500D02*
X166790500Y-108550500D01*
X166790500Y-111032500D02*
X166790500Y-114498500D01*
X166830500Y-105101500D02*
X166830500Y-108550500D01*
X166830500Y-111032500D02*
X166830500Y-114481500D01*
X166870500Y-105117500D02*
X166870500Y-108550500D01*
X166870500Y-111032500D02*
X166870500Y-114465500D01*
X166910500Y-105134500D02*
X166910500Y-108550500D01*
X166910500Y-111032500D02*
X166910500Y-114448500D01*
X166950500Y-105152500D02*
X166950500Y-108550500D01*
X166950500Y-111032500D02*
X166950500Y-114430500D01*
X166990500Y-105170500D02*
X166990500Y-108550500D01*
X166990500Y-111032500D02*
X166990500Y-114412500D01*
X167030500Y-105188500D02*
X167030500Y-108550500D01*
X167030500Y-111032500D02*
X167030500Y-114394500D01*
X167070500Y-105207500D02*
X167070500Y-108550500D01*
X167070500Y-111032500D02*
X167070500Y-114375500D01*
X167110500Y-105227500D02*
X167110500Y-108550500D01*
X167110500Y-111032500D02*
X167110500Y-114355500D01*
X167150500Y-105246500D02*
X167150500Y-108550500D01*
X167150500Y-111032500D02*
X167150500Y-114336500D01*
X167190500Y-105266500D02*
X167190500Y-108550500D01*
X167190500Y-111032500D02*
X167190500Y-114316500D01*
X167230500Y-105287500D02*
X167230500Y-108550500D01*
X167230500Y-111032500D02*
X167230500Y-114295500D01*
X167270500Y-105308500D02*
X167270500Y-108550500D01*
X167270500Y-111032500D02*
X167270500Y-114274500D01*
X167310500Y-105329500D02*
X167310500Y-108550500D01*
X167310500Y-111032500D02*
X167310500Y-114253500D01*
X167350500Y-105351500D02*
X167350500Y-108550500D01*
X167350500Y-111032500D02*
X167350500Y-114231500D01*
X167390500Y-105374500D02*
X167390500Y-108550500D01*
X167390500Y-111032500D02*
X167390500Y-114208500D01*
X167430500Y-105396500D02*
X167430500Y-108550500D01*
X167430500Y-111032500D02*
X167430500Y-114186500D01*
X167470500Y-105420500D02*
X167470500Y-108550500D01*
X167470500Y-111032500D02*
X167470500Y-114162500D01*
X167510500Y-105444500D02*
X167510500Y-108550500D01*
X167510500Y-111032500D02*
X167510500Y-114138500D01*
X167550500Y-105468500D02*
X167550500Y-108550500D01*
X167550500Y-111032500D02*
X167550500Y-114114500D01*
X167590500Y-105493500D02*
X167590500Y-108550500D01*
X167590500Y-111032500D02*
X167590500Y-114089500D01*
X167630500Y-105518500D02*
X167630500Y-108550500D01*
X167630500Y-111032500D02*
X167630500Y-114064500D01*
X167670500Y-105544500D02*
X167670500Y-108550500D01*
X167670500Y-111032500D02*
X167670500Y-114038500D01*
X167710500Y-105570500D02*
X167710500Y-108550500D01*
X167710500Y-111032500D02*
X167710500Y-114012500D01*
X167750500Y-105597500D02*
X167750500Y-108550500D01*
X167750500Y-111032500D02*
X167750500Y-113985500D01*
X167790500Y-105625500D02*
X167790500Y-108550500D01*
X167790500Y-111032500D02*
X167790500Y-113957500D01*
X167830500Y-105653500D02*
X167830500Y-108550500D01*
X167830500Y-111032500D02*
X167830500Y-113929500D01*
X167870500Y-105681500D02*
X167870500Y-108550500D01*
X167870500Y-111032500D02*
X167870500Y-113901500D01*
X167910500Y-105711500D02*
X167910500Y-108550500D01*
X167910500Y-111032500D02*
X167910500Y-113871500D01*
X167950500Y-105741500D02*
X167950500Y-108550500D01*
X167950500Y-111032500D02*
X167950500Y-113841500D01*
X167990500Y-105771500D02*
X167990500Y-108550500D01*
X167990500Y-111032500D02*
X167990500Y-113811500D01*
X168030500Y-105802500D02*
X168030500Y-108550500D01*
X168030500Y-111032500D02*
X168030500Y-113780500D01*
X168070500Y-105834500D02*
X168070500Y-108550500D01*
X168070500Y-111032500D02*
X168070500Y-113748500D01*
X168110500Y-105866500D02*
X168110500Y-108550500D01*
X168110500Y-111032500D02*
X168110500Y-113716500D01*
X168150500Y-105899500D02*
X168150500Y-108550500D01*
X168150500Y-111032500D02*
X168150500Y-113683500D01*
X168190500Y-105933500D02*
X168190500Y-108550500D01*
X168190500Y-111032500D02*
X168190500Y-113649500D01*
X168230500Y-105967500D02*
X168230500Y-108550500D01*
X168230500Y-111032500D02*
X168230500Y-113615500D01*
X168270500Y-106002500D02*
X168270500Y-108550500D01*
X168270500Y-111032500D02*
X168270500Y-113580500D01*
X168310500Y-106038500D02*
X168310500Y-108550500D01*
X168310500Y-111032500D02*
X168310500Y-113544500D01*
X168350500Y-106075500D02*
X168350500Y-108550500D01*
X168350500Y-111032500D02*
X168350500Y-113507500D01*
X168390500Y-106112500D02*
X168390500Y-108550500D01*
X168390500Y-111032500D02*
X168390500Y-113470500D01*
X168430500Y-106151500D02*
X168430500Y-108550500D01*
X168430500Y-111032500D02*
X168430500Y-113431500D01*
X168470500Y-106190500D02*
X168470500Y-108550500D01*
X168470500Y-111032500D02*
X168470500Y-113392500D01*
X168510500Y-106230500D02*
X168510500Y-108550500D01*
X168510500Y-111032500D02*
X168510500Y-113352500D01*
X168550500Y-106271500D02*
X168550500Y-108550500D01*
X168550500Y-111032500D02*
X168550500Y-113311500D01*
X168590500Y-106313500D02*
X168590500Y-108550500D01*
X168590500Y-111032500D02*
X168590500Y-113269500D01*
X168630500Y-106355500D02*
X168630500Y-113227500D01*
X168670500Y-106399500D02*
X168670500Y-113183500D01*
X168710500Y-106444500D02*
X168710500Y-113138500D01*
X168750500Y-106490500D02*
X168750500Y-113092500D01*
X168790500Y-106537500D02*
X168790500Y-113045500D01*
X168830500Y-106585500D02*
X168830500Y-112997500D01*
X168870500Y-106635500D02*
X168870500Y-112947500D01*
X168910500Y-106685500D02*
X168910500Y-112897500D01*
X168950500Y-106737500D02*
X168950500Y-112845500D01*
X168990500Y-106791500D02*
X168990500Y-112791500D01*
X169030500Y-106846500D02*
X169030500Y-112736500D01*
X169070500Y-106902500D02*
X169070500Y-112680500D01*
X169110500Y-106961500D02*
X169110500Y-112621500D01*
X169150500Y-107021500D02*
X169150500Y-112561500D01*
X169190500Y-107082500D02*
X169190500Y-112500500D01*
X169230500Y-107146500D02*
X169230500Y-112436500D01*
X169270500Y-107212500D02*
X169270500Y-112370500D01*
X169310500Y-107281500D02*
X169310500Y-112301500D01*
X169350500Y-107352500D02*
X169350500Y-112230500D01*
X169390500Y-107426500D02*
X169390500Y-112156500D01*
X169430500Y-107502500D02*
X169430500Y-112080500D01*
X169470500Y-107582500D02*
X169470500Y-112000500D01*
X169510500Y-107666500D02*
X169510500Y-111916500D01*
X169550500Y-107754500D02*
X169550500Y-111828500D01*
X169590500Y-107847500D02*
X169590500Y-111735500D01*
X169630500Y-107945500D02*
X169630500Y-111637500D01*
X169670500Y-108049500D02*
X169670500Y-111533500D01*
X169710500Y-108161500D02*
X169710500Y-111421500D01*
X169750500Y-108281500D02*
X169750500Y-111301500D01*
X169790500Y-108413500D02*
X169790500Y-111169500D01*
X169830500Y-108561500D02*
X169830500Y-111021500D01*
X169870500Y-108729500D02*
X169870500Y-110853500D01*
X169910500Y-108929500D02*
X169910500Y-110653500D01*
X169950500Y-109192500D02*
X169950500Y-110390500D01*
X159389854Y-106916500D02*
X160389854Y-106916500D01*
X159889854Y-106416500D02*
X159889854Y-107416500D01*
X147531700Y-96634300D02*
G75*
G03X147531700Y-96634300I-2120000J0D01*
G01*
X145411700Y-94554300D02*
X145411700Y-98714300D01*
X145451700Y-94554300D02*
X145451700Y-98714300D01*
X145491700Y-94555300D02*
X145491700Y-98713300D01*
X145531700Y-94557300D02*
X145531700Y-98711300D01*
X145571700Y-94560300D02*
X145571700Y-98708300D01*
X145611700Y-94563300D02*
X145611700Y-95794300D01*
X145611700Y-97474300D02*
X145611700Y-98705300D01*
X145651700Y-94567300D02*
X145651700Y-95794300D01*
X145651700Y-97474300D02*
X145651700Y-98701300D01*
X145691700Y-94572300D02*
X145691700Y-95794300D01*
X145691700Y-97474300D02*
X145691700Y-98696300D01*
X145731700Y-94578300D02*
X145731700Y-95794300D01*
X145731700Y-97474300D02*
X145731700Y-98690300D01*
X145771700Y-94584300D02*
X145771700Y-95794300D01*
X145771700Y-97474300D02*
X145771700Y-98684300D01*
X145811700Y-94592300D02*
X145811700Y-95794300D01*
X145811700Y-97474300D02*
X145811700Y-98676300D01*
X145851700Y-94600300D02*
X145851700Y-95794300D01*
X145851700Y-97474300D02*
X145851700Y-98668300D01*
X145891700Y-94609300D02*
X145891700Y-95794300D01*
X145891700Y-97474300D02*
X145891700Y-98659300D01*
X145931700Y-94618300D02*
X145931700Y-95794300D01*
X145931700Y-97474300D02*
X145931700Y-98650300D01*
X145971700Y-94629300D02*
X145971700Y-95794300D01*
X145971700Y-97474300D02*
X145971700Y-98639300D01*
X146011700Y-94640300D02*
X146011700Y-95794300D01*
X146011700Y-97474300D02*
X146011700Y-98628300D01*
X146051700Y-94652300D02*
X146051700Y-95794300D01*
X146051700Y-97474300D02*
X146051700Y-98616300D01*
X146091700Y-94666300D02*
X146091700Y-95794300D01*
X146091700Y-97474300D02*
X146091700Y-98602300D01*
X146132700Y-94680300D02*
X146132700Y-95794300D01*
X146132700Y-97474300D02*
X146132700Y-98588300D01*
X146172700Y-94694300D02*
X146172700Y-95794300D01*
X146172700Y-97474300D02*
X146172700Y-98574300D01*
X146212700Y-94710300D02*
X146212700Y-95794300D01*
X146212700Y-97474300D02*
X146212700Y-98558300D01*
X146252700Y-94727300D02*
X146252700Y-95794300D01*
X146252700Y-97474300D02*
X146252700Y-98541300D01*
X146292700Y-94745300D02*
X146292700Y-95794300D01*
X146292700Y-97474300D02*
X146292700Y-98523300D01*
X146332700Y-94764300D02*
X146332700Y-95794300D01*
X146332700Y-97474300D02*
X146332700Y-98504300D01*
X146372700Y-94783300D02*
X146372700Y-95794300D01*
X146372700Y-97474300D02*
X146372700Y-98485300D01*
X146412700Y-94804300D02*
X146412700Y-95794300D01*
X146412700Y-97474300D02*
X146412700Y-98464300D01*
X146452700Y-94826300D02*
X146452700Y-95794300D01*
X146452700Y-97474300D02*
X146452700Y-98442300D01*
X146492700Y-94849300D02*
X146492700Y-95794300D01*
X146492700Y-97474300D02*
X146492700Y-98419300D01*
X146532700Y-94874300D02*
X146532700Y-95794300D01*
X146532700Y-97474300D02*
X146532700Y-98394300D01*
X146572700Y-94899300D02*
X146572700Y-95794300D01*
X146572700Y-97474300D02*
X146572700Y-98369300D01*
X146612700Y-94926300D02*
X146612700Y-95794300D01*
X146612700Y-97474300D02*
X146612700Y-98342300D01*
X146652700Y-94954300D02*
X146652700Y-95794300D01*
X146652700Y-97474300D02*
X146652700Y-98314300D01*
X146692700Y-94984300D02*
X146692700Y-95794300D01*
X146692700Y-97474300D02*
X146692700Y-98284300D01*
X146732700Y-95015300D02*
X146732700Y-95794300D01*
X146732700Y-97474300D02*
X146732700Y-98253300D01*
X146772700Y-95047300D02*
X146772700Y-95794300D01*
X146772700Y-97474300D02*
X146772700Y-98221300D01*
X146812700Y-95082300D02*
X146812700Y-95794300D01*
X146812700Y-97474300D02*
X146812700Y-98186300D01*
X146852700Y-95118300D02*
X146852700Y-95794300D01*
X146852700Y-97474300D02*
X146852700Y-98150300D01*
X146892700Y-95156300D02*
X146892700Y-95794300D01*
X146892700Y-97474300D02*
X146892700Y-98112300D01*
X146932700Y-95196300D02*
X146932700Y-95794300D01*
X146932700Y-97474300D02*
X146932700Y-98072300D01*
X146972700Y-95238300D02*
X146972700Y-95794300D01*
X146972700Y-97474300D02*
X146972700Y-98030300D01*
X147012700Y-95283300D02*
X147012700Y-95794300D01*
X147012700Y-97474300D02*
X147012700Y-97985300D01*
X147052700Y-95330300D02*
X147052700Y-95794300D01*
X147052700Y-97474300D02*
X147052700Y-97938300D01*
X147092700Y-95380300D02*
X147092700Y-95794300D01*
X147092700Y-97474300D02*
X147092700Y-97888300D01*
X147132700Y-95434300D02*
X147132700Y-95794300D01*
X147132700Y-97474300D02*
X147132700Y-97834300D01*
X147172700Y-95492300D02*
X147172700Y-95794300D01*
X147172700Y-97474300D02*
X147172700Y-97776300D01*
X147212700Y-95554300D02*
X147212700Y-95794300D01*
X147212700Y-97474300D02*
X147212700Y-97714300D01*
X147252700Y-95621300D02*
X147252700Y-97647300D01*
X147292700Y-95694300D02*
X147292700Y-97574300D01*
X147332700Y-95775300D02*
X147332700Y-97493300D01*
X147372700Y-95866300D02*
X147372700Y-97402300D01*
X147412700Y-95970300D02*
X147412700Y-97298300D01*
X147452700Y-96097300D02*
X147452700Y-97171300D01*
X147492700Y-96264300D02*
X147492700Y-97004300D01*
X143141899Y-95439300D02*
X143541899Y-95439300D01*
X143341899Y-95239300D02*
X143341899Y-95639300D01*
X153271000Y-101222200D02*
X153271000Y-104162200D01*
X153271000Y-104162200D02*
X158711000Y-104162200D01*
X158711000Y-104162200D02*
X158711000Y-101222200D01*
X158711000Y-101222200D02*
X153271000Y-101222200D01*
X152251000Y-102692200D02*
X153271000Y-102692200D01*
X159731000Y-102692200D02*
X158711000Y-102692200D01*
X154171000Y-101222200D02*
X154171000Y-104162200D01*
X154291000Y-101222200D02*
X154291000Y-104162200D01*
X154051000Y-101222200D02*
X154051000Y-104162200D01*
X154051000Y-95599675D02*
X154051000Y-98539675D01*
X154291000Y-95599675D02*
X154291000Y-98539675D01*
X154171000Y-95599675D02*
X154171000Y-98539675D01*
X159731000Y-97069675D02*
X158711000Y-97069675D01*
X152251000Y-97069675D02*
X153271000Y-97069675D01*
X158711000Y-95599675D02*
X153271000Y-95599675D01*
X158711000Y-98539675D02*
X158711000Y-95599675D01*
X153271000Y-98539675D02*
X158711000Y-98539675D01*
X153271000Y-95599675D02*
X153271000Y-98539675D01*
X153271000Y-89977150D02*
X153271000Y-92917150D01*
X153271000Y-92917150D02*
X158711000Y-92917150D01*
X158711000Y-92917150D02*
X158711000Y-89977150D01*
X158711000Y-89977150D02*
X153271000Y-89977150D01*
X152251000Y-91447150D02*
X153271000Y-91447150D01*
X159731000Y-91447150D02*
X158711000Y-91447150D01*
X154171000Y-89977150D02*
X154171000Y-92917150D01*
X154291000Y-89977150D02*
X154291000Y-92917150D01*
X154051000Y-89977150D02*
X154051000Y-92917150D01*
X154051000Y-84354625D02*
X154051000Y-87294625D01*
X154291000Y-84354625D02*
X154291000Y-87294625D01*
X154171000Y-84354625D02*
X154171000Y-87294625D01*
X159731000Y-85824625D02*
X158711000Y-85824625D01*
X152251000Y-85824625D02*
X153271000Y-85824625D01*
X158711000Y-84354625D02*
X153271000Y-84354625D01*
X158711000Y-87294625D02*
X158711000Y-84354625D01*
X153271000Y-87294625D02*
X158711000Y-87294625D01*
X153271000Y-84354625D02*
X153271000Y-87294625D01*
X165621592Y-95812865D02*
G75*
G03X165464684Y-99045200I1078608J-1672335D01*
G01*
X167778808Y-95812865D02*
G75*
G02X167935716Y-99045200I-1078608J-1672335D01*
G01*
X165620363Y-96444070D02*
G75*
G03X165620200Y-98526161I1079837J-1041130D01*
G01*
X167780037Y-96444070D02*
G75*
G02X167780200Y-98526161I-1079837J-1041130D01*
G01*
X165464200Y-99045200D02*
X165620200Y-99045200D01*
X167780200Y-99045200D02*
X167936200Y-99045200D01*
X152013300Y-115559900D02*
X143513300Y-115559900D01*
X143513300Y-115559900D02*
X143513300Y-106359900D01*
X143513300Y-106359900D02*
X158213300Y-106359900D01*
X158213300Y-113459900D02*
X158213300Y-115559900D01*
X158213300Y-115559900D02*
X156413300Y-115559900D01*
X158513300Y-107759900D02*
X158513300Y-106059900D01*
X158513300Y-106059900D02*
X156913300Y-106059900D01*
X158213300Y-106359900D02*
X158213300Y-108459900D01*
X146057500Y-123161100D02*
X151257500Y-123161100D01*
X146057500Y-120561100D02*
X146057500Y-123161100D01*
X151257500Y-117961100D02*
X151257500Y-123161100D01*
X146057500Y-120561100D02*
X148657500Y-120561100D01*
X148657500Y-120561100D02*
X148657500Y-117961100D01*
X148657500Y-117961100D02*
X151257500Y-117961100D01*
X146057500Y-119291100D02*
X146057500Y-117961100D01*
X146057500Y-117961100D02*
X147387500Y-117961100D01*
X161005400Y-72977700D02*
X162335400Y-72977700D01*
X161005400Y-74307700D02*
X161005400Y-72977700D01*
X163605400Y-72977700D02*
X166205400Y-72977700D01*
X163605400Y-75577700D02*
X163605400Y-72977700D01*
X161005400Y-75577700D02*
X163605400Y-75577700D01*
X166205400Y-72977700D02*
X166205400Y-78177700D01*
X161005400Y-75577700D02*
X161005400Y-78177700D01*
X161005400Y-78177700D02*
X166205400Y-78177700D01*
X146057500Y-72977700D02*
X147387500Y-72977700D01*
X146057500Y-74307700D02*
X146057500Y-72977700D01*
X148657500Y-72977700D02*
X151257500Y-72977700D01*
X148657500Y-75577700D02*
X148657500Y-72977700D01*
X146057500Y-75577700D02*
X148657500Y-75577700D01*
X151257500Y-72977700D02*
X151257500Y-78177700D01*
X146057500Y-75577700D02*
X146057500Y-78177700D01*
X146057500Y-78177700D02*
X151257500Y-78177700D01*
X161068900Y-123161100D02*
X166268900Y-123161100D01*
X161068900Y-120561100D02*
X161068900Y-123161100D01*
X166268900Y-117961100D02*
X166268900Y-123161100D01*
X161068900Y-120561100D02*
X163668900Y-120561100D01*
X163668900Y-120561100D02*
X163668900Y-117961100D01*
X163668900Y-117961100D02*
X166268900Y-117961100D01*
X161068900Y-119291100D02*
X161068900Y-117961100D01*
X161068900Y-117961100D02*
X162398900Y-117961100D01*
X154291000Y-79262100D02*
X154291000Y-78932100D01*
X154291000Y-78932100D02*
X160831000Y-78932100D01*
X160831000Y-78932100D02*
X160831000Y-79262100D01*
X154291000Y-81342100D02*
X154291000Y-81672100D01*
X154291000Y-81672100D02*
X160831000Y-81672100D01*
X160831000Y-81672100D02*
X160831000Y-81342100D01*
X168834500Y-82270900D02*
X167634500Y-82270900D01*
X168834500Y-83470900D02*
X168834500Y-82270900D01*
X164334500Y-91770900D02*
X164334500Y-90570900D01*
X168534500Y-91770900D02*
X164334500Y-91770900D01*
X168534500Y-90570900D02*
X168534500Y-91770900D01*
X164334500Y-82570900D02*
X164334500Y-83770900D01*
X168534500Y-82570900D02*
X164334500Y-82570900D01*
X168534500Y-83770900D02*
X168534500Y-82570900D01*
X142843500Y-92242000D02*
X142843500Y-82002000D01*
X147484500Y-92242000D02*
X147484500Y-82002000D01*
X142843500Y-92242000D02*
X147484500Y-92242000D01*
X142843500Y-82002000D02*
X147484500Y-82002000D01*
X144353500Y-92242000D02*
X144353500Y-82002000D01*
X142843500Y-88972000D02*
X144353500Y-88972000D01*
X142843500Y-85271000D02*
X144353500Y-85271000D01*
D10*
X164702833Y-103898642D02*
X164655214Y-103946261D01*
X164512357Y-103993880D01*
X164417119Y-103993880D01*
X164274261Y-103946261D01*
X164179023Y-103851023D01*
X164131404Y-103755785D01*
X164083785Y-103565309D01*
X164083785Y-103422452D01*
X164131404Y-103231976D01*
X164179023Y-103136738D01*
X164274261Y-103041500D01*
X164417119Y-102993880D01*
X164512357Y-102993880D01*
X164655214Y-103041500D01*
X164702833Y-103089119D01*
X165655214Y-103993880D02*
X165083785Y-103993880D01*
X165369500Y-103993880D02*
X165369500Y-102993880D01*
X165274261Y-103136738D01*
X165179023Y-103231976D01*
X165083785Y-103279595D01*
X145245033Y-93741442D02*
X145197414Y-93789061D01*
X145054557Y-93836680D01*
X144959319Y-93836680D01*
X144816461Y-93789061D01*
X144721223Y-93693823D01*
X144673604Y-93598585D01*
X144625985Y-93408109D01*
X144625985Y-93265252D01*
X144673604Y-93074776D01*
X144721223Y-92979538D01*
X144816461Y-92884300D01*
X144959319Y-92836680D01*
X145054557Y-92836680D01*
X145197414Y-92884300D01*
X145245033Y-92931919D01*
X145625985Y-92931919D02*
X145673604Y-92884300D01*
X145768842Y-92836680D01*
X146006938Y-92836680D01*
X146102176Y-92884300D01*
X146149795Y-92931919D01*
X146197414Y-93027157D01*
X146197414Y-93122395D01*
X146149795Y-93265252D01*
X145578366Y-93836680D01*
X146197414Y-93836680D01*
X155252904Y-100674580D02*
X155252904Y-99674580D01*
X155491000Y-99674580D01*
X155633857Y-99722200D01*
X155729095Y-99817438D01*
X155776714Y-99912676D01*
X155824333Y-100103152D01*
X155824333Y-100246009D01*
X155776714Y-100436485D01*
X155729095Y-100531723D01*
X155633857Y-100626961D01*
X155491000Y-100674580D01*
X155252904Y-100674580D01*
X156776714Y-100674580D02*
X156205285Y-100674580D01*
X156491000Y-100674580D02*
X156491000Y-99674580D01*
X156395761Y-99817438D01*
X156300523Y-99912676D01*
X156205285Y-99960295D01*
X150649095Y-101044580D02*
X150649095Y-100044580D01*
X151220523Y-101044580D02*
X150791952Y-100473152D01*
X151220523Y-100044580D02*
X150649095Y-100616009D01*
X155252904Y-95052055D02*
X155252904Y-94052055D01*
X155491000Y-94052055D01*
X155633857Y-94099675D01*
X155729095Y-94194913D01*
X155776714Y-94290151D01*
X155824333Y-94480627D01*
X155824333Y-94623484D01*
X155776714Y-94813960D01*
X155729095Y-94909198D01*
X155633857Y-95004436D01*
X155491000Y-95052055D01*
X155252904Y-95052055D01*
X156205285Y-94147294D02*
X156252904Y-94099675D01*
X156348142Y-94052055D01*
X156586238Y-94052055D01*
X156681476Y-94099675D01*
X156729095Y-94147294D01*
X156776714Y-94242532D01*
X156776714Y-94337770D01*
X156729095Y-94480627D01*
X156157666Y-95052055D01*
X156776714Y-95052055D01*
X150649095Y-95422055D02*
X150649095Y-94422055D01*
X151220523Y-95422055D02*
X150791952Y-94850627D01*
X151220523Y-94422055D02*
X150649095Y-94993484D01*
X155252904Y-89429530D02*
X155252904Y-88429530D01*
X155491000Y-88429530D01*
X155633857Y-88477150D01*
X155729095Y-88572388D01*
X155776714Y-88667626D01*
X155824333Y-88858102D01*
X155824333Y-89000959D01*
X155776714Y-89191435D01*
X155729095Y-89286673D01*
X155633857Y-89381911D01*
X155491000Y-89429530D01*
X155252904Y-89429530D01*
X156157666Y-88429530D02*
X156776714Y-88429530D01*
X156443380Y-88810483D01*
X156586238Y-88810483D01*
X156681476Y-88858102D01*
X156729095Y-88905721D01*
X156776714Y-89000959D01*
X156776714Y-89239054D01*
X156729095Y-89334292D01*
X156681476Y-89381911D01*
X156586238Y-89429530D01*
X156300523Y-89429530D01*
X156205285Y-89381911D01*
X156157666Y-89334292D01*
X150649095Y-89799530D02*
X150649095Y-88799530D01*
X151220523Y-89799530D02*
X150791952Y-89228102D01*
X151220523Y-88799530D02*
X150649095Y-89370959D01*
X155252904Y-83807005D02*
X155252904Y-82807005D01*
X155491000Y-82807005D01*
X155633857Y-82854625D01*
X155729095Y-82949863D01*
X155776714Y-83045101D01*
X155824333Y-83235577D01*
X155824333Y-83378434D01*
X155776714Y-83568910D01*
X155729095Y-83664148D01*
X155633857Y-83759386D01*
X155491000Y-83807005D01*
X155252904Y-83807005D01*
X156681476Y-83140339D02*
X156681476Y-83807005D01*
X156443380Y-82759386D02*
X156205285Y-83473672D01*
X156824333Y-83473672D01*
X150649095Y-84177005D02*
X150649095Y-83177005D01*
X151220523Y-84177005D02*
X150791952Y-83605577D01*
X151220523Y-83177005D02*
X150649095Y-83748434D01*
X164192580Y-98223295D02*
X163192580Y-98223295D01*
X163192580Y-97985200D01*
X163240200Y-97842342D01*
X163335438Y-97747104D01*
X163430676Y-97699485D01*
X163621152Y-97651866D01*
X163764009Y-97651866D01*
X163954485Y-97699485D01*
X164049723Y-97747104D01*
X164144961Y-97842342D01*
X164192580Y-97985200D01*
X164192580Y-98223295D01*
X163192580Y-96747104D02*
X163192580Y-97223295D01*
X163668771Y-97270914D01*
X163621152Y-97223295D01*
X163573533Y-97128057D01*
X163573533Y-96889961D01*
X163621152Y-96794723D01*
X163668771Y-96747104D01*
X163764009Y-96699485D01*
X164002104Y-96699485D01*
X164097342Y-96747104D01*
X164144961Y-96794723D01*
X164192580Y-96889961D01*
X164192580Y-97128057D01*
X164144961Y-97223295D01*
X164097342Y-97270914D01*
X153643080Y-111420233D02*
X154357366Y-111420233D01*
X154500223Y-111467852D01*
X154595461Y-111563090D01*
X154643080Y-111705947D01*
X154643080Y-111801185D01*
X154643080Y-110420233D02*
X154643080Y-110991661D01*
X154643080Y-110705947D02*
X153643080Y-110705947D01*
X153785938Y-110801185D01*
X153881176Y-110896423D01*
X153928795Y-110991661D01*
X158316633Y-82989680D02*
X157983300Y-82513490D01*
X157745204Y-82989680D02*
X157745204Y-81989680D01*
X158126157Y-81989680D01*
X158221395Y-82037300D01*
X158269014Y-82084919D01*
X158316633Y-82180157D01*
X158316633Y-82323014D01*
X158269014Y-82418252D01*
X158221395Y-82465871D01*
X158126157Y-82513490D01*
X157745204Y-82513490D01*
X159269014Y-82989680D02*
X158697585Y-82989680D01*
X158983300Y-82989680D02*
X158983300Y-81989680D01*
X158888061Y-82132538D01*
X158792823Y-82227776D01*
X158697585Y-82275395D01*
X170089261Y-88754233D02*
X170136880Y-88611376D01*
X170136880Y-88373280D01*
X170089261Y-88278042D01*
X170041642Y-88230423D01*
X169946404Y-88182804D01*
X169851166Y-88182804D01*
X169755928Y-88230423D01*
X169708309Y-88278042D01*
X169660690Y-88373280D01*
X169613071Y-88563757D01*
X169565452Y-88658995D01*
X169517833Y-88706614D01*
X169422595Y-88754233D01*
X169327357Y-88754233D01*
X169232119Y-88706614D01*
X169184500Y-88658995D01*
X169136880Y-88563757D01*
X169136880Y-88325661D01*
X169184500Y-88182804D01*
X169136880Y-87849471D02*
X170136880Y-87611376D01*
X169422595Y-87420900D01*
X170136880Y-87230423D01*
X169136880Y-86992328D01*
X170136880Y-86087566D02*
X170136880Y-86658995D01*
X170136880Y-86373280D02*
X169136880Y-86373280D01*
X169279738Y-86468519D01*
X169374976Y-86563757D01*
X169422595Y-86658995D01*
X141295880Y-87883904D02*
X142105404Y-87883904D01*
X142200642Y-87836285D01*
X142248261Y-87788666D01*
X142295880Y-87693428D01*
X142295880Y-87502952D01*
X142248261Y-87407714D01*
X142200642Y-87360095D01*
X142105404Y-87312476D01*
X141295880Y-87312476D01*
X142295880Y-86312476D02*
X142295880Y-86883904D01*
X142295880Y-86598190D02*
X141295880Y-86598190D01*
X141438738Y-86693428D01*
X141533976Y-86788666D01*
X141581595Y-86883904D01*
M02*
