G04 #@! TF.GenerationSoftware,KiCad,Pcbnew,(5.1.4)-1*
G04 #@! TF.CreationDate,2021-12-06T15:52:36-07:00*
G04 #@! TF.ProjectId,BreadBoard PS Ver2,42726561-6442-46f6-9172-642050532056,2*
G04 #@! TF.SameCoordinates,Original*
G04 #@! TF.FileFunction,Copper,L1,Top*
G04 #@! TF.FilePolarity,Positive*
%FSLAX46Y46*%
G04 Gerber Fmt 4.6, Leading zero omitted, Abs format (unit mm)*
G04 Created by KiCad (PCBNEW (5.1.4)-1) date 2021-12-06 15:52:36*
%MOMM*%
%LPD*%
G04 APERTURE LIST*
%ADD10R,2.000000X2.000000*%
%ADD11C,2.000000*%
%ADD12R,1.200000X1.200000*%
%ADD13C,1.200000*%
%ADD14R,2.200000X2.200000*%
%ADD15O,2.200000X2.200000*%
%ADD16R,1.800000X1.800000*%
%ADD17C,1.800000*%
%ADD18O,4.000000X1.800000*%
%ADD19O,1.800000X4.000000*%
%ADD20R,1.800000X4.400000*%
%ADD21R,1.700000X1.700000*%
%ADD22O,1.700000X1.700000*%
%ADD23C,1.600000*%
%ADD24O,1.600000X1.600000*%
%ADD25R,1.400000X1.400000*%
%ADD26C,1.400000*%
%ADD27R,2.000000X1.905000*%
%ADD28O,2.000000X1.905000*%
%ADD29C,0.300000*%
%ADD30C,0.250000*%
G04 APERTURE END LIST*
D10*
X162369500Y-109791500D03*
D11*
X167369500Y-109791500D03*
D12*
X144411700Y-96634300D03*
D13*
X146411700Y-96634300D03*
D14*
X150911000Y-102692200D03*
D15*
X161071000Y-102692200D03*
X161071000Y-97069675D03*
D14*
X150911000Y-97069675D03*
X150911000Y-91447150D03*
D15*
X161071000Y-91447150D03*
X161071000Y-85824625D03*
D14*
X150911000Y-85824625D03*
D16*
X166700200Y-98755200D03*
D17*
X166700200Y-96215200D03*
D18*
X154213300Y-115759900D03*
D19*
X151413300Y-110959900D03*
D20*
X157213300Y-110959900D03*
D21*
X147387500Y-119291100D03*
D22*
X149927500Y-119291100D03*
X147387500Y-121831100D03*
X149927500Y-121831100D03*
X164875400Y-76847700D03*
X162335400Y-76847700D03*
X164875400Y-74307700D03*
D21*
X162335400Y-74307700D03*
D22*
X149927500Y-76847700D03*
X147387500Y-76847700D03*
X149927500Y-74307700D03*
D21*
X147387500Y-74307700D03*
X162398900Y-119291100D03*
D22*
X164938900Y-119291100D03*
X162398900Y-121831100D03*
X164938900Y-121831100D03*
D23*
X153751000Y-80302100D03*
D24*
X161371000Y-80302100D03*
D25*
X168084500Y-84670900D03*
D26*
X168084500Y-87170900D03*
X168084500Y-89670900D03*
X164784500Y-84670900D03*
X164784500Y-87170900D03*
X164784500Y-89670900D03*
D27*
X146113500Y-89662000D03*
D28*
X146113500Y-87122000D03*
X146113500Y-84582000D03*
D29*
X162369500Y-108491500D02*
X162369500Y-109791500D01*
X156570200Y-102692200D02*
X162369500Y-108491500D01*
X150911000Y-102692200D02*
X156570200Y-102692200D01*
X150911000Y-90047150D02*
X150911000Y-91447150D01*
X150525850Y-89662000D02*
X150911000Y-90047150D01*
X146113500Y-89662000D02*
X150525850Y-89662000D01*
X150911000Y-92847150D02*
X150911000Y-91447150D01*
X149460999Y-94297151D02*
X150911000Y-92847150D01*
X149460999Y-99842199D02*
X149460999Y-94297151D01*
X150911000Y-101292200D02*
X149460999Y-99842199D01*
X150911000Y-102692200D02*
X150911000Y-101292200D01*
X150290901Y-79152099D02*
X151656399Y-79152099D01*
X146113500Y-83329500D02*
X150290901Y-79152099D01*
X146113500Y-84582000D02*
X146113500Y-83329500D01*
X151467201Y-79152099D02*
X151656399Y-79152099D01*
X151656399Y-79152099D02*
X163327699Y-79152099D01*
D30*
X165809501Y-81633901D02*
X163327699Y-79152099D01*
X165809501Y-84895901D02*
X165809501Y-81633901D01*
X168084500Y-87170900D02*
X165809501Y-84895901D01*
D29*
X144411700Y-95734300D02*
X144411700Y-96634300D01*
X143243300Y-94565900D02*
X144411700Y-95734300D01*
X143243300Y-87404700D02*
X143243300Y-94565900D01*
X146113500Y-84582000D02*
X146066000Y-84582000D01*
X146066000Y-84582000D02*
X143243300Y-87404700D01*
X155448475Y-97069675D02*
X161071000Y-102692200D01*
X150911000Y-97069675D02*
X155448475Y-97069675D01*
X153751000Y-81433470D02*
X153751000Y-80302100D01*
X163410900Y-91093370D02*
X153751000Y-81433470D01*
X163410900Y-96665900D02*
X163410900Y-91093370D01*
X166700200Y-98755200D02*
X165500200Y-98755200D01*
X165500200Y-98755200D02*
X163410900Y-96665900D01*
X149927500Y-74307700D02*
X162335400Y-74307700D01*
X164875400Y-74307700D02*
X162335400Y-74307700D01*
X149927500Y-74307700D02*
X147387500Y-74307700D01*
X149927500Y-119291100D02*
X162398900Y-119291100D01*
X162398900Y-119291100D02*
X164938900Y-119291100D01*
X149927500Y-119291100D02*
X147387500Y-119291100D01*
X164938900Y-119291100D02*
X168719501Y-115510499D01*
X168719501Y-115510499D02*
X168719501Y-98234501D01*
X168719501Y-98234501D02*
X166700200Y-96215200D01*
D30*
X165725399Y-75157699D02*
X164875400Y-74307700D01*
X169109501Y-78541801D02*
X165725399Y-75157699D01*
X169109501Y-88645899D02*
X169109501Y-78541801D01*
X168084500Y-89670900D02*
X169109501Y-88645899D01*
X168084500Y-94830900D02*
X166700200Y-96215200D01*
X168084500Y-89670900D02*
X168084500Y-94830900D01*
M02*
