M48
; DRILL file {KiCad (5.1.4)-1} date 12/6/2021 3:53:44 PM
; FORMAT={-:-/ absolute / inch / decimal}
; #@! TF.CreationDate,2021-12-06T15:53:44-07:00
; #@! TF.GenerationSoftware,Kicad,Pcbnew,(5.1.4)-1
; #@! TF.FileFunction,Plated,1,2,PTH
FMAT,2
INCH
T1C0.0236
T2C0.0315
T3C0.0354
T4C0.0394
T5C0.0433
%
G90
G05
T1
X5.6855Y-3.8045
X5.7642Y-3.8045
T2
X6.0532Y-3.1615
X6.3532Y-3.1615
T3
X6.563Y-3.788
X6.563Y-3.888
X6.4876Y-3.3335
X6.4876Y-3.4319
X6.4876Y-3.5304
X6.6175Y-3.3335
X6.6175Y-3.4319
X6.6175Y-3.5304
T4
X6.3937Y-4.6965
X6.3937Y-4.7965
X6.4937Y-4.6965
X6.4937Y-4.7965
X6.3912Y-2.9255
X6.3912Y-3.0255
X6.4912Y-2.9255
X6.4912Y-3.0255
X5.8027Y-4.6965
X5.8027Y-4.7965
X5.9027Y-4.6965
X5.9027Y-4.7965
X5.8027Y-2.9255
X5.8027Y-3.0255
X5.9027Y-2.9255
X5.9027Y-3.0255
X6.3925Y-4.3225
X6.5894Y-4.3225
T5
X5.9414Y-3.6003
X6.3414Y-3.6003
X5.9414Y-3.3789
X6.3414Y-3.3789
X5.9414Y-3.8216
X6.3414Y-3.8216
X5.9414Y-4.043
X6.3414Y-4.043
X5.7525Y-3.33
X5.7525Y-3.43
X5.7525Y-3.53
T2
G00X5.9612Y-4.3252
M15
G01X5.9612Y-4.4118
M16
G05
G00X6.0281Y-4.5575
M15
G01X6.1147Y-4.5575
M16
G05
G00X6.1895Y-4.3173
M15
G01X6.1895Y-4.4197
M16
G05
T0
M30
