G04 #@! TF.GenerationSoftware,KiCad,Pcbnew,(5.1.4)-1*
G04 #@! TF.CreationDate,2021-12-19T12:19:24-07:00*
G04 #@! TF.ProjectId,BreadBoard PS Ver2,42726561-6442-46f6-9172-642050532056,2*
G04 #@! TF.SameCoordinates,Original*
G04 #@! TF.FileFunction,Legend,Top*
G04 #@! TF.FilePolarity,Positive*
%FSLAX46Y46*%
G04 Gerber Fmt 4.6, Leading zero omitted, Abs format (unit mm)*
G04 Created by KiCad (PCBNEW (5.1.4)-1) date 2021-12-19 12:19:24*
%MOMM*%
%LPD*%
G04 APERTURE LIST*
%ADD10C,0.150000*%
%ADD11C,0.120000*%
G04 APERTURE END LIST*
D10*
X159106014Y-77669128D02*
X159820300Y-77669128D01*
X159891728Y-76954842D01*
X159820300Y-77026271D01*
X159677442Y-77097700D01*
X159320300Y-77097700D01*
X159177442Y-77026271D01*
X159106014Y-76954842D01*
X159034585Y-76811985D01*
X159034585Y-76454842D01*
X159106014Y-76311985D01*
X159177442Y-76240557D01*
X159320300Y-76169128D01*
X159677442Y-76169128D01*
X159820300Y-76240557D01*
X159891728Y-76311985D01*
X158606014Y-77669128D02*
X158106014Y-76169128D01*
X157606014Y-77669128D01*
X155106014Y-76169128D02*
X155606014Y-76883414D01*
X155963157Y-76169128D02*
X155963157Y-77669128D01*
X155391728Y-77669128D01*
X155248871Y-77597700D01*
X155177442Y-77526271D01*
X155106014Y-77383414D01*
X155106014Y-77169128D01*
X155177442Y-77026271D01*
X155248871Y-76954842D01*
X155391728Y-76883414D01*
X155963157Y-76883414D01*
X153820300Y-76169128D02*
X153820300Y-76954842D01*
X153891728Y-77097700D01*
X154034585Y-77169128D01*
X154320300Y-77169128D01*
X154463157Y-77097700D01*
X153820300Y-76240557D02*
X153963157Y-76169128D01*
X154320300Y-76169128D01*
X154463157Y-76240557D01*
X154534585Y-76383414D01*
X154534585Y-76526271D01*
X154463157Y-76669128D01*
X154320300Y-76740557D01*
X153963157Y-76740557D01*
X153820300Y-76811985D01*
X153106014Y-76169128D02*
X153106014Y-77169128D01*
X153106014Y-77669128D02*
X153177442Y-77597700D01*
X153106014Y-77526271D01*
X153034585Y-77597700D01*
X153106014Y-77669128D01*
X153106014Y-77526271D01*
X152177442Y-76169128D02*
X152320300Y-76240557D01*
X152391728Y-76383414D01*
X152391728Y-77669128D01*
X159479447Y-74881900D02*
X159598495Y-74941423D01*
X159777066Y-74941423D01*
X159955638Y-74881900D01*
X160074685Y-74762852D01*
X160134209Y-74643804D01*
X160193733Y-74405709D01*
X160193733Y-74227138D01*
X160134209Y-73989042D01*
X160074685Y-73869995D01*
X159955638Y-73750947D01*
X159777066Y-73691423D01*
X159658019Y-73691423D01*
X159479447Y-73750947D01*
X159419923Y-73810471D01*
X159419923Y-74227138D01*
X159658019Y-74227138D01*
X158884209Y-73691423D02*
X158884209Y-74941423D01*
X158169923Y-73691423D01*
X158169923Y-74941423D01*
X157574685Y-73691423D02*
X157574685Y-74941423D01*
X157277066Y-74941423D01*
X157098495Y-74881900D01*
X156979447Y-74762852D01*
X156919923Y-74643804D01*
X156860400Y-74405709D01*
X156860400Y-74227138D01*
X156919923Y-73989042D01*
X156979447Y-73869995D01*
X157098495Y-73750947D01*
X157277066Y-73691423D01*
X157574685Y-73691423D01*
X154658019Y-73691423D02*
X155074685Y-74286661D01*
X155372304Y-73691423D02*
X155372304Y-74941423D01*
X154896114Y-74941423D01*
X154777066Y-74881900D01*
X154717542Y-74822376D01*
X154658019Y-74703328D01*
X154658019Y-74524757D01*
X154717542Y-74405709D01*
X154777066Y-74346185D01*
X154896114Y-74286661D01*
X155372304Y-74286661D01*
X153586590Y-73691423D02*
X153586590Y-74346185D01*
X153646114Y-74465233D01*
X153765161Y-74524757D01*
X154003257Y-74524757D01*
X154122304Y-74465233D01*
X153586590Y-73750947D02*
X153705638Y-73691423D01*
X154003257Y-73691423D01*
X154122304Y-73750947D01*
X154181828Y-73869995D01*
X154181828Y-73989042D01*
X154122304Y-74108090D01*
X154003257Y-74167614D01*
X153705638Y-74167614D01*
X153586590Y-74227138D01*
X152991352Y-73691423D02*
X152991352Y-74524757D01*
X152991352Y-74941423D02*
X153050876Y-74881900D01*
X152991352Y-74822376D01*
X152931828Y-74881900D01*
X152991352Y-74941423D01*
X152991352Y-74822376D01*
X152217542Y-73691423D02*
X152336590Y-73750947D01*
X152396114Y-73869995D01*
X152396114Y-74941423D01*
X152851652Y-118666100D02*
X152732604Y-118606576D01*
X152554033Y-118606576D01*
X152375461Y-118666100D01*
X152256414Y-118785147D01*
X152196890Y-118904195D01*
X152137366Y-119142290D01*
X152137366Y-119320861D01*
X152196890Y-119558957D01*
X152256414Y-119678004D01*
X152375461Y-119797052D01*
X152554033Y-119856576D01*
X152673080Y-119856576D01*
X152851652Y-119797052D01*
X152911176Y-119737528D01*
X152911176Y-119320861D01*
X152673080Y-119320861D01*
X153446890Y-119856576D02*
X153446890Y-118606576D01*
X154161176Y-119856576D01*
X154161176Y-118606576D01*
X154756414Y-119856576D02*
X154756414Y-118606576D01*
X155054033Y-118606576D01*
X155232604Y-118666100D01*
X155351652Y-118785147D01*
X155411176Y-118904195D01*
X155470700Y-119142290D01*
X155470700Y-119320861D01*
X155411176Y-119558957D01*
X155351652Y-119678004D01*
X155232604Y-119797052D01*
X155054033Y-119856576D01*
X154756414Y-119856576D01*
X157673080Y-119856576D02*
X157256414Y-119261338D01*
X156958795Y-119856576D02*
X156958795Y-118606576D01*
X157434985Y-118606576D01*
X157554033Y-118666100D01*
X157613557Y-118725623D01*
X157673080Y-118844671D01*
X157673080Y-119023242D01*
X157613557Y-119142290D01*
X157554033Y-119201814D01*
X157434985Y-119261338D01*
X156958795Y-119261338D01*
X158744509Y-119856576D02*
X158744509Y-119201814D01*
X158684985Y-119082766D01*
X158565938Y-119023242D01*
X158327842Y-119023242D01*
X158208795Y-119082766D01*
X158744509Y-119797052D02*
X158625461Y-119856576D01*
X158327842Y-119856576D01*
X158208795Y-119797052D01*
X158149271Y-119678004D01*
X158149271Y-119558957D01*
X158208795Y-119439909D01*
X158327842Y-119380385D01*
X158625461Y-119380385D01*
X158744509Y-119320861D01*
X159339747Y-119856576D02*
X159339747Y-119023242D01*
X159339747Y-118606576D02*
X159280223Y-118666100D01*
X159339747Y-118725623D01*
X159399271Y-118666100D01*
X159339747Y-118606576D01*
X159339747Y-118725623D01*
X160113557Y-119856576D02*
X159994509Y-119797052D01*
X159934985Y-119678004D01*
X159934985Y-118606576D01*
X153098085Y-120996971D02*
X152383800Y-120996971D01*
X152312371Y-121711257D01*
X152383800Y-121639828D01*
X152526657Y-121568400D01*
X152883800Y-121568400D01*
X153026657Y-121639828D01*
X153098085Y-121711257D01*
X153169514Y-121854114D01*
X153169514Y-122211257D01*
X153098085Y-122354114D01*
X153026657Y-122425542D01*
X152883800Y-122496971D01*
X152526657Y-122496971D01*
X152383800Y-122425542D01*
X152312371Y-122354114D01*
X153598085Y-120996971D02*
X154098085Y-122496971D01*
X154598085Y-120996971D01*
X157098085Y-122496971D02*
X156598085Y-121782685D01*
X156240942Y-122496971D02*
X156240942Y-120996971D01*
X156812371Y-120996971D01*
X156955228Y-121068400D01*
X157026657Y-121139828D01*
X157098085Y-121282685D01*
X157098085Y-121496971D01*
X157026657Y-121639828D01*
X156955228Y-121711257D01*
X156812371Y-121782685D01*
X156240942Y-121782685D01*
X158383800Y-122496971D02*
X158383800Y-121711257D01*
X158312371Y-121568400D01*
X158169514Y-121496971D01*
X157883800Y-121496971D01*
X157740942Y-121568400D01*
X158383800Y-122425542D02*
X158240942Y-122496971D01*
X157883800Y-122496971D01*
X157740942Y-122425542D01*
X157669514Y-122282685D01*
X157669514Y-122139828D01*
X157740942Y-121996971D01*
X157883800Y-121925542D01*
X158240942Y-121925542D01*
X158383800Y-121854114D01*
X159098085Y-122496971D02*
X159098085Y-121496971D01*
X159098085Y-120996971D02*
X159026657Y-121068400D01*
X159098085Y-121139828D01*
X159169514Y-121068400D01*
X159098085Y-120996971D01*
X159098085Y-121139828D01*
X160026657Y-122496971D02*
X159883800Y-122425542D01*
X159812371Y-122282685D01*
X159812371Y-120996971D01*
X142774919Y-98170838D02*
X142774919Y-97980361D01*
X142727300Y-97885123D01*
X142679680Y-97837504D01*
X142536823Y-97742266D01*
X142346347Y-97694647D01*
X141965395Y-97694647D01*
X141870157Y-97742266D01*
X141822538Y-97789885D01*
X141774919Y-97885123D01*
X141774919Y-98075600D01*
X141822538Y-98170838D01*
X141870157Y-98218457D01*
X141965395Y-98266076D01*
X142203490Y-98266076D01*
X142298728Y-98218457D01*
X142346347Y-98170838D01*
X142393966Y-98075600D01*
X142393966Y-97885123D01*
X142346347Y-97789885D01*
X142298728Y-97742266D01*
X142203490Y-97694647D01*
X142774919Y-98551790D02*
X141774919Y-98885123D01*
X142774919Y-99218457D01*
X142441585Y-100170838D02*
X142441585Y-100551790D01*
X142774919Y-100313695D02*
X141917776Y-100313695D01*
X141822538Y-100361314D01*
X141774919Y-100456552D01*
X141774919Y-100551790D01*
X141774919Y-101027980D02*
X141822538Y-100932742D01*
X141870157Y-100885123D01*
X141965395Y-100837504D01*
X142251109Y-100837504D01*
X142346347Y-100885123D01*
X142393966Y-100932742D01*
X142441585Y-101027980D01*
X142441585Y-101170838D01*
X142393966Y-101266076D01*
X142346347Y-101313695D01*
X142251109Y-101361314D01*
X141965395Y-101361314D01*
X141870157Y-101313695D01*
X141822538Y-101266076D01*
X141774919Y-101170838D01*
X141774919Y-101027980D01*
X142774919Y-102456552D02*
X142774919Y-103075600D01*
X142393966Y-102742266D01*
X142393966Y-102885123D01*
X142346347Y-102980361D01*
X142298728Y-103027980D01*
X142203490Y-103075600D01*
X141965395Y-103075600D01*
X141870157Y-103027980D01*
X141822538Y-102980361D01*
X141774919Y-102885123D01*
X141774919Y-102599409D01*
X141822538Y-102504171D01*
X141870157Y-102456552D01*
X142774919Y-103980361D02*
X142774919Y-103504171D01*
X142298728Y-103456552D01*
X142346347Y-103504171D01*
X142393966Y-103599409D01*
X142393966Y-103837504D01*
X142346347Y-103932742D01*
X142298728Y-103980361D01*
X142203490Y-104027980D01*
X141965395Y-104027980D01*
X141870157Y-103980361D01*
X141822538Y-103932742D01*
X141774919Y-103837504D01*
X141774919Y-103599409D01*
X141822538Y-103504171D01*
X141870157Y-103456552D01*
X142774919Y-104313695D02*
X141774919Y-104647028D01*
X142774919Y-104980361D01*
X141393966Y-106361314D02*
X141441585Y-106313695D01*
X141584442Y-106218457D01*
X141679680Y-106170838D01*
X141822538Y-106123219D01*
X142060633Y-106075600D01*
X142251109Y-106075600D01*
X142489204Y-106123219D01*
X142632061Y-106170838D01*
X142727300Y-106218457D01*
X142870157Y-106313695D01*
X142917776Y-106361314D01*
X141774919Y-106742266D02*
X142774919Y-106742266D01*
X142774919Y-106980361D01*
X142727300Y-107123219D01*
X142632061Y-107218457D01*
X142536823Y-107266076D01*
X142346347Y-107313695D01*
X142203490Y-107313695D01*
X142013014Y-107266076D01*
X141917776Y-107218457D01*
X141822538Y-107123219D01*
X141774919Y-106980361D01*
X141774919Y-106742266D01*
X141774919Y-107885123D02*
X141822538Y-107789885D01*
X141870157Y-107742266D01*
X141965395Y-107694647D01*
X142251109Y-107694647D01*
X142346347Y-107742266D01*
X142393966Y-107789885D01*
X142441585Y-107885123D01*
X142441585Y-108027980D01*
X142393966Y-108123219D01*
X142346347Y-108170838D01*
X142251109Y-108218457D01*
X141965395Y-108218457D01*
X141870157Y-108170838D01*
X141822538Y-108123219D01*
X141774919Y-108027980D01*
X141774919Y-107885123D01*
X142441585Y-109408933D02*
X141774919Y-109408933D01*
X142346347Y-109408933D02*
X142393966Y-109456552D01*
X142441585Y-109551790D01*
X142441585Y-109694647D01*
X142393966Y-109789885D01*
X142298728Y-109837504D01*
X141774919Y-109837504D01*
X141774919Y-110456552D02*
X141822538Y-110361314D01*
X141870157Y-110313695D01*
X141965395Y-110266076D01*
X142251109Y-110266076D01*
X142346347Y-110313695D01*
X142393966Y-110361314D01*
X142441585Y-110456552D01*
X142441585Y-110599409D01*
X142393966Y-110694647D01*
X142346347Y-110742266D01*
X142251109Y-110789885D01*
X141965395Y-110789885D01*
X141870157Y-110742266D01*
X141822538Y-110694647D01*
X141774919Y-110599409D01*
X141774919Y-110456552D01*
X142441585Y-111075600D02*
X142441585Y-111456552D01*
X142774919Y-111218457D02*
X141917776Y-111218457D01*
X141822538Y-111266076D01*
X141774919Y-111361314D01*
X141774919Y-111456552D01*
X141822538Y-112932742D02*
X141774919Y-112837504D01*
X141774919Y-112647028D01*
X141822538Y-112551790D01*
X141917776Y-112504171D01*
X142298728Y-112504171D01*
X142393966Y-112551790D01*
X142441585Y-112647028D01*
X142441585Y-112837504D01*
X142393966Y-112932742D01*
X142298728Y-112980361D01*
X142203490Y-112980361D01*
X142108252Y-112504171D01*
X141774919Y-113313695D02*
X142441585Y-113837504D01*
X142441585Y-113313695D02*
X141774919Y-113837504D01*
X141822538Y-114647028D02*
X141774919Y-114551790D01*
X141774919Y-114361314D01*
X141822538Y-114266076D01*
X141870157Y-114218457D01*
X141965395Y-114170838D01*
X142251109Y-114170838D01*
X142346347Y-114218457D01*
X142393966Y-114266076D01*
X142441585Y-114361314D01*
X142441585Y-114551790D01*
X142393966Y-114647028D01*
X141822538Y-115456552D02*
X141774919Y-115361314D01*
X141774919Y-115170838D01*
X141822538Y-115075600D01*
X141917776Y-115027980D01*
X142298728Y-115027980D01*
X142393966Y-115075600D01*
X142441585Y-115170838D01*
X142441585Y-115361314D01*
X142393966Y-115456552D01*
X142298728Y-115504171D01*
X142203490Y-115504171D01*
X142108252Y-115027980D01*
X141822538Y-116313695D02*
X141774919Y-116218457D01*
X141774919Y-116027980D01*
X141822538Y-115932742D01*
X141917776Y-115885123D01*
X142298728Y-115885123D01*
X142393966Y-115932742D01*
X142441585Y-116027980D01*
X142441585Y-116218457D01*
X142393966Y-116313695D01*
X142298728Y-116361314D01*
X142203490Y-116361314D01*
X142108252Y-115885123D01*
X141774919Y-117218457D02*
X142774919Y-117218457D01*
X141822538Y-117218457D02*
X141774919Y-117123219D01*
X141774919Y-116932742D01*
X141822538Y-116837504D01*
X141870157Y-116789885D01*
X141965395Y-116742266D01*
X142251109Y-116742266D01*
X142346347Y-116789885D01*
X142393966Y-116837504D01*
X142441585Y-116932742D01*
X142441585Y-117123219D01*
X142393966Y-117218457D01*
X142774919Y-118361314D02*
X142774919Y-118980361D01*
X142393966Y-118647028D01*
X142393966Y-118789885D01*
X142346347Y-118885123D01*
X142298728Y-118932742D01*
X142203490Y-118980361D01*
X141965395Y-118980361D01*
X141870157Y-118932742D01*
X141822538Y-118885123D01*
X141774919Y-118789885D01*
X141774919Y-118504171D01*
X141822538Y-118408933D01*
X141870157Y-118361314D01*
X142774919Y-119885123D02*
X142774919Y-119408933D01*
X142298728Y-119361314D01*
X142346347Y-119408933D01*
X142393966Y-119504171D01*
X142393966Y-119742266D01*
X142346347Y-119837504D01*
X142298728Y-119885123D01*
X142203490Y-119932742D01*
X141965395Y-119932742D01*
X141870157Y-119885123D01*
X141822538Y-119837504D01*
X141774919Y-119742266D01*
X141774919Y-119504171D01*
X141822538Y-119408933D01*
X141870157Y-119361314D01*
X142774919Y-120218457D02*
X141774919Y-120551790D01*
X142774919Y-120885123D01*
X141393966Y-121123219D02*
X141441585Y-121170838D01*
X141584442Y-121266076D01*
X141679680Y-121313695D01*
X141822538Y-121361314D01*
X142060633Y-121408933D01*
X142251109Y-121408933D01*
X142489204Y-121361314D01*
X142632061Y-121313695D01*
X142727300Y-121266076D01*
X142870157Y-121170838D01*
X142917776Y-121123219D01*
X165665666Y-81570366D02*
X165665666Y-81237033D01*
X165749000Y-81070366D01*
X165915666Y-80903700D01*
X166249000Y-80820366D01*
X166832333Y-80820366D01*
X167165666Y-80903700D01*
X167332333Y-81070366D01*
X167415666Y-81237033D01*
X167415666Y-81570366D01*
X167332333Y-81737033D01*
X167165666Y-81903700D01*
X166832333Y-81987033D01*
X166249000Y-81987033D01*
X165915666Y-81903700D01*
X165749000Y-81737033D01*
X165665666Y-81570366D01*
X166249000Y-80320366D02*
X166249000Y-79653700D01*
X167415666Y-80070366D02*
X165915666Y-80070366D01*
X165749000Y-79987033D01*
X165665666Y-79820366D01*
X165665666Y-79653700D01*
X166249000Y-79320366D02*
X166249000Y-78653700D01*
X167415666Y-79070366D02*
X165915666Y-79070366D01*
X165749000Y-78987033D01*
X165665666Y-78820366D01*
X165665666Y-78653700D01*
X165589466Y-94366833D02*
X165589466Y-94033500D01*
X165672800Y-93866833D01*
X165839466Y-93700166D01*
X166172800Y-93616833D01*
X166756133Y-93616833D01*
X167089466Y-93700166D01*
X167256133Y-93866833D01*
X167339466Y-94033500D01*
X167339466Y-94366833D01*
X167256133Y-94533500D01*
X167089466Y-94700166D01*
X166756133Y-94783500D01*
X166172800Y-94783500D01*
X165839466Y-94700166D01*
X165672800Y-94533500D01*
X165589466Y-94366833D01*
X166172800Y-92866833D02*
X167339466Y-92866833D01*
X166339466Y-92866833D02*
X166256133Y-92783500D01*
X166172800Y-92616833D01*
X166172800Y-92366833D01*
X166256133Y-92200166D01*
X166422800Y-92116833D01*
X167339466Y-92116833D01*
D11*
X142856925Y-94909300D02*
X142856925Y-95409300D01*
X142606925Y-95159300D02*
X143106925Y-95159300D01*
X148012700Y-96350300D02*
X148012700Y-96918300D01*
X147972700Y-96116300D02*
X147972700Y-97152300D01*
X147932700Y-95957300D02*
X147932700Y-97311300D01*
X147892700Y-95829300D02*
X147892700Y-97439300D01*
X147852700Y-95719300D02*
X147852700Y-97549300D01*
X147812700Y-95623300D02*
X147812700Y-97645300D01*
X147772700Y-95536300D02*
X147772700Y-97732300D01*
X147732700Y-95456300D02*
X147732700Y-97812300D01*
X147692700Y-95383300D02*
X147692700Y-97885300D01*
X147652700Y-95315300D02*
X147652700Y-97953300D01*
X147612700Y-95251300D02*
X147612700Y-98017300D01*
X147572700Y-95191300D02*
X147572700Y-98077300D01*
X147532700Y-95134300D02*
X147532700Y-98134300D01*
X147492700Y-95080300D02*
X147492700Y-98188300D01*
X147452700Y-95029300D02*
X147452700Y-98239300D01*
X147412700Y-97674300D02*
X147412700Y-98287300D01*
X147412700Y-94981300D02*
X147412700Y-95594300D01*
X147372700Y-97674300D02*
X147372700Y-98333300D01*
X147372700Y-94935300D02*
X147372700Y-95594300D01*
X147332700Y-97674300D02*
X147332700Y-98377300D01*
X147332700Y-94891300D02*
X147332700Y-95594300D01*
X147292700Y-97674300D02*
X147292700Y-98419300D01*
X147292700Y-94849300D02*
X147292700Y-95594300D01*
X147252700Y-97674300D02*
X147252700Y-98460300D01*
X147252700Y-94808300D02*
X147252700Y-95594300D01*
X147212700Y-97674300D02*
X147212700Y-98498300D01*
X147212700Y-94770300D02*
X147212700Y-95594300D01*
X147172700Y-97674300D02*
X147172700Y-98535300D01*
X147172700Y-94733300D02*
X147172700Y-95594300D01*
X147132700Y-97674300D02*
X147132700Y-98571300D01*
X147132700Y-94697300D02*
X147132700Y-95594300D01*
X147092700Y-97674300D02*
X147092700Y-98605300D01*
X147092700Y-94663300D02*
X147092700Y-95594300D01*
X147052700Y-97674300D02*
X147052700Y-98638300D01*
X147052700Y-94630300D02*
X147052700Y-95594300D01*
X147012700Y-97674300D02*
X147012700Y-98669300D01*
X147012700Y-94599300D02*
X147012700Y-95594300D01*
X146972700Y-97674300D02*
X146972700Y-98699300D01*
X146972700Y-94569300D02*
X146972700Y-95594300D01*
X146932700Y-97674300D02*
X146932700Y-98729300D01*
X146932700Y-94539300D02*
X146932700Y-95594300D01*
X146892700Y-97674300D02*
X146892700Y-98756300D01*
X146892700Y-94512300D02*
X146892700Y-95594300D01*
X146852700Y-97674300D02*
X146852700Y-98783300D01*
X146852700Y-94485300D02*
X146852700Y-95594300D01*
X146812700Y-97674300D02*
X146812700Y-98809300D01*
X146812700Y-94459300D02*
X146812700Y-95594300D01*
X146772700Y-97674300D02*
X146772700Y-98834300D01*
X146772700Y-94434300D02*
X146772700Y-95594300D01*
X146732700Y-97674300D02*
X146732700Y-98858300D01*
X146732700Y-94410300D02*
X146732700Y-95594300D01*
X146692700Y-97674300D02*
X146692700Y-98881300D01*
X146692700Y-94387300D02*
X146692700Y-95594300D01*
X146652700Y-97674300D02*
X146652700Y-98902300D01*
X146652700Y-94366300D02*
X146652700Y-95594300D01*
X146612700Y-97674300D02*
X146612700Y-98924300D01*
X146612700Y-94344300D02*
X146612700Y-95594300D01*
X146572700Y-97674300D02*
X146572700Y-98944300D01*
X146572700Y-94324300D02*
X146572700Y-95594300D01*
X146532700Y-97674300D02*
X146532700Y-98963300D01*
X146532700Y-94305300D02*
X146532700Y-95594300D01*
X146492700Y-97674300D02*
X146492700Y-98982300D01*
X146492700Y-94286300D02*
X146492700Y-95594300D01*
X146452700Y-97674300D02*
X146452700Y-98999300D01*
X146452700Y-94269300D02*
X146452700Y-95594300D01*
X146412700Y-97674300D02*
X146412700Y-99016300D01*
X146412700Y-94252300D02*
X146412700Y-95594300D01*
X146372700Y-97674300D02*
X146372700Y-99032300D01*
X146372700Y-94236300D02*
X146372700Y-95594300D01*
X146332700Y-97674300D02*
X146332700Y-99048300D01*
X146332700Y-94220300D02*
X146332700Y-95594300D01*
X146292700Y-97674300D02*
X146292700Y-99062300D01*
X146292700Y-94206300D02*
X146292700Y-95594300D01*
X146252700Y-97674300D02*
X146252700Y-99076300D01*
X146252700Y-94192300D02*
X146252700Y-95594300D01*
X146212700Y-97674300D02*
X146212700Y-99089300D01*
X146212700Y-94179300D02*
X146212700Y-95594300D01*
X146172700Y-97674300D02*
X146172700Y-99102300D01*
X146172700Y-94166300D02*
X146172700Y-95594300D01*
X146132700Y-97674300D02*
X146132700Y-99114300D01*
X146132700Y-94154300D02*
X146132700Y-95594300D01*
X146091700Y-97674300D02*
X146091700Y-99125300D01*
X146091700Y-94143300D02*
X146091700Y-95594300D01*
X146051700Y-97674300D02*
X146051700Y-99135300D01*
X146051700Y-94133300D02*
X146051700Y-95594300D01*
X146011700Y-97674300D02*
X146011700Y-99145300D01*
X146011700Y-94123300D02*
X146011700Y-95594300D01*
X145971700Y-97674300D02*
X145971700Y-99154300D01*
X145971700Y-94114300D02*
X145971700Y-95594300D01*
X145931700Y-97674300D02*
X145931700Y-99162300D01*
X145931700Y-94106300D02*
X145931700Y-95594300D01*
X145891700Y-97674300D02*
X145891700Y-99170300D01*
X145891700Y-94098300D02*
X145891700Y-95594300D01*
X145851700Y-97674300D02*
X145851700Y-99177300D01*
X145851700Y-94091300D02*
X145851700Y-95594300D01*
X145811700Y-97674300D02*
X145811700Y-99184300D01*
X145811700Y-94084300D02*
X145811700Y-95594300D01*
X145771700Y-97674300D02*
X145771700Y-99190300D01*
X145771700Y-94078300D02*
X145771700Y-95594300D01*
X145731700Y-97674300D02*
X145731700Y-99195300D01*
X145731700Y-94073300D02*
X145731700Y-95594300D01*
X145691700Y-97674300D02*
X145691700Y-99199300D01*
X145691700Y-94069300D02*
X145691700Y-95594300D01*
X145651700Y-97674300D02*
X145651700Y-99203300D01*
X145651700Y-94065300D02*
X145651700Y-95594300D01*
X145611700Y-97674300D02*
X145611700Y-99207300D01*
X145611700Y-94061300D02*
X145611700Y-95594300D01*
X145571700Y-97674300D02*
X145571700Y-99210300D01*
X145571700Y-94058300D02*
X145571700Y-95594300D01*
X145531700Y-97674300D02*
X145531700Y-99212300D01*
X145531700Y-94056300D02*
X145531700Y-95594300D01*
X145491700Y-97674300D02*
X145491700Y-99213300D01*
X145491700Y-94055300D02*
X145491700Y-95594300D01*
X145451700Y-94054300D02*
X145451700Y-95594300D01*
X145451700Y-97674300D02*
X145451700Y-99214300D01*
X145411700Y-94054300D02*
X145411700Y-95594300D01*
X145411700Y-97674300D02*
X145411700Y-99214300D01*
X148031700Y-96634300D02*
G75*
G03X148031700Y-96634300I-2620000J0D01*
G01*
X169989500Y-109791500D02*
G75*
G03X169989500Y-109791500I-5120000J0D01*
G01*
X164869500Y-104711500D02*
X164869500Y-114871500D01*
X164909500Y-104711500D02*
X164909500Y-114871500D01*
X164949500Y-104711500D02*
X164949500Y-114871500D01*
X164989500Y-104712500D02*
X164989500Y-114870500D01*
X165029500Y-104713500D02*
X165029500Y-114869500D01*
X165069500Y-104714500D02*
X165069500Y-114868500D01*
X165109500Y-104716500D02*
X165109500Y-114866500D01*
X165149500Y-104718500D02*
X165149500Y-114864500D01*
X165189500Y-104721500D02*
X165189500Y-114861500D01*
X165229500Y-104723500D02*
X165229500Y-114859500D01*
X165269500Y-104726500D02*
X165269500Y-114856500D01*
X165309500Y-104729500D02*
X165309500Y-114853500D01*
X165349500Y-104733500D02*
X165349500Y-114849500D01*
X165389500Y-104737500D02*
X165389500Y-114845500D01*
X165429500Y-104741500D02*
X165429500Y-114841500D01*
X165469500Y-104746500D02*
X165469500Y-114836500D01*
X165509500Y-104751500D02*
X165509500Y-114831500D01*
X165549500Y-104756500D02*
X165549500Y-114826500D01*
X165590500Y-104761500D02*
X165590500Y-114821500D01*
X165630500Y-104767500D02*
X165630500Y-114815500D01*
X165670500Y-104773500D02*
X165670500Y-114809500D01*
X165710500Y-104780500D02*
X165710500Y-114802500D01*
X165750500Y-104787500D02*
X165750500Y-114795500D01*
X165790500Y-104794500D02*
X165790500Y-114788500D01*
X165830500Y-104801500D02*
X165830500Y-114781500D01*
X165870500Y-104809500D02*
X165870500Y-114773500D01*
X165910500Y-104817500D02*
X165910500Y-114765500D01*
X165950500Y-104826500D02*
X165950500Y-114756500D01*
X165990500Y-104835500D02*
X165990500Y-114747500D01*
X166030500Y-104844500D02*
X166030500Y-114738500D01*
X166070500Y-104853500D02*
X166070500Y-114729500D01*
X166110500Y-104863500D02*
X166110500Y-114719500D01*
X166150500Y-104873500D02*
X166150500Y-108550500D01*
X166150500Y-111032500D02*
X166150500Y-114709500D01*
X166190500Y-104884500D02*
X166190500Y-108550500D01*
X166190500Y-111032500D02*
X166190500Y-114698500D01*
X166230500Y-104894500D02*
X166230500Y-108550500D01*
X166230500Y-111032500D02*
X166230500Y-114688500D01*
X166270500Y-104906500D02*
X166270500Y-108550500D01*
X166270500Y-111032500D02*
X166270500Y-114676500D01*
X166310500Y-104917500D02*
X166310500Y-108550500D01*
X166310500Y-111032500D02*
X166310500Y-114665500D01*
X166350500Y-104929500D02*
X166350500Y-108550500D01*
X166350500Y-111032500D02*
X166350500Y-114653500D01*
X166390500Y-104941500D02*
X166390500Y-108550500D01*
X166390500Y-111032500D02*
X166390500Y-114641500D01*
X166430500Y-104954500D02*
X166430500Y-108550500D01*
X166430500Y-111032500D02*
X166430500Y-114628500D01*
X166470500Y-104967500D02*
X166470500Y-108550500D01*
X166470500Y-111032500D02*
X166470500Y-114615500D01*
X166510500Y-104980500D02*
X166510500Y-108550500D01*
X166510500Y-111032500D02*
X166510500Y-114602500D01*
X166550500Y-104994500D02*
X166550500Y-108550500D01*
X166550500Y-111032500D02*
X166550500Y-114588500D01*
X166590500Y-105008500D02*
X166590500Y-108550500D01*
X166590500Y-111032500D02*
X166590500Y-114574500D01*
X166630500Y-105023500D02*
X166630500Y-108550500D01*
X166630500Y-111032500D02*
X166630500Y-114559500D01*
X166670500Y-105037500D02*
X166670500Y-108550500D01*
X166670500Y-111032500D02*
X166670500Y-114545500D01*
X166710500Y-105053500D02*
X166710500Y-108550500D01*
X166710500Y-111032500D02*
X166710500Y-114529500D01*
X166750500Y-105068500D02*
X166750500Y-108550500D01*
X166750500Y-111032500D02*
X166750500Y-114514500D01*
X166790500Y-105084500D02*
X166790500Y-108550500D01*
X166790500Y-111032500D02*
X166790500Y-114498500D01*
X166830500Y-105101500D02*
X166830500Y-108550500D01*
X166830500Y-111032500D02*
X166830500Y-114481500D01*
X166870500Y-105117500D02*
X166870500Y-108550500D01*
X166870500Y-111032500D02*
X166870500Y-114465500D01*
X166910500Y-105134500D02*
X166910500Y-108550500D01*
X166910500Y-111032500D02*
X166910500Y-114448500D01*
X166950500Y-105152500D02*
X166950500Y-108550500D01*
X166950500Y-111032500D02*
X166950500Y-114430500D01*
X166990500Y-105170500D02*
X166990500Y-108550500D01*
X166990500Y-111032500D02*
X166990500Y-114412500D01*
X167030500Y-105188500D02*
X167030500Y-108550500D01*
X167030500Y-111032500D02*
X167030500Y-114394500D01*
X167070500Y-105207500D02*
X167070500Y-108550500D01*
X167070500Y-111032500D02*
X167070500Y-114375500D01*
X167110500Y-105227500D02*
X167110500Y-108550500D01*
X167110500Y-111032500D02*
X167110500Y-114355500D01*
X167150500Y-105246500D02*
X167150500Y-108550500D01*
X167150500Y-111032500D02*
X167150500Y-114336500D01*
X167190500Y-105266500D02*
X167190500Y-108550500D01*
X167190500Y-111032500D02*
X167190500Y-114316500D01*
X167230500Y-105287500D02*
X167230500Y-108550500D01*
X167230500Y-111032500D02*
X167230500Y-114295500D01*
X167270500Y-105308500D02*
X167270500Y-108550500D01*
X167270500Y-111032500D02*
X167270500Y-114274500D01*
X167310500Y-105329500D02*
X167310500Y-108550500D01*
X167310500Y-111032500D02*
X167310500Y-114253500D01*
X167350500Y-105351500D02*
X167350500Y-108550500D01*
X167350500Y-111032500D02*
X167350500Y-114231500D01*
X167390500Y-105374500D02*
X167390500Y-108550500D01*
X167390500Y-111032500D02*
X167390500Y-114208500D01*
X167430500Y-105396500D02*
X167430500Y-108550500D01*
X167430500Y-111032500D02*
X167430500Y-114186500D01*
X167470500Y-105420500D02*
X167470500Y-108550500D01*
X167470500Y-111032500D02*
X167470500Y-114162500D01*
X167510500Y-105444500D02*
X167510500Y-108550500D01*
X167510500Y-111032500D02*
X167510500Y-114138500D01*
X167550500Y-105468500D02*
X167550500Y-108550500D01*
X167550500Y-111032500D02*
X167550500Y-114114500D01*
X167590500Y-105493500D02*
X167590500Y-108550500D01*
X167590500Y-111032500D02*
X167590500Y-114089500D01*
X167630500Y-105518500D02*
X167630500Y-108550500D01*
X167630500Y-111032500D02*
X167630500Y-114064500D01*
X167670500Y-105544500D02*
X167670500Y-108550500D01*
X167670500Y-111032500D02*
X167670500Y-114038500D01*
X167710500Y-105570500D02*
X167710500Y-108550500D01*
X167710500Y-111032500D02*
X167710500Y-114012500D01*
X167750500Y-105597500D02*
X167750500Y-108550500D01*
X167750500Y-111032500D02*
X167750500Y-113985500D01*
X167790500Y-105625500D02*
X167790500Y-108550500D01*
X167790500Y-111032500D02*
X167790500Y-113957500D01*
X167830500Y-105653500D02*
X167830500Y-108550500D01*
X167830500Y-111032500D02*
X167830500Y-113929500D01*
X167870500Y-105681500D02*
X167870500Y-108550500D01*
X167870500Y-111032500D02*
X167870500Y-113901500D01*
X167910500Y-105711500D02*
X167910500Y-108550500D01*
X167910500Y-111032500D02*
X167910500Y-113871500D01*
X167950500Y-105741500D02*
X167950500Y-108550500D01*
X167950500Y-111032500D02*
X167950500Y-113841500D01*
X167990500Y-105771500D02*
X167990500Y-108550500D01*
X167990500Y-111032500D02*
X167990500Y-113811500D01*
X168030500Y-105802500D02*
X168030500Y-108550500D01*
X168030500Y-111032500D02*
X168030500Y-113780500D01*
X168070500Y-105834500D02*
X168070500Y-108550500D01*
X168070500Y-111032500D02*
X168070500Y-113748500D01*
X168110500Y-105866500D02*
X168110500Y-108550500D01*
X168110500Y-111032500D02*
X168110500Y-113716500D01*
X168150500Y-105899500D02*
X168150500Y-108550500D01*
X168150500Y-111032500D02*
X168150500Y-113683500D01*
X168190500Y-105933500D02*
X168190500Y-108550500D01*
X168190500Y-111032500D02*
X168190500Y-113649500D01*
X168230500Y-105967500D02*
X168230500Y-108550500D01*
X168230500Y-111032500D02*
X168230500Y-113615500D01*
X168270500Y-106002500D02*
X168270500Y-108550500D01*
X168270500Y-111032500D02*
X168270500Y-113580500D01*
X168310500Y-106038500D02*
X168310500Y-108550500D01*
X168310500Y-111032500D02*
X168310500Y-113544500D01*
X168350500Y-106075500D02*
X168350500Y-108550500D01*
X168350500Y-111032500D02*
X168350500Y-113507500D01*
X168390500Y-106112500D02*
X168390500Y-108550500D01*
X168390500Y-111032500D02*
X168390500Y-113470500D01*
X168430500Y-106151500D02*
X168430500Y-108550500D01*
X168430500Y-111032500D02*
X168430500Y-113431500D01*
X168470500Y-106190500D02*
X168470500Y-108550500D01*
X168470500Y-111032500D02*
X168470500Y-113392500D01*
X168510500Y-106230500D02*
X168510500Y-108550500D01*
X168510500Y-111032500D02*
X168510500Y-113352500D01*
X168550500Y-106271500D02*
X168550500Y-108550500D01*
X168550500Y-111032500D02*
X168550500Y-113311500D01*
X168590500Y-106313500D02*
X168590500Y-108550500D01*
X168590500Y-111032500D02*
X168590500Y-113269500D01*
X168630500Y-106355500D02*
X168630500Y-113227500D01*
X168670500Y-106399500D02*
X168670500Y-113183500D01*
X168710500Y-106444500D02*
X168710500Y-113138500D01*
X168750500Y-106490500D02*
X168750500Y-113092500D01*
X168790500Y-106537500D02*
X168790500Y-113045500D01*
X168830500Y-106585500D02*
X168830500Y-112997500D01*
X168870500Y-106635500D02*
X168870500Y-112947500D01*
X168910500Y-106685500D02*
X168910500Y-112897500D01*
X168950500Y-106737500D02*
X168950500Y-112845500D01*
X168990500Y-106791500D02*
X168990500Y-112791500D01*
X169030500Y-106846500D02*
X169030500Y-112736500D01*
X169070500Y-106902500D02*
X169070500Y-112680500D01*
X169110500Y-106961500D02*
X169110500Y-112621500D01*
X169150500Y-107021500D02*
X169150500Y-112561500D01*
X169190500Y-107082500D02*
X169190500Y-112500500D01*
X169230500Y-107146500D02*
X169230500Y-112436500D01*
X169270500Y-107212500D02*
X169270500Y-112370500D01*
X169310500Y-107281500D02*
X169310500Y-112301500D01*
X169350500Y-107352500D02*
X169350500Y-112230500D01*
X169390500Y-107426500D02*
X169390500Y-112156500D01*
X169430500Y-107502500D02*
X169430500Y-112080500D01*
X169470500Y-107582500D02*
X169470500Y-112000500D01*
X169510500Y-107666500D02*
X169510500Y-111916500D01*
X169550500Y-107754500D02*
X169550500Y-111828500D01*
X169590500Y-107847500D02*
X169590500Y-111735500D01*
X169630500Y-107945500D02*
X169630500Y-111637500D01*
X169670500Y-108049500D02*
X169670500Y-111533500D01*
X169710500Y-108161500D02*
X169710500Y-111421500D01*
X169750500Y-108281500D02*
X169750500Y-111301500D01*
X169790500Y-108413500D02*
X169790500Y-111169500D01*
X169830500Y-108561500D02*
X169830500Y-111021500D01*
X169870500Y-108729500D02*
X169870500Y-110853500D01*
X169910500Y-108929500D02*
X169910500Y-110653500D01*
X169950500Y-109192500D02*
X169950500Y-110390500D01*
X159389854Y-106916500D02*
X160389854Y-106916500D01*
X159889854Y-106416500D02*
X159889854Y-107416500D01*
X153271000Y-101222200D02*
X153271000Y-104162200D01*
X153271000Y-104162200D02*
X158711000Y-104162200D01*
X158711000Y-104162200D02*
X158711000Y-101222200D01*
X158711000Y-101222200D02*
X153271000Y-101222200D01*
X152251000Y-102692200D02*
X153271000Y-102692200D01*
X159731000Y-102692200D02*
X158711000Y-102692200D01*
X154171000Y-101222200D02*
X154171000Y-104162200D01*
X154291000Y-101222200D02*
X154291000Y-104162200D01*
X154051000Y-101222200D02*
X154051000Y-104162200D01*
X154051000Y-95599675D02*
X154051000Y-98539675D01*
X154291000Y-95599675D02*
X154291000Y-98539675D01*
X154171000Y-95599675D02*
X154171000Y-98539675D01*
X159731000Y-97069675D02*
X158711000Y-97069675D01*
X152251000Y-97069675D02*
X153271000Y-97069675D01*
X158711000Y-95599675D02*
X153271000Y-95599675D01*
X158711000Y-98539675D02*
X158711000Y-95599675D01*
X153271000Y-98539675D02*
X158711000Y-98539675D01*
X153271000Y-95599675D02*
X153271000Y-98539675D01*
X153271000Y-89977150D02*
X153271000Y-92917150D01*
X153271000Y-92917150D02*
X158711000Y-92917150D01*
X158711000Y-92917150D02*
X158711000Y-89977150D01*
X158711000Y-89977150D02*
X153271000Y-89977150D01*
X152251000Y-91447150D02*
X153271000Y-91447150D01*
X159731000Y-91447150D02*
X158711000Y-91447150D01*
X154171000Y-89977150D02*
X154171000Y-92917150D01*
X154291000Y-89977150D02*
X154291000Y-92917150D01*
X154051000Y-89977150D02*
X154051000Y-92917150D01*
X154051000Y-84354625D02*
X154051000Y-87294625D01*
X154291000Y-84354625D02*
X154291000Y-87294625D01*
X154171000Y-84354625D02*
X154171000Y-87294625D01*
X159731000Y-85824625D02*
X158711000Y-85824625D01*
X152251000Y-85824625D02*
X153271000Y-85824625D01*
X158711000Y-84354625D02*
X153271000Y-84354625D01*
X158711000Y-87294625D02*
X158711000Y-84354625D01*
X153271000Y-87294625D02*
X158711000Y-87294625D01*
X153271000Y-84354625D02*
X153271000Y-87294625D01*
X165621592Y-95812865D02*
G75*
G03X165464684Y-99045200I1078608J-1672335D01*
G01*
X167778808Y-95812865D02*
G75*
G02X167935716Y-99045200I-1078608J-1672335D01*
G01*
X165620363Y-96444070D02*
G75*
G03X165620200Y-98526161I1079837J-1041130D01*
G01*
X167780037Y-96444070D02*
G75*
G02X167780200Y-98526161I-1079837J-1041130D01*
G01*
X165464200Y-99045200D02*
X165620200Y-99045200D01*
X167780200Y-99045200D02*
X167936200Y-99045200D01*
X152013300Y-115559900D02*
X143513300Y-115559900D01*
X143513300Y-115559900D02*
X143513300Y-106359900D01*
X143513300Y-106359900D02*
X158213300Y-106359900D01*
X158213300Y-113459900D02*
X158213300Y-115559900D01*
X158213300Y-115559900D02*
X156413300Y-115559900D01*
X158513300Y-107759900D02*
X158513300Y-106059900D01*
X158513300Y-106059900D02*
X156913300Y-106059900D01*
X158213300Y-106359900D02*
X158213300Y-108459900D01*
X146057500Y-123161100D02*
X151257500Y-123161100D01*
X146057500Y-120561100D02*
X146057500Y-123161100D01*
X151257500Y-117961100D02*
X151257500Y-123161100D01*
X146057500Y-120561100D02*
X148657500Y-120561100D01*
X148657500Y-120561100D02*
X148657500Y-117961100D01*
X148657500Y-117961100D02*
X151257500Y-117961100D01*
X146057500Y-119291100D02*
X146057500Y-117961100D01*
X146057500Y-117961100D02*
X147387500Y-117961100D01*
X161005400Y-72977700D02*
X162335400Y-72977700D01*
X161005400Y-74307700D02*
X161005400Y-72977700D01*
X163605400Y-72977700D02*
X166205400Y-72977700D01*
X163605400Y-75577700D02*
X163605400Y-72977700D01*
X161005400Y-75577700D02*
X163605400Y-75577700D01*
X166205400Y-72977700D02*
X166205400Y-78177700D01*
X161005400Y-75577700D02*
X161005400Y-78177700D01*
X161005400Y-78177700D02*
X166205400Y-78177700D01*
X146057500Y-72977700D02*
X147387500Y-72977700D01*
X146057500Y-74307700D02*
X146057500Y-72977700D01*
X148657500Y-72977700D02*
X151257500Y-72977700D01*
X148657500Y-75577700D02*
X148657500Y-72977700D01*
X146057500Y-75577700D02*
X148657500Y-75577700D01*
X151257500Y-72977700D02*
X151257500Y-78177700D01*
X146057500Y-75577700D02*
X146057500Y-78177700D01*
X146057500Y-78177700D02*
X151257500Y-78177700D01*
X161068900Y-123161100D02*
X166268900Y-123161100D01*
X161068900Y-120561100D02*
X161068900Y-123161100D01*
X166268900Y-117961100D02*
X166268900Y-123161100D01*
X161068900Y-120561100D02*
X163668900Y-120561100D01*
X163668900Y-120561100D02*
X163668900Y-117961100D01*
X163668900Y-117961100D02*
X166268900Y-117961100D01*
X161068900Y-119291100D02*
X161068900Y-117961100D01*
X161068900Y-117961100D02*
X162398900Y-117961100D01*
X154291000Y-79262100D02*
X154291000Y-78932100D01*
X154291000Y-78932100D02*
X160831000Y-78932100D01*
X160831000Y-78932100D02*
X160831000Y-79262100D01*
X154291000Y-81342100D02*
X154291000Y-81672100D01*
X154291000Y-81672100D02*
X160831000Y-81672100D01*
X160831000Y-81672100D02*
X160831000Y-81342100D01*
X168834500Y-82270900D02*
X167634500Y-82270900D01*
X168834500Y-83470900D02*
X168834500Y-82270900D01*
X164334500Y-91770900D02*
X164334500Y-90570900D01*
X168534500Y-91770900D02*
X164334500Y-91770900D01*
X168534500Y-90570900D02*
X168534500Y-91770900D01*
X164334500Y-82570900D02*
X164334500Y-83770900D01*
X168534500Y-82570900D02*
X164334500Y-82570900D01*
X168534500Y-83770900D02*
X168534500Y-82570900D01*
X142843500Y-92242000D02*
X142843500Y-82002000D01*
X147484500Y-92242000D02*
X147484500Y-82002000D01*
X142843500Y-92242000D02*
X147484500Y-92242000D01*
X142843500Y-82002000D02*
X147484500Y-82002000D01*
X144353500Y-92242000D02*
X144353500Y-82002000D01*
X142843500Y-88972000D02*
X144353500Y-88972000D01*
X142843500Y-85271000D02*
X144353500Y-85271000D01*
D10*
X145245033Y-93741442D02*
X145197414Y-93789061D01*
X145054557Y-93836680D01*
X144959319Y-93836680D01*
X144816461Y-93789061D01*
X144721223Y-93693823D01*
X144673604Y-93598585D01*
X144625985Y-93408109D01*
X144625985Y-93265252D01*
X144673604Y-93074776D01*
X144721223Y-92979538D01*
X144816461Y-92884300D01*
X144959319Y-92836680D01*
X145054557Y-92836680D01*
X145197414Y-92884300D01*
X145245033Y-92931919D01*
X145625985Y-92931919D02*
X145673604Y-92884300D01*
X145768842Y-92836680D01*
X146006938Y-92836680D01*
X146102176Y-92884300D01*
X146149795Y-92931919D01*
X146197414Y-93027157D01*
X146197414Y-93122395D01*
X146149795Y-93265252D01*
X145578366Y-93836680D01*
X146197414Y-93836680D01*
X164702833Y-103898642D02*
X164655214Y-103946261D01*
X164512357Y-103993880D01*
X164417119Y-103993880D01*
X164274261Y-103946261D01*
X164179023Y-103851023D01*
X164131404Y-103755785D01*
X164083785Y-103565309D01*
X164083785Y-103422452D01*
X164131404Y-103231976D01*
X164179023Y-103136738D01*
X164274261Y-103041500D01*
X164417119Y-102993880D01*
X164512357Y-102993880D01*
X164655214Y-103041500D01*
X164702833Y-103089119D01*
X165655214Y-103993880D02*
X165083785Y-103993880D01*
X165369500Y-103993880D02*
X165369500Y-102993880D01*
X165274261Y-103136738D01*
X165179023Y-103231976D01*
X165083785Y-103279595D01*
X155252904Y-100674580D02*
X155252904Y-99674580D01*
X155491000Y-99674580D01*
X155633857Y-99722200D01*
X155729095Y-99817438D01*
X155776714Y-99912676D01*
X155824333Y-100103152D01*
X155824333Y-100246009D01*
X155776714Y-100436485D01*
X155729095Y-100531723D01*
X155633857Y-100626961D01*
X155491000Y-100674580D01*
X155252904Y-100674580D01*
X156776714Y-100674580D02*
X156205285Y-100674580D01*
X156491000Y-100674580D02*
X156491000Y-99674580D01*
X156395761Y-99817438D01*
X156300523Y-99912676D01*
X156205285Y-99960295D01*
X150649095Y-101044580D02*
X150649095Y-100044580D01*
X151220523Y-101044580D02*
X150791952Y-100473152D01*
X151220523Y-100044580D02*
X150649095Y-100616009D01*
X155252904Y-95052055D02*
X155252904Y-94052055D01*
X155491000Y-94052055D01*
X155633857Y-94099675D01*
X155729095Y-94194913D01*
X155776714Y-94290151D01*
X155824333Y-94480627D01*
X155824333Y-94623484D01*
X155776714Y-94813960D01*
X155729095Y-94909198D01*
X155633857Y-95004436D01*
X155491000Y-95052055D01*
X155252904Y-95052055D01*
X156205285Y-94147294D02*
X156252904Y-94099675D01*
X156348142Y-94052055D01*
X156586238Y-94052055D01*
X156681476Y-94099675D01*
X156729095Y-94147294D01*
X156776714Y-94242532D01*
X156776714Y-94337770D01*
X156729095Y-94480627D01*
X156157666Y-95052055D01*
X156776714Y-95052055D01*
X150649095Y-95422055D02*
X150649095Y-94422055D01*
X151220523Y-95422055D02*
X150791952Y-94850627D01*
X151220523Y-94422055D02*
X150649095Y-94993484D01*
X155252904Y-89429530D02*
X155252904Y-88429530D01*
X155491000Y-88429530D01*
X155633857Y-88477150D01*
X155729095Y-88572388D01*
X155776714Y-88667626D01*
X155824333Y-88858102D01*
X155824333Y-89000959D01*
X155776714Y-89191435D01*
X155729095Y-89286673D01*
X155633857Y-89381911D01*
X155491000Y-89429530D01*
X155252904Y-89429530D01*
X156157666Y-88429530D02*
X156776714Y-88429530D01*
X156443380Y-88810483D01*
X156586238Y-88810483D01*
X156681476Y-88858102D01*
X156729095Y-88905721D01*
X156776714Y-89000959D01*
X156776714Y-89239054D01*
X156729095Y-89334292D01*
X156681476Y-89381911D01*
X156586238Y-89429530D01*
X156300523Y-89429530D01*
X156205285Y-89381911D01*
X156157666Y-89334292D01*
X150649095Y-89799530D02*
X150649095Y-88799530D01*
X151220523Y-89799530D02*
X150791952Y-89228102D01*
X151220523Y-88799530D02*
X150649095Y-89370959D01*
X155252904Y-83807005D02*
X155252904Y-82807005D01*
X155491000Y-82807005D01*
X155633857Y-82854625D01*
X155729095Y-82949863D01*
X155776714Y-83045101D01*
X155824333Y-83235577D01*
X155824333Y-83378434D01*
X155776714Y-83568910D01*
X155729095Y-83664148D01*
X155633857Y-83759386D01*
X155491000Y-83807005D01*
X155252904Y-83807005D01*
X156681476Y-83140339D02*
X156681476Y-83807005D01*
X156443380Y-82759386D02*
X156205285Y-83473672D01*
X156824333Y-83473672D01*
X150649095Y-84177005D02*
X150649095Y-83177005D01*
X151220523Y-84177005D02*
X150791952Y-83605577D01*
X151220523Y-83177005D02*
X150649095Y-83748434D01*
X164192580Y-98223295D02*
X163192580Y-98223295D01*
X163192580Y-97985200D01*
X163240200Y-97842342D01*
X163335438Y-97747104D01*
X163430676Y-97699485D01*
X163621152Y-97651866D01*
X163764009Y-97651866D01*
X163954485Y-97699485D01*
X164049723Y-97747104D01*
X164144961Y-97842342D01*
X164192580Y-97985200D01*
X164192580Y-98223295D01*
X163192580Y-96747104D02*
X163192580Y-97223295D01*
X163668771Y-97270914D01*
X163621152Y-97223295D01*
X163573533Y-97128057D01*
X163573533Y-96889961D01*
X163621152Y-96794723D01*
X163668771Y-96747104D01*
X163764009Y-96699485D01*
X164002104Y-96699485D01*
X164097342Y-96747104D01*
X164144961Y-96794723D01*
X164192580Y-96889961D01*
X164192580Y-97128057D01*
X164144961Y-97223295D01*
X164097342Y-97270914D01*
X153643080Y-111420233D02*
X154357366Y-111420233D01*
X154500223Y-111467852D01*
X154595461Y-111563090D01*
X154643080Y-111705947D01*
X154643080Y-111801185D01*
X154643080Y-110420233D02*
X154643080Y-110991661D01*
X154643080Y-110705947D02*
X153643080Y-110705947D01*
X153785938Y-110801185D01*
X153881176Y-110896423D01*
X153928795Y-110991661D01*
X158316633Y-82989680D02*
X157983300Y-82513490D01*
X157745204Y-82989680D02*
X157745204Y-81989680D01*
X158126157Y-81989680D01*
X158221395Y-82037300D01*
X158269014Y-82084919D01*
X158316633Y-82180157D01*
X158316633Y-82323014D01*
X158269014Y-82418252D01*
X158221395Y-82465871D01*
X158126157Y-82513490D01*
X157745204Y-82513490D01*
X159269014Y-82989680D02*
X158697585Y-82989680D01*
X158983300Y-82989680D02*
X158983300Y-81989680D01*
X158888061Y-82132538D01*
X158792823Y-82227776D01*
X158697585Y-82275395D01*
X170089261Y-88754233D02*
X170136880Y-88611376D01*
X170136880Y-88373280D01*
X170089261Y-88278042D01*
X170041642Y-88230423D01*
X169946404Y-88182804D01*
X169851166Y-88182804D01*
X169755928Y-88230423D01*
X169708309Y-88278042D01*
X169660690Y-88373280D01*
X169613071Y-88563757D01*
X169565452Y-88658995D01*
X169517833Y-88706614D01*
X169422595Y-88754233D01*
X169327357Y-88754233D01*
X169232119Y-88706614D01*
X169184500Y-88658995D01*
X169136880Y-88563757D01*
X169136880Y-88325661D01*
X169184500Y-88182804D01*
X169136880Y-87849471D02*
X170136880Y-87611376D01*
X169422595Y-87420900D01*
X170136880Y-87230423D01*
X169136880Y-86992328D01*
X170136880Y-86087566D02*
X170136880Y-86658995D01*
X170136880Y-86373280D02*
X169136880Y-86373280D01*
X169279738Y-86468519D01*
X169374976Y-86563757D01*
X169422595Y-86658995D01*
X141295880Y-87883904D02*
X142105404Y-87883904D01*
X142200642Y-87836285D01*
X142248261Y-87788666D01*
X142295880Y-87693428D01*
X142295880Y-87502952D01*
X142248261Y-87407714D01*
X142200642Y-87360095D01*
X142105404Y-87312476D01*
X141295880Y-87312476D01*
X142295880Y-86312476D02*
X142295880Y-86883904D01*
X142295880Y-86598190D02*
X141295880Y-86598190D01*
X141438738Y-86693428D01*
X141533976Y-86788666D01*
X141581595Y-86883904D01*
M02*
