G04 #@! TF.GenerationSoftware,KiCad,Pcbnew,(5.1.4)-1*
G04 #@! TF.CreationDate,2021-12-08T13:24:04-07:00*
G04 #@! TF.ProjectId,BreadBoard PS Ver2,42726561-6442-46f6-9172-642050532056,2*
G04 #@! TF.SameCoordinates,Original*
G04 #@! TF.FileFunction,Soldermask,Bot*
G04 #@! TF.FilePolarity,Negative*
%FSLAX46Y46*%
G04 Gerber Fmt 4.6, Leading zero omitted, Abs format (unit mm)*
G04 Created by KiCad (PCBNEW (5.1.4)-1) date 2021-12-08 13:24:04*
%MOMM*%
%LPD*%
G04 APERTURE LIST*
%ADD10C,0.100000*%
G04 APERTURE END LIST*
D10*
G36*
X165049343Y-120936619D02*
G01*
X165115527Y-120943137D01*
X165285366Y-120994657D01*
X165441891Y-121078322D01*
X165477629Y-121107652D01*
X165579086Y-121190914D01*
X165662348Y-121292371D01*
X165691678Y-121328109D01*
X165775343Y-121484634D01*
X165826863Y-121654473D01*
X165844259Y-121831100D01*
X165826863Y-122007727D01*
X165775343Y-122177566D01*
X165691678Y-122334091D01*
X165662348Y-122369829D01*
X165579086Y-122471286D01*
X165477629Y-122554548D01*
X165441891Y-122583878D01*
X165285366Y-122667543D01*
X165115527Y-122719063D01*
X165049342Y-122725582D01*
X164983160Y-122732100D01*
X164894640Y-122732100D01*
X164828458Y-122725582D01*
X164762273Y-122719063D01*
X164592434Y-122667543D01*
X164435909Y-122583878D01*
X164400171Y-122554548D01*
X164298714Y-122471286D01*
X164215452Y-122369829D01*
X164186122Y-122334091D01*
X164102457Y-122177566D01*
X164050937Y-122007727D01*
X164033541Y-121831100D01*
X164050937Y-121654473D01*
X164102457Y-121484634D01*
X164186122Y-121328109D01*
X164215452Y-121292371D01*
X164298714Y-121190914D01*
X164400171Y-121107652D01*
X164435909Y-121078322D01*
X164592434Y-120994657D01*
X164762273Y-120943137D01*
X164828457Y-120936619D01*
X164894640Y-120930100D01*
X164983160Y-120930100D01*
X165049343Y-120936619D01*
X165049343Y-120936619D01*
G37*
G36*
X162509343Y-120936619D02*
G01*
X162575527Y-120943137D01*
X162745366Y-120994657D01*
X162901891Y-121078322D01*
X162937629Y-121107652D01*
X163039086Y-121190914D01*
X163122348Y-121292371D01*
X163151678Y-121328109D01*
X163235343Y-121484634D01*
X163286863Y-121654473D01*
X163304259Y-121831100D01*
X163286863Y-122007727D01*
X163235343Y-122177566D01*
X163151678Y-122334091D01*
X163122348Y-122369829D01*
X163039086Y-122471286D01*
X162937629Y-122554548D01*
X162901891Y-122583878D01*
X162745366Y-122667543D01*
X162575527Y-122719063D01*
X162509342Y-122725582D01*
X162443160Y-122732100D01*
X162354640Y-122732100D01*
X162288458Y-122725582D01*
X162222273Y-122719063D01*
X162052434Y-122667543D01*
X161895909Y-122583878D01*
X161860171Y-122554548D01*
X161758714Y-122471286D01*
X161675452Y-122369829D01*
X161646122Y-122334091D01*
X161562457Y-122177566D01*
X161510937Y-122007727D01*
X161493541Y-121831100D01*
X161510937Y-121654473D01*
X161562457Y-121484634D01*
X161646122Y-121328109D01*
X161675452Y-121292371D01*
X161758714Y-121190914D01*
X161860171Y-121107652D01*
X161895909Y-121078322D01*
X162052434Y-120994657D01*
X162222273Y-120943137D01*
X162288457Y-120936619D01*
X162354640Y-120930100D01*
X162443160Y-120930100D01*
X162509343Y-120936619D01*
X162509343Y-120936619D01*
G37*
G36*
X150037943Y-120936619D02*
G01*
X150104127Y-120943137D01*
X150273966Y-120994657D01*
X150430491Y-121078322D01*
X150466229Y-121107652D01*
X150567686Y-121190914D01*
X150650948Y-121292371D01*
X150680278Y-121328109D01*
X150763943Y-121484634D01*
X150815463Y-121654473D01*
X150832859Y-121831100D01*
X150815463Y-122007727D01*
X150763943Y-122177566D01*
X150680278Y-122334091D01*
X150650948Y-122369829D01*
X150567686Y-122471286D01*
X150466229Y-122554548D01*
X150430491Y-122583878D01*
X150273966Y-122667543D01*
X150104127Y-122719063D01*
X150037942Y-122725582D01*
X149971760Y-122732100D01*
X149883240Y-122732100D01*
X149817058Y-122725582D01*
X149750873Y-122719063D01*
X149581034Y-122667543D01*
X149424509Y-122583878D01*
X149388771Y-122554548D01*
X149287314Y-122471286D01*
X149204052Y-122369829D01*
X149174722Y-122334091D01*
X149091057Y-122177566D01*
X149039537Y-122007727D01*
X149022141Y-121831100D01*
X149039537Y-121654473D01*
X149091057Y-121484634D01*
X149174722Y-121328109D01*
X149204052Y-121292371D01*
X149287314Y-121190914D01*
X149388771Y-121107652D01*
X149424509Y-121078322D01*
X149581034Y-120994657D01*
X149750873Y-120943137D01*
X149817057Y-120936619D01*
X149883240Y-120930100D01*
X149971760Y-120930100D01*
X150037943Y-120936619D01*
X150037943Y-120936619D01*
G37*
G36*
X147497943Y-120936619D02*
G01*
X147564127Y-120943137D01*
X147733966Y-120994657D01*
X147890491Y-121078322D01*
X147926229Y-121107652D01*
X148027686Y-121190914D01*
X148110948Y-121292371D01*
X148140278Y-121328109D01*
X148223943Y-121484634D01*
X148275463Y-121654473D01*
X148292859Y-121831100D01*
X148275463Y-122007727D01*
X148223943Y-122177566D01*
X148140278Y-122334091D01*
X148110948Y-122369829D01*
X148027686Y-122471286D01*
X147926229Y-122554548D01*
X147890491Y-122583878D01*
X147733966Y-122667543D01*
X147564127Y-122719063D01*
X147497942Y-122725582D01*
X147431760Y-122732100D01*
X147343240Y-122732100D01*
X147277058Y-122725582D01*
X147210873Y-122719063D01*
X147041034Y-122667543D01*
X146884509Y-122583878D01*
X146848771Y-122554548D01*
X146747314Y-122471286D01*
X146664052Y-122369829D01*
X146634722Y-122334091D01*
X146551057Y-122177566D01*
X146499537Y-122007727D01*
X146482141Y-121831100D01*
X146499537Y-121654473D01*
X146551057Y-121484634D01*
X146634722Y-121328109D01*
X146664052Y-121292371D01*
X146747314Y-121190914D01*
X146848771Y-121107652D01*
X146884509Y-121078322D01*
X147041034Y-120994657D01*
X147210873Y-120943137D01*
X147277057Y-120936619D01*
X147343240Y-120930100D01*
X147431760Y-120930100D01*
X147497943Y-120936619D01*
X147497943Y-120936619D01*
G37*
G36*
X163299900Y-120192100D02*
G01*
X161497900Y-120192100D01*
X161497900Y-118390100D01*
X163299900Y-118390100D01*
X163299900Y-120192100D01*
X163299900Y-120192100D01*
G37*
G36*
X148288500Y-120192100D02*
G01*
X146486500Y-120192100D01*
X146486500Y-118390100D01*
X148288500Y-118390100D01*
X148288500Y-120192100D01*
X148288500Y-120192100D01*
G37*
G36*
X150037942Y-118396618D02*
G01*
X150104127Y-118403137D01*
X150273966Y-118454657D01*
X150430491Y-118538322D01*
X150466229Y-118567652D01*
X150567686Y-118650914D01*
X150650948Y-118752371D01*
X150680278Y-118788109D01*
X150763943Y-118944634D01*
X150815463Y-119114473D01*
X150832859Y-119291100D01*
X150815463Y-119467727D01*
X150763943Y-119637566D01*
X150680278Y-119794091D01*
X150650948Y-119829829D01*
X150567686Y-119931286D01*
X150466229Y-120014548D01*
X150430491Y-120043878D01*
X150273966Y-120127543D01*
X150104127Y-120179063D01*
X150037943Y-120185581D01*
X149971760Y-120192100D01*
X149883240Y-120192100D01*
X149817057Y-120185581D01*
X149750873Y-120179063D01*
X149581034Y-120127543D01*
X149424509Y-120043878D01*
X149388771Y-120014548D01*
X149287314Y-119931286D01*
X149204052Y-119829829D01*
X149174722Y-119794091D01*
X149091057Y-119637566D01*
X149039537Y-119467727D01*
X149022141Y-119291100D01*
X149039537Y-119114473D01*
X149091057Y-118944634D01*
X149174722Y-118788109D01*
X149204052Y-118752371D01*
X149287314Y-118650914D01*
X149388771Y-118567652D01*
X149424509Y-118538322D01*
X149581034Y-118454657D01*
X149750873Y-118403137D01*
X149817058Y-118396618D01*
X149883240Y-118390100D01*
X149971760Y-118390100D01*
X150037942Y-118396618D01*
X150037942Y-118396618D01*
G37*
G36*
X165049342Y-118396618D02*
G01*
X165115527Y-118403137D01*
X165285366Y-118454657D01*
X165441891Y-118538322D01*
X165477629Y-118567652D01*
X165579086Y-118650914D01*
X165662348Y-118752371D01*
X165691678Y-118788109D01*
X165775343Y-118944634D01*
X165826863Y-119114473D01*
X165844259Y-119291100D01*
X165826863Y-119467727D01*
X165775343Y-119637566D01*
X165691678Y-119794091D01*
X165662348Y-119829829D01*
X165579086Y-119931286D01*
X165477629Y-120014548D01*
X165441891Y-120043878D01*
X165285366Y-120127543D01*
X165115527Y-120179063D01*
X165049343Y-120185581D01*
X164983160Y-120192100D01*
X164894640Y-120192100D01*
X164828457Y-120185581D01*
X164762273Y-120179063D01*
X164592434Y-120127543D01*
X164435909Y-120043878D01*
X164400171Y-120014548D01*
X164298714Y-119931286D01*
X164215452Y-119829829D01*
X164186122Y-119794091D01*
X164102457Y-119637566D01*
X164050937Y-119467727D01*
X164033541Y-119291100D01*
X164050937Y-119114473D01*
X164102457Y-118944634D01*
X164186122Y-118788109D01*
X164215452Y-118752371D01*
X164298714Y-118650914D01*
X164400171Y-118567652D01*
X164435909Y-118538322D01*
X164592434Y-118454657D01*
X164762273Y-118403137D01*
X164828458Y-118396618D01*
X164894640Y-118390100D01*
X164983160Y-118390100D01*
X165049342Y-118396618D01*
X165049342Y-118396618D01*
G37*
G36*
X155499725Y-114822660D02*
G01*
X155499728Y-114822661D01*
X155499729Y-114822661D01*
X155678993Y-114877040D01*
X155678996Y-114877042D01*
X155678997Y-114877042D01*
X155844203Y-114965346D01*
X155989012Y-115084188D01*
X156107854Y-115228997D01*
X156196158Y-115394203D01*
X156196160Y-115394207D01*
X156250539Y-115573471D01*
X156250540Y-115573475D01*
X156268901Y-115759900D01*
X156250540Y-115946325D01*
X156250539Y-115946328D01*
X156250539Y-115946329D01*
X156196160Y-116125593D01*
X156196158Y-116125596D01*
X156196158Y-116125597D01*
X156107854Y-116290803D01*
X155989012Y-116435612D01*
X155844203Y-116554454D01*
X155678997Y-116642758D01*
X155678993Y-116642760D01*
X155499729Y-116697139D01*
X155499728Y-116697139D01*
X155499725Y-116697140D01*
X155360018Y-116710900D01*
X153066582Y-116710900D01*
X152926875Y-116697140D01*
X152926872Y-116697139D01*
X152926871Y-116697139D01*
X152747607Y-116642760D01*
X152747603Y-116642758D01*
X152582397Y-116554454D01*
X152437588Y-116435612D01*
X152318746Y-116290803D01*
X152230442Y-116125597D01*
X152230442Y-116125596D01*
X152230440Y-116125593D01*
X152176061Y-115946329D01*
X152176061Y-115946328D01*
X152176060Y-115946325D01*
X152157699Y-115759900D01*
X152176060Y-115573475D01*
X152176061Y-115573471D01*
X152230440Y-115394207D01*
X152230442Y-115394203D01*
X152318746Y-115228997D01*
X152437588Y-115084188D01*
X152582397Y-114965346D01*
X152747603Y-114877042D01*
X152747604Y-114877042D01*
X152747607Y-114877040D01*
X152926871Y-114822661D01*
X152926872Y-114822661D01*
X152926875Y-114822660D01*
X153066582Y-114808900D01*
X155360018Y-114808900D01*
X155499725Y-114822660D01*
X155499725Y-114822660D01*
G37*
G36*
X158164300Y-113210900D02*
G01*
X156262300Y-113210900D01*
X156262300Y-108708900D01*
X158164300Y-108708900D01*
X158164300Y-113210900D01*
X158164300Y-113210900D01*
G37*
G36*
X151599725Y-108922660D02*
G01*
X151599728Y-108922661D01*
X151599729Y-108922661D01*
X151778993Y-108977040D01*
X151778996Y-108977042D01*
X151778997Y-108977042D01*
X151944203Y-109065346D01*
X152089012Y-109184188D01*
X152207854Y-109328997D01*
X152291204Y-109484935D01*
X152296160Y-109494207D01*
X152350539Y-109673471D01*
X152350540Y-109673475D01*
X152364300Y-109813182D01*
X152364300Y-112106618D01*
X152350540Y-112246325D01*
X152350539Y-112246328D01*
X152350539Y-112246329D01*
X152296160Y-112425593D01*
X152296158Y-112425596D01*
X152296158Y-112425597D01*
X152207854Y-112590803D01*
X152089012Y-112735612D01*
X151944203Y-112854454D01*
X151778996Y-112942758D01*
X151778992Y-112942760D01*
X151599728Y-112997139D01*
X151599727Y-112997139D01*
X151599724Y-112997140D01*
X151413300Y-113015501D01*
X151226875Y-112997140D01*
X151226872Y-112997139D01*
X151226871Y-112997139D01*
X151047607Y-112942760D01*
X151047603Y-112942758D01*
X150882397Y-112854454D01*
X150737588Y-112735612D01*
X150618746Y-112590803D01*
X150530442Y-112425596D01*
X150530441Y-112425593D01*
X150530440Y-112425592D01*
X150476061Y-112246328D01*
X150476061Y-112246327D01*
X150476060Y-112246324D01*
X150462300Y-112106617D01*
X150462301Y-109813182D01*
X150476061Y-109673475D01*
X150476062Y-109673471D01*
X150530441Y-109494207D01*
X150535397Y-109484935D01*
X150618747Y-109328997D01*
X150737589Y-109184188D01*
X150882398Y-109065346D01*
X151047604Y-108977042D01*
X151047605Y-108977042D01*
X151047608Y-108977040D01*
X151226872Y-108922661D01*
X151226873Y-108922661D01*
X151226876Y-108922660D01*
X151413300Y-108904299D01*
X151599725Y-108922660D01*
X151599725Y-108922660D01*
G37*
G36*
X163420500Y-110842500D02*
G01*
X161318500Y-110842500D01*
X161318500Y-108740500D01*
X163420500Y-108740500D01*
X163420500Y-110842500D01*
X163420500Y-110842500D01*
G37*
G36*
X167676064Y-108780889D02*
G01*
X167867333Y-108860115D01*
X167867335Y-108860116D01*
X167960940Y-108922661D01*
X168039473Y-108975135D01*
X168185865Y-109121527D01*
X168300885Y-109293667D01*
X168380111Y-109484936D01*
X168420500Y-109687984D01*
X168420500Y-109895016D01*
X168380111Y-110098064D01*
X168300885Y-110289333D01*
X168300884Y-110289335D01*
X168185865Y-110461473D01*
X168039473Y-110607865D01*
X167867335Y-110722884D01*
X167867334Y-110722885D01*
X167867333Y-110722885D01*
X167676064Y-110802111D01*
X167473016Y-110842500D01*
X167265984Y-110842500D01*
X167062936Y-110802111D01*
X166871667Y-110722885D01*
X166871666Y-110722885D01*
X166871665Y-110722884D01*
X166699527Y-110607865D01*
X166553135Y-110461473D01*
X166438116Y-110289335D01*
X166438115Y-110289333D01*
X166358889Y-110098064D01*
X166318500Y-109895016D01*
X166318500Y-109687984D01*
X166358889Y-109484936D01*
X166438115Y-109293667D01*
X166553135Y-109121527D01*
X166699527Y-108975135D01*
X166778060Y-108922661D01*
X166871665Y-108860116D01*
X166871667Y-108860115D01*
X167062936Y-108780889D01*
X167265984Y-108740500D01*
X167473016Y-108740500D01*
X167676064Y-108780889D01*
X167676064Y-108780889D01*
G37*
G36*
X161240271Y-101552303D02*
G01*
X161296635Y-101557854D01*
X161513600Y-101623670D01*
X161513602Y-101623671D01*
X161713555Y-101730547D01*
X161888818Y-101874382D01*
X162032653Y-102049645D01*
X162139529Y-102249598D01*
X162205346Y-102466566D01*
X162227569Y-102692200D01*
X162205346Y-102917834D01*
X162139529Y-103134802D01*
X162032653Y-103334755D01*
X161888818Y-103510018D01*
X161713555Y-103653853D01*
X161513602Y-103760729D01*
X161513600Y-103760730D01*
X161296635Y-103826546D01*
X161240271Y-103832097D01*
X161127545Y-103843200D01*
X161014455Y-103843200D01*
X160901729Y-103832097D01*
X160845365Y-103826546D01*
X160628400Y-103760730D01*
X160628398Y-103760729D01*
X160428445Y-103653853D01*
X160253182Y-103510018D01*
X160109347Y-103334755D01*
X160002471Y-103134802D01*
X159936654Y-102917834D01*
X159914431Y-102692200D01*
X159936654Y-102466566D01*
X160002471Y-102249598D01*
X160109347Y-102049645D01*
X160253182Y-101874382D01*
X160428445Y-101730547D01*
X160628398Y-101623671D01*
X160628400Y-101623670D01*
X160845365Y-101557854D01*
X160901729Y-101552303D01*
X161014455Y-101541200D01*
X161127545Y-101541200D01*
X161240271Y-101552303D01*
X161240271Y-101552303D01*
G37*
G36*
X152062000Y-103843200D02*
G01*
X149760000Y-103843200D01*
X149760000Y-101541200D01*
X152062000Y-101541200D01*
X152062000Y-103843200D01*
X152062000Y-103843200D01*
G37*
G36*
X167651200Y-99706200D02*
G01*
X165749200Y-99706200D01*
X165749200Y-97804200D01*
X167651200Y-97804200D01*
X167651200Y-99706200D01*
X167651200Y-99706200D01*
G37*
G36*
X161240271Y-95929778D02*
G01*
X161296635Y-95935329D01*
X161513600Y-96001145D01*
X161513602Y-96001146D01*
X161713555Y-96108022D01*
X161888818Y-96251857D01*
X162032653Y-96427120D01*
X162098592Y-96550485D01*
X162139530Y-96627075D01*
X162205346Y-96844040D01*
X162227569Y-97069675D01*
X162205346Y-97295310D01*
X162147713Y-97485300D01*
X162139529Y-97512277D01*
X162032653Y-97712230D01*
X161888818Y-97887493D01*
X161713555Y-98031328D01*
X161513602Y-98138204D01*
X161513600Y-98138205D01*
X161296635Y-98204021D01*
X161240271Y-98209572D01*
X161127545Y-98220675D01*
X161014455Y-98220675D01*
X160901729Y-98209572D01*
X160845365Y-98204021D01*
X160628400Y-98138205D01*
X160628398Y-98138204D01*
X160428445Y-98031328D01*
X160253182Y-97887493D01*
X160109347Y-97712230D01*
X160002471Y-97512277D01*
X159994288Y-97485300D01*
X159936654Y-97295310D01*
X159914431Y-97069675D01*
X159936654Y-96844040D01*
X160002470Y-96627075D01*
X160043408Y-96550485D01*
X160109347Y-96427120D01*
X160253182Y-96251857D01*
X160428445Y-96108022D01*
X160628398Y-96001146D01*
X160628400Y-96001145D01*
X160845365Y-95935329D01*
X160901729Y-95929778D01*
X161014455Y-95918675D01*
X161127545Y-95918675D01*
X161240271Y-95929778D01*
X161240271Y-95929778D01*
G37*
G36*
X152062000Y-98220675D02*
G01*
X149760000Y-98220675D01*
X149760000Y-95918675D01*
X152062000Y-95918675D01*
X152062000Y-98220675D01*
X152062000Y-98220675D01*
G37*
G36*
X145262700Y-97485300D02*
G01*
X143560700Y-97485300D01*
X143560700Y-95783300D01*
X145262700Y-95783300D01*
X145262700Y-97485300D01*
X145262700Y-97485300D01*
G37*
G36*
X146659928Y-95816003D02*
G01*
X146814800Y-95880153D01*
X146954181Y-95973285D01*
X147072715Y-96091819D01*
X147165847Y-96231200D01*
X147229997Y-96386072D01*
X147262700Y-96550484D01*
X147262700Y-96718116D01*
X147229997Y-96882528D01*
X147165847Y-97037400D01*
X147072715Y-97176781D01*
X146954181Y-97295315D01*
X146814800Y-97388447D01*
X146659928Y-97452597D01*
X146495516Y-97485300D01*
X146327884Y-97485300D01*
X146163472Y-97452597D01*
X146008600Y-97388447D01*
X145869219Y-97295315D01*
X145750685Y-97176781D01*
X145657553Y-97037400D01*
X145593403Y-96882528D01*
X145560700Y-96718116D01*
X145560700Y-96550484D01*
X145593403Y-96386072D01*
X145657553Y-96231200D01*
X145750685Y-96091819D01*
X145869219Y-95973285D01*
X146008600Y-95880153D01*
X146163472Y-95816003D01*
X146327884Y-95783300D01*
X146495516Y-95783300D01*
X146659928Y-95816003D01*
X146659928Y-95816003D01*
G37*
G36*
X166977595Y-95300746D02*
G01*
X167150666Y-95372434D01*
X167150667Y-95372435D01*
X167306427Y-95476510D01*
X167438890Y-95608973D01*
X167438891Y-95608975D01*
X167542966Y-95764734D01*
X167614654Y-95937805D01*
X167651200Y-96121533D01*
X167651200Y-96308867D01*
X167614654Y-96492595D01*
X167542966Y-96665666D01*
X167542965Y-96665667D01*
X167438890Y-96821427D01*
X167306427Y-96953890D01*
X167228018Y-97006281D01*
X167150666Y-97057966D01*
X166977595Y-97129654D01*
X166793867Y-97166200D01*
X166606533Y-97166200D01*
X166422805Y-97129654D01*
X166249734Y-97057966D01*
X166172382Y-97006281D01*
X166093973Y-96953890D01*
X165961510Y-96821427D01*
X165857435Y-96665667D01*
X165857434Y-96665666D01*
X165785746Y-96492595D01*
X165749200Y-96308867D01*
X165749200Y-96121533D01*
X165785746Y-95937805D01*
X165857434Y-95764734D01*
X165961509Y-95608975D01*
X165961510Y-95608973D01*
X166093973Y-95476510D01*
X166249733Y-95372435D01*
X166249734Y-95372434D01*
X166422805Y-95300746D01*
X166606533Y-95264200D01*
X166793867Y-95264200D01*
X166977595Y-95300746D01*
X166977595Y-95300746D01*
G37*
G36*
X152062000Y-92598150D02*
G01*
X149760000Y-92598150D01*
X149760000Y-90296150D01*
X152062000Y-90296150D01*
X152062000Y-92598150D01*
X152062000Y-92598150D01*
G37*
G36*
X161240271Y-90307253D02*
G01*
X161296635Y-90312804D01*
X161513600Y-90378620D01*
X161513602Y-90378621D01*
X161713555Y-90485497D01*
X161888818Y-90629332D01*
X162032653Y-90804595D01*
X162139529Y-91004548D01*
X162205346Y-91221516D01*
X162227569Y-91447150D01*
X162205346Y-91672784D01*
X162139529Y-91889752D01*
X162032653Y-92089705D01*
X161888818Y-92264968D01*
X161713555Y-92408803D01*
X161513602Y-92515679D01*
X161513600Y-92515680D01*
X161296635Y-92581496D01*
X161240271Y-92587047D01*
X161127545Y-92598150D01*
X161014455Y-92598150D01*
X160901729Y-92587047D01*
X160845365Y-92581496D01*
X160628400Y-92515680D01*
X160628398Y-92515679D01*
X160428445Y-92408803D01*
X160253182Y-92264968D01*
X160109347Y-92089705D01*
X160002471Y-91889752D01*
X159936654Y-91672784D01*
X159914431Y-91447150D01*
X159936654Y-91221516D01*
X160002471Y-91004548D01*
X160109347Y-90804595D01*
X160253182Y-90629332D01*
X160428445Y-90485497D01*
X160628398Y-90378621D01*
X160628400Y-90378620D01*
X160845365Y-90312804D01*
X160901729Y-90307253D01*
X161014455Y-90296150D01*
X161127545Y-90296150D01*
X161240271Y-90307253D01*
X161240271Y-90307253D01*
G37*
G36*
X147164500Y-90665500D02*
G01*
X145062500Y-90665500D01*
X145062500Y-88658500D01*
X147164500Y-88658500D01*
X147164500Y-90665500D01*
X147164500Y-90665500D01*
G37*
G36*
X168303559Y-88948760D02*
G01*
X168440232Y-89005372D01*
X168563235Y-89087560D01*
X168667840Y-89192165D01*
X168750028Y-89315168D01*
X168806640Y-89451841D01*
X168835500Y-89596933D01*
X168835500Y-89744867D01*
X168806640Y-89889959D01*
X168750028Y-90026632D01*
X168667840Y-90149635D01*
X168563235Y-90254240D01*
X168440232Y-90336428D01*
X168440231Y-90336429D01*
X168440230Y-90336429D01*
X168303559Y-90393040D01*
X168158468Y-90421900D01*
X168010532Y-90421900D01*
X167865441Y-90393040D01*
X167728770Y-90336429D01*
X167728769Y-90336429D01*
X167728768Y-90336428D01*
X167605765Y-90254240D01*
X167501160Y-90149635D01*
X167418972Y-90026632D01*
X167362360Y-89889959D01*
X167333500Y-89744867D01*
X167333500Y-89596933D01*
X167362360Y-89451841D01*
X167418972Y-89315168D01*
X167501160Y-89192165D01*
X167605765Y-89087560D01*
X167728768Y-89005372D01*
X167865441Y-88948760D01*
X168010532Y-88919900D01*
X168158468Y-88919900D01*
X168303559Y-88948760D01*
X168303559Y-88948760D01*
G37*
G36*
X165003559Y-88948760D02*
G01*
X165140232Y-89005372D01*
X165263235Y-89087560D01*
X165367840Y-89192165D01*
X165450028Y-89315168D01*
X165506640Y-89451841D01*
X165535500Y-89596933D01*
X165535500Y-89744867D01*
X165506640Y-89889959D01*
X165450028Y-90026632D01*
X165367840Y-90149635D01*
X165263235Y-90254240D01*
X165140232Y-90336428D01*
X165140231Y-90336429D01*
X165140230Y-90336429D01*
X165003559Y-90393040D01*
X164858468Y-90421900D01*
X164710532Y-90421900D01*
X164565441Y-90393040D01*
X164428770Y-90336429D01*
X164428769Y-90336429D01*
X164428768Y-90336428D01*
X164305765Y-90254240D01*
X164201160Y-90149635D01*
X164118972Y-90026632D01*
X164062360Y-89889959D01*
X164033500Y-89744867D01*
X164033500Y-89596933D01*
X164062360Y-89451841D01*
X164118972Y-89315168D01*
X164201160Y-89192165D01*
X164305765Y-89087560D01*
X164428768Y-89005372D01*
X164565441Y-88948760D01*
X164710532Y-88919900D01*
X164858468Y-88919900D01*
X165003559Y-88948760D01*
X165003559Y-88948760D01*
G37*
G36*
X146259436Y-86123340D02*
G01*
X146357720Y-86133020D01*
X146546881Y-86190401D01*
X146721212Y-86283583D01*
X146874015Y-86408985D01*
X146999417Y-86561788D01*
X147092599Y-86736119D01*
X147149980Y-86925280D01*
X147169355Y-87122000D01*
X147149980Y-87318720D01*
X147092599Y-87507881D01*
X146999417Y-87682212D01*
X146874015Y-87835015D01*
X146721212Y-87960417D01*
X146546881Y-88053599D01*
X146357720Y-88110980D01*
X146259436Y-88120660D01*
X146210295Y-88125500D01*
X146016705Y-88125500D01*
X145967564Y-88120660D01*
X145869280Y-88110980D01*
X145680119Y-88053599D01*
X145505788Y-87960417D01*
X145352985Y-87835015D01*
X145227583Y-87682212D01*
X145134401Y-87507881D01*
X145077020Y-87318720D01*
X145057645Y-87122000D01*
X145077020Y-86925280D01*
X145134401Y-86736119D01*
X145227583Y-86561788D01*
X145352985Y-86408985D01*
X145505788Y-86283583D01*
X145680119Y-86190401D01*
X145869280Y-86133020D01*
X145967564Y-86123340D01*
X146016705Y-86118500D01*
X146210295Y-86118500D01*
X146259436Y-86123340D01*
X146259436Y-86123340D01*
G37*
G36*
X168303559Y-86448760D02*
G01*
X168440232Y-86505372D01*
X168563235Y-86587560D01*
X168667840Y-86692165D01*
X168730724Y-86786278D01*
X168750029Y-86815170D01*
X168806640Y-86951841D01*
X168835500Y-87096932D01*
X168835500Y-87244868D01*
X168820810Y-87318720D01*
X168806640Y-87389959D01*
X168750028Y-87526632D01*
X168667840Y-87649635D01*
X168563235Y-87754240D01*
X168440232Y-87836428D01*
X168440231Y-87836429D01*
X168440230Y-87836429D01*
X168303559Y-87893040D01*
X168158468Y-87921900D01*
X168010532Y-87921900D01*
X167865441Y-87893040D01*
X167728770Y-87836429D01*
X167728769Y-87836429D01*
X167728768Y-87836428D01*
X167605765Y-87754240D01*
X167501160Y-87649635D01*
X167418972Y-87526632D01*
X167362360Y-87389959D01*
X167348190Y-87318720D01*
X167333500Y-87244868D01*
X167333500Y-87096932D01*
X167362360Y-86951841D01*
X167418971Y-86815170D01*
X167438276Y-86786278D01*
X167501160Y-86692165D01*
X167605765Y-86587560D01*
X167728768Y-86505372D01*
X167865441Y-86448760D01*
X168010532Y-86419900D01*
X168158468Y-86419900D01*
X168303559Y-86448760D01*
X168303559Y-86448760D01*
G37*
G36*
X165003559Y-86448760D02*
G01*
X165140232Y-86505372D01*
X165263235Y-86587560D01*
X165367840Y-86692165D01*
X165430724Y-86786278D01*
X165450029Y-86815170D01*
X165506640Y-86951841D01*
X165535500Y-87096932D01*
X165535500Y-87244868D01*
X165520810Y-87318720D01*
X165506640Y-87389959D01*
X165450028Y-87526632D01*
X165367840Y-87649635D01*
X165263235Y-87754240D01*
X165140232Y-87836428D01*
X165140231Y-87836429D01*
X165140230Y-87836429D01*
X165003559Y-87893040D01*
X164858468Y-87921900D01*
X164710532Y-87921900D01*
X164565441Y-87893040D01*
X164428770Y-87836429D01*
X164428769Y-87836429D01*
X164428768Y-87836428D01*
X164305765Y-87754240D01*
X164201160Y-87649635D01*
X164118972Y-87526632D01*
X164062360Y-87389959D01*
X164048190Y-87318720D01*
X164033500Y-87244868D01*
X164033500Y-87096932D01*
X164062360Y-86951841D01*
X164118971Y-86815170D01*
X164138276Y-86786278D01*
X164201160Y-86692165D01*
X164305765Y-86587560D01*
X164428768Y-86505372D01*
X164565441Y-86448760D01*
X164710532Y-86419900D01*
X164858468Y-86419900D01*
X165003559Y-86448760D01*
X165003559Y-86448760D01*
G37*
G36*
X152062000Y-86975625D02*
G01*
X149760000Y-86975625D01*
X149760000Y-84673625D01*
X152062000Y-84673625D01*
X152062000Y-86975625D01*
X152062000Y-86975625D01*
G37*
G36*
X161240271Y-84684728D02*
G01*
X161296635Y-84690279D01*
X161513600Y-84756095D01*
X161513602Y-84756096D01*
X161713555Y-84862972D01*
X161888818Y-85006807D01*
X162032653Y-85182070D01*
X162139529Y-85382023D01*
X162139530Y-85382025D01*
X162205346Y-85598990D01*
X162227569Y-85824625D01*
X162205346Y-86050260D01*
X162184646Y-86118500D01*
X162139529Y-86267227D01*
X162032653Y-86467180D01*
X161888818Y-86642443D01*
X161713555Y-86786278D01*
X161513602Y-86893154D01*
X161513600Y-86893155D01*
X161296635Y-86958971D01*
X161240271Y-86964522D01*
X161127545Y-86975625D01*
X161014455Y-86975625D01*
X160901729Y-86964522D01*
X160845365Y-86958971D01*
X160628400Y-86893155D01*
X160628398Y-86893154D01*
X160428445Y-86786278D01*
X160253182Y-86642443D01*
X160109347Y-86467180D01*
X160002471Y-86267227D01*
X159957355Y-86118500D01*
X159936654Y-86050260D01*
X159914431Y-85824625D01*
X159936654Y-85598990D01*
X160002470Y-85382025D01*
X160002471Y-85382023D01*
X160109347Y-85182070D01*
X160253182Y-85006807D01*
X160428445Y-84862972D01*
X160628398Y-84756096D01*
X160628400Y-84756095D01*
X160845365Y-84690279D01*
X160901729Y-84684728D01*
X161014455Y-84673625D01*
X161127545Y-84673625D01*
X161240271Y-84684728D01*
X161240271Y-84684728D01*
G37*
G36*
X146259436Y-83583340D02*
G01*
X146357720Y-83593020D01*
X146546881Y-83650401D01*
X146721212Y-83743583D01*
X146874015Y-83868985D01*
X146999417Y-84021788D01*
X147092599Y-84196119D01*
X147149980Y-84385280D01*
X147169355Y-84582000D01*
X147149980Y-84778720D01*
X147092599Y-84967881D01*
X146999417Y-85142212D01*
X146874015Y-85295015D01*
X146721212Y-85420417D01*
X146546881Y-85513599D01*
X146357720Y-85570980D01*
X146259436Y-85580660D01*
X146210295Y-85585500D01*
X146016705Y-85585500D01*
X145967564Y-85580660D01*
X145869280Y-85570980D01*
X145680119Y-85513599D01*
X145505788Y-85420417D01*
X145352985Y-85295015D01*
X145227583Y-85142212D01*
X145134401Y-84967881D01*
X145077020Y-84778720D01*
X145057645Y-84582000D01*
X145077020Y-84385280D01*
X145134401Y-84196119D01*
X145227583Y-84021788D01*
X145352985Y-83868985D01*
X145505788Y-83743583D01*
X145680119Y-83650401D01*
X145869280Y-83593020D01*
X145967564Y-83583340D01*
X146016705Y-83578500D01*
X146210295Y-83578500D01*
X146259436Y-83583340D01*
X146259436Y-83583340D01*
G37*
G36*
X165003559Y-83948760D02*
G01*
X165140232Y-84005372D01*
X165263235Y-84087560D01*
X165367840Y-84192165D01*
X165370482Y-84196119D01*
X165450029Y-84315170D01*
X165506640Y-84451841D01*
X165535500Y-84596932D01*
X165535500Y-84744868D01*
X165512008Y-84862972D01*
X165506640Y-84889959D01*
X165450028Y-85026632D01*
X165367840Y-85149635D01*
X165263235Y-85254240D01*
X165140232Y-85336428D01*
X165140231Y-85336429D01*
X165140230Y-85336429D01*
X165003559Y-85393040D01*
X164858468Y-85421900D01*
X164710532Y-85421900D01*
X164565441Y-85393040D01*
X164428770Y-85336429D01*
X164428769Y-85336429D01*
X164428768Y-85336428D01*
X164305765Y-85254240D01*
X164201160Y-85149635D01*
X164118972Y-85026632D01*
X164062360Y-84889959D01*
X164056992Y-84862972D01*
X164033500Y-84744868D01*
X164033500Y-84596932D01*
X164062360Y-84451841D01*
X164118971Y-84315170D01*
X164198518Y-84196119D01*
X164201160Y-84192165D01*
X164305765Y-84087560D01*
X164428768Y-84005372D01*
X164565441Y-83948760D01*
X164710532Y-83919900D01*
X164858468Y-83919900D01*
X165003559Y-83948760D01*
X165003559Y-83948760D01*
G37*
G36*
X168835500Y-85421900D02*
G01*
X167333500Y-85421900D01*
X167333500Y-83919900D01*
X168835500Y-83919900D01*
X168835500Y-85421900D01*
X168835500Y-85421900D01*
G37*
G36*
X153999228Y-79483803D02*
G01*
X154154100Y-79547953D01*
X154293481Y-79641085D01*
X154412015Y-79759619D01*
X154505147Y-79899000D01*
X154569297Y-80053872D01*
X154602000Y-80218284D01*
X154602000Y-80385916D01*
X154569297Y-80550328D01*
X154505147Y-80705200D01*
X154412015Y-80844581D01*
X154293481Y-80963115D01*
X154154100Y-81056247D01*
X153999228Y-81120397D01*
X153834816Y-81153100D01*
X153667184Y-81153100D01*
X153502772Y-81120397D01*
X153347900Y-81056247D01*
X153208519Y-80963115D01*
X153089985Y-80844581D01*
X152996853Y-80705200D01*
X152932703Y-80550328D01*
X152900000Y-80385916D01*
X152900000Y-80218284D01*
X152932703Y-80053872D01*
X152996853Y-79899000D01*
X153089985Y-79759619D01*
X153208519Y-79641085D01*
X153347900Y-79547953D01*
X153502772Y-79483803D01*
X153667184Y-79451100D01*
X153834816Y-79451100D01*
X153999228Y-79483803D01*
X153999228Y-79483803D01*
G37*
G36*
X161537823Y-79463413D02*
G01*
X161698242Y-79512076D01*
X161765361Y-79547952D01*
X161846078Y-79591096D01*
X161975659Y-79697441D01*
X162082004Y-79827022D01*
X162082005Y-79827024D01*
X162161024Y-79974858D01*
X162209687Y-80135277D01*
X162226117Y-80302100D01*
X162209687Y-80468923D01*
X162161024Y-80629342D01*
X162120477Y-80705200D01*
X162082004Y-80777178D01*
X161975659Y-80906759D01*
X161846078Y-81013104D01*
X161846076Y-81013105D01*
X161698242Y-81092124D01*
X161537823Y-81140787D01*
X161412804Y-81153100D01*
X161329196Y-81153100D01*
X161204177Y-81140787D01*
X161043758Y-81092124D01*
X160895924Y-81013105D01*
X160895922Y-81013104D01*
X160766341Y-80906759D01*
X160659996Y-80777178D01*
X160621523Y-80705200D01*
X160580976Y-80629342D01*
X160532313Y-80468923D01*
X160515883Y-80302100D01*
X160532313Y-80135277D01*
X160580976Y-79974858D01*
X160659995Y-79827024D01*
X160659996Y-79827022D01*
X160766341Y-79697441D01*
X160895922Y-79591096D01*
X160976639Y-79547952D01*
X161043758Y-79512076D01*
X161204177Y-79463413D01*
X161329196Y-79451100D01*
X161412804Y-79451100D01*
X161537823Y-79463413D01*
X161537823Y-79463413D01*
G37*
G36*
X147497943Y-75953219D02*
G01*
X147564127Y-75959737D01*
X147733966Y-76011257D01*
X147890491Y-76094922D01*
X147926229Y-76124252D01*
X148027686Y-76207514D01*
X148110948Y-76308971D01*
X148140278Y-76344709D01*
X148223943Y-76501234D01*
X148275463Y-76671073D01*
X148292859Y-76847700D01*
X148275463Y-77024327D01*
X148223943Y-77194166D01*
X148140278Y-77350691D01*
X148110948Y-77386429D01*
X148027686Y-77487886D01*
X147926229Y-77571148D01*
X147890491Y-77600478D01*
X147733966Y-77684143D01*
X147564127Y-77735663D01*
X147497943Y-77742181D01*
X147431760Y-77748700D01*
X147343240Y-77748700D01*
X147277057Y-77742181D01*
X147210873Y-77735663D01*
X147041034Y-77684143D01*
X146884509Y-77600478D01*
X146848771Y-77571148D01*
X146747314Y-77487886D01*
X146664052Y-77386429D01*
X146634722Y-77350691D01*
X146551057Y-77194166D01*
X146499537Y-77024327D01*
X146482141Y-76847700D01*
X146499537Y-76671073D01*
X146551057Y-76501234D01*
X146634722Y-76344709D01*
X146664052Y-76308971D01*
X146747314Y-76207514D01*
X146848771Y-76124252D01*
X146884509Y-76094922D01*
X147041034Y-76011257D01*
X147210873Y-75959737D01*
X147277057Y-75953219D01*
X147343240Y-75946700D01*
X147431760Y-75946700D01*
X147497943Y-75953219D01*
X147497943Y-75953219D01*
G37*
G36*
X150037943Y-75953219D02*
G01*
X150104127Y-75959737D01*
X150273966Y-76011257D01*
X150430491Y-76094922D01*
X150466229Y-76124252D01*
X150567686Y-76207514D01*
X150650948Y-76308971D01*
X150680278Y-76344709D01*
X150763943Y-76501234D01*
X150815463Y-76671073D01*
X150832859Y-76847700D01*
X150815463Y-77024327D01*
X150763943Y-77194166D01*
X150680278Y-77350691D01*
X150650948Y-77386429D01*
X150567686Y-77487886D01*
X150466229Y-77571148D01*
X150430491Y-77600478D01*
X150273966Y-77684143D01*
X150104127Y-77735663D01*
X150037943Y-77742181D01*
X149971760Y-77748700D01*
X149883240Y-77748700D01*
X149817057Y-77742181D01*
X149750873Y-77735663D01*
X149581034Y-77684143D01*
X149424509Y-77600478D01*
X149388771Y-77571148D01*
X149287314Y-77487886D01*
X149204052Y-77386429D01*
X149174722Y-77350691D01*
X149091057Y-77194166D01*
X149039537Y-77024327D01*
X149022141Y-76847700D01*
X149039537Y-76671073D01*
X149091057Y-76501234D01*
X149174722Y-76344709D01*
X149204052Y-76308971D01*
X149287314Y-76207514D01*
X149388771Y-76124252D01*
X149424509Y-76094922D01*
X149581034Y-76011257D01*
X149750873Y-75959737D01*
X149817057Y-75953219D01*
X149883240Y-75946700D01*
X149971760Y-75946700D01*
X150037943Y-75953219D01*
X150037943Y-75953219D01*
G37*
G36*
X164985843Y-75953219D02*
G01*
X165052027Y-75959737D01*
X165221866Y-76011257D01*
X165378391Y-76094922D01*
X165414129Y-76124252D01*
X165515586Y-76207514D01*
X165598848Y-76308971D01*
X165628178Y-76344709D01*
X165711843Y-76501234D01*
X165763363Y-76671073D01*
X165780759Y-76847700D01*
X165763363Y-77024327D01*
X165711843Y-77194166D01*
X165628178Y-77350691D01*
X165598848Y-77386429D01*
X165515586Y-77487886D01*
X165414129Y-77571148D01*
X165378391Y-77600478D01*
X165221866Y-77684143D01*
X165052027Y-77735663D01*
X164985843Y-77742181D01*
X164919660Y-77748700D01*
X164831140Y-77748700D01*
X164764957Y-77742181D01*
X164698773Y-77735663D01*
X164528934Y-77684143D01*
X164372409Y-77600478D01*
X164336671Y-77571148D01*
X164235214Y-77487886D01*
X164151952Y-77386429D01*
X164122622Y-77350691D01*
X164038957Y-77194166D01*
X163987437Y-77024327D01*
X163970041Y-76847700D01*
X163987437Y-76671073D01*
X164038957Y-76501234D01*
X164122622Y-76344709D01*
X164151952Y-76308971D01*
X164235214Y-76207514D01*
X164336671Y-76124252D01*
X164372409Y-76094922D01*
X164528934Y-76011257D01*
X164698773Y-75959737D01*
X164764957Y-75953219D01*
X164831140Y-75946700D01*
X164919660Y-75946700D01*
X164985843Y-75953219D01*
X164985843Y-75953219D01*
G37*
G36*
X162445843Y-75953219D02*
G01*
X162512027Y-75959737D01*
X162681866Y-76011257D01*
X162838391Y-76094922D01*
X162874129Y-76124252D01*
X162975586Y-76207514D01*
X163058848Y-76308971D01*
X163088178Y-76344709D01*
X163171843Y-76501234D01*
X163223363Y-76671073D01*
X163240759Y-76847700D01*
X163223363Y-77024327D01*
X163171843Y-77194166D01*
X163088178Y-77350691D01*
X163058848Y-77386429D01*
X162975586Y-77487886D01*
X162874129Y-77571148D01*
X162838391Y-77600478D01*
X162681866Y-77684143D01*
X162512027Y-77735663D01*
X162445843Y-77742181D01*
X162379660Y-77748700D01*
X162291140Y-77748700D01*
X162224957Y-77742181D01*
X162158773Y-77735663D01*
X161988934Y-77684143D01*
X161832409Y-77600478D01*
X161796671Y-77571148D01*
X161695214Y-77487886D01*
X161611952Y-77386429D01*
X161582622Y-77350691D01*
X161498957Y-77194166D01*
X161447437Y-77024327D01*
X161430041Y-76847700D01*
X161447437Y-76671073D01*
X161498957Y-76501234D01*
X161582622Y-76344709D01*
X161611952Y-76308971D01*
X161695214Y-76207514D01*
X161796671Y-76124252D01*
X161832409Y-76094922D01*
X161988934Y-76011257D01*
X162158773Y-75959737D01*
X162224957Y-75953219D01*
X162291140Y-75946700D01*
X162379660Y-75946700D01*
X162445843Y-75953219D01*
X162445843Y-75953219D01*
G37*
G36*
X148288500Y-75208700D02*
G01*
X146486500Y-75208700D01*
X146486500Y-73406700D01*
X148288500Y-73406700D01*
X148288500Y-75208700D01*
X148288500Y-75208700D01*
G37*
G36*
X150037942Y-73413218D02*
G01*
X150104127Y-73419737D01*
X150273966Y-73471257D01*
X150430491Y-73554922D01*
X150466229Y-73584252D01*
X150567686Y-73667514D01*
X150650948Y-73768971D01*
X150680278Y-73804709D01*
X150763943Y-73961234D01*
X150815463Y-74131073D01*
X150832859Y-74307700D01*
X150815463Y-74484327D01*
X150763943Y-74654166D01*
X150680278Y-74810691D01*
X150650948Y-74846429D01*
X150567686Y-74947886D01*
X150466229Y-75031148D01*
X150430491Y-75060478D01*
X150273966Y-75144143D01*
X150104127Y-75195663D01*
X150037943Y-75202181D01*
X149971760Y-75208700D01*
X149883240Y-75208700D01*
X149817057Y-75202181D01*
X149750873Y-75195663D01*
X149581034Y-75144143D01*
X149424509Y-75060478D01*
X149388771Y-75031148D01*
X149287314Y-74947886D01*
X149204052Y-74846429D01*
X149174722Y-74810691D01*
X149091057Y-74654166D01*
X149039537Y-74484327D01*
X149022141Y-74307700D01*
X149039537Y-74131073D01*
X149091057Y-73961234D01*
X149174722Y-73804709D01*
X149204052Y-73768971D01*
X149287314Y-73667514D01*
X149388771Y-73584252D01*
X149424509Y-73554922D01*
X149581034Y-73471257D01*
X149750873Y-73419737D01*
X149817058Y-73413218D01*
X149883240Y-73406700D01*
X149971760Y-73406700D01*
X150037942Y-73413218D01*
X150037942Y-73413218D01*
G37*
G36*
X163236400Y-75208700D02*
G01*
X161434400Y-75208700D01*
X161434400Y-73406700D01*
X163236400Y-73406700D01*
X163236400Y-75208700D01*
X163236400Y-75208700D01*
G37*
G36*
X164985842Y-73413218D02*
G01*
X165052027Y-73419737D01*
X165221866Y-73471257D01*
X165378391Y-73554922D01*
X165414129Y-73584252D01*
X165515586Y-73667514D01*
X165598848Y-73768971D01*
X165628178Y-73804709D01*
X165711843Y-73961234D01*
X165763363Y-74131073D01*
X165780759Y-74307700D01*
X165763363Y-74484327D01*
X165711843Y-74654166D01*
X165628178Y-74810691D01*
X165598848Y-74846429D01*
X165515586Y-74947886D01*
X165414129Y-75031148D01*
X165378391Y-75060478D01*
X165221866Y-75144143D01*
X165052027Y-75195663D01*
X164985843Y-75202181D01*
X164919660Y-75208700D01*
X164831140Y-75208700D01*
X164764957Y-75202181D01*
X164698773Y-75195663D01*
X164528934Y-75144143D01*
X164372409Y-75060478D01*
X164336671Y-75031148D01*
X164235214Y-74947886D01*
X164151952Y-74846429D01*
X164122622Y-74810691D01*
X164038957Y-74654166D01*
X163987437Y-74484327D01*
X163970041Y-74307700D01*
X163987437Y-74131073D01*
X164038957Y-73961234D01*
X164122622Y-73804709D01*
X164151952Y-73768971D01*
X164235214Y-73667514D01*
X164336671Y-73584252D01*
X164372409Y-73554922D01*
X164528934Y-73471257D01*
X164698773Y-73419737D01*
X164764958Y-73413218D01*
X164831140Y-73406700D01*
X164919660Y-73406700D01*
X164985842Y-73413218D01*
X164985842Y-73413218D01*
G37*
M02*
