G04 #@! TF.GenerationSoftware,KiCad,Pcbnew,(5.1.4)-1*
G04 #@! TF.CreationDate,2021-12-08T13:33:43-07:00*
G04 #@! TF.ProjectId,BreadBoard PS Variable,42726561-6442-46f6-9172-642050532056,2*
G04 #@! TF.SameCoordinates,Original*
G04 #@! TF.FileFunction,Legend,Top*
G04 #@! TF.FilePolarity,Positive*
%FSLAX46Y46*%
G04 Gerber Fmt 4.6, Leading zero omitted, Abs format (unit mm)*
G04 Created by KiCad (PCBNEW (5.1.4)-1) date 2021-12-08 13:33:43*
%MOMM*%
%LPD*%
G04 APERTURE LIST*
%ADD10C,0.150000*%
%ADD11C,0.120000*%
G04 APERTURE END LIST*
D10*
X160298876Y-74115633D02*
X159822685Y-74115633D01*
X160394114Y-73829919D02*
X160060780Y-74829919D01*
X159727447Y-73829919D01*
X158965542Y-73829919D02*
X158965542Y-74829919D01*
X158965542Y-73877538D02*
X159060780Y-73829919D01*
X159251257Y-73829919D01*
X159346495Y-73877538D01*
X159394114Y-73925157D01*
X159441733Y-74020395D01*
X159441733Y-74306109D01*
X159394114Y-74401347D01*
X159346495Y-74448966D01*
X159251257Y-74496585D01*
X159060780Y-74496585D01*
X158965542Y-74448966D01*
X158489352Y-74496585D02*
X158489352Y-73639442D01*
X158536971Y-73544204D01*
X158632209Y-73496585D01*
X158679828Y-73496585D01*
X158489352Y-74829919D02*
X158536971Y-74782300D01*
X158489352Y-74734680D01*
X158441733Y-74782300D01*
X158489352Y-74829919D01*
X158489352Y-74734680D01*
X157394114Y-74829919D02*
X157060780Y-73829919D01*
X156727447Y-74829919D01*
X156394114Y-74210871D02*
X155632209Y-74210871D01*
X156013161Y-73829919D02*
X156013161Y-74591823D01*
X153822685Y-73829919D02*
X154156019Y-74306109D01*
X154394114Y-73829919D02*
X154394114Y-74829919D01*
X154013161Y-74829919D01*
X153917923Y-74782300D01*
X153870304Y-74734680D01*
X153822685Y-74639442D01*
X153822685Y-74496585D01*
X153870304Y-74401347D01*
X153917923Y-74353728D01*
X154013161Y-74306109D01*
X154394114Y-74306109D01*
X152965542Y-73829919D02*
X152965542Y-74353728D01*
X153013161Y-74448966D01*
X153108400Y-74496585D01*
X153298876Y-74496585D01*
X153394114Y-74448966D01*
X152965542Y-73877538D02*
X153060780Y-73829919D01*
X153298876Y-73829919D01*
X153394114Y-73877538D01*
X153441733Y-73972776D01*
X153441733Y-74068014D01*
X153394114Y-74163252D01*
X153298876Y-74210871D01*
X153060780Y-74210871D01*
X152965542Y-74258490D01*
X152489352Y-73829919D02*
X152489352Y-74496585D01*
X152489352Y-74829919D02*
X152536971Y-74782300D01*
X152489352Y-74734680D01*
X152441733Y-74782300D01*
X152489352Y-74829919D01*
X152489352Y-74734680D01*
X151870304Y-73829919D02*
X151965542Y-73877538D01*
X152013161Y-73972776D01*
X152013161Y-74829919D01*
X158792538Y-77335000D02*
X158887776Y-77382619D01*
X159030633Y-77382619D01*
X159173490Y-77335000D01*
X159268728Y-77239761D01*
X159316347Y-77144523D01*
X159363966Y-76954047D01*
X159363966Y-76811190D01*
X159316347Y-76620714D01*
X159268728Y-76525476D01*
X159173490Y-76430238D01*
X159030633Y-76382619D01*
X158935395Y-76382619D01*
X158792538Y-76430238D01*
X158744919Y-76477857D01*
X158744919Y-76811190D01*
X158935395Y-76811190D01*
X158316347Y-76382619D02*
X158316347Y-77382619D01*
X157744919Y-76382619D01*
X157744919Y-77382619D01*
X157268728Y-76382619D02*
X157268728Y-77382619D01*
X157030633Y-77382619D01*
X156887776Y-77335000D01*
X156792538Y-77239761D01*
X156744919Y-77144523D01*
X156697300Y-76954047D01*
X156697300Y-76811190D01*
X156744919Y-76620714D01*
X156792538Y-76525476D01*
X156887776Y-76430238D01*
X157030633Y-76382619D01*
X157268728Y-76382619D01*
X154935395Y-76382619D02*
X155268728Y-76858809D01*
X155506823Y-76382619D02*
X155506823Y-77382619D01*
X155125871Y-77382619D01*
X155030633Y-77335000D01*
X154983014Y-77287380D01*
X154935395Y-77192142D01*
X154935395Y-77049285D01*
X154983014Y-76954047D01*
X155030633Y-76906428D01*
X155125871Y-76858809D01*
X155506823Y-76858809D01*
X154078252Y-76382619D02*
X154078252Y-76906428D01*
X154125871Y-77001666D01*
X154221109Y-77049285D01*
X154411585Y-77049285D01*
X154506823Y-77001666D01*
X154078252Y-76430238D02*
X154173490Y-76382619D01*
X154411585Y-76382619D01*
X154506823Y-76430238D01*
X154554442Y-76525476D01*
X154554442Y-76620714D01*
X154506823Y-76715952D01*
X154411585Y-76763571D01*
X154173490Y-76763571D01*
X154078252Y-76811190D01*
X153602061Y-76382619D02*
X153602061Y-77049285D01*
X153602061Y-77382619D02*
X153649680Y-77335000D01*
X153602061Y-77287380D01*
X153554442Y-77335000D01*
X153602061Y-77382619D01*
X153602061Y-77287380D01*
X152983014Y-76382619D02*
X153078252Y-76430238D01*
X153125871Y-76525476D01*
X153125871Y-77382619D01*
X153360761Y-121267600D02*
X153265523Y-121219980D01*
X153122666Y-121219980D01*
X152979809Y-121267600D01*
X152884571Y-121362838D01*
X152836952Y-121458076D01*
X152789333Y-121648552D01*
X152789333Y-121791409D01*
X152836952Y-121981885D01*
X152884571Y-122077123D01*
X152979809Y-122172361D01*
X153122666Y-122219980D01*
X153217904Y-122219980D01*
X153360761Y-122172361D01*
X153408380Y-122124742D01*
X153408380Y-121791409D01*
X153217904Y-121791409D01*
X153836952Y-122219980D02*
X153836952Y-121219980D01*
X154408380Y-122219980D01*
X154408380Y-121219980D01*
X154884571Y-122219980D02*
X154884571Y-121219980D01*
X155122666Y-121219980D01*
X155265523Y-121267600D01*
X155360761Y-121362838D01*
X155408380Y-121458076D01*
X155456000Y-121648552D01*
X155456000Y-121791409D01*
X155408380Y-121981885D01*
X155360761Y-122077123D01*
X155265523Y-122172361D01*
X155122666Y-122219980D01*
X154884571Y-122219980D01*
X157217904Y-122219980D02*
X156884571Y-121743790D01*
X156646476Y-122219980D02*
X156646476Y-121219980D01*
X157027428Y-121219980D01*
X157122666Y-121267600D01*
X157170285Y-121315219D01*
X157217904Y-121410457D01*
X157217904Y-121553314D01*
X157170285Y-121648552D01*
X157122666Y-121696171D01*
X157027428Y-121743790D01*
X156646476Y-121743790D01*
X158075047Y-122219980D02*
X158075047Y-121696171D01*
X158027428Y-121600933D01*
X157932190Y-121553314D01*
X157741714Y-121553314D01*
X157646476Y-121600933D01*
X158075047Y-122172361D02*
X157979809Y-122219980D01*
X157741714Y-122219980D01*
X157646476Y-122172361D01*
X157598857Y-122077123D01*
X157598857Y-121981885D01*
X157646476Y-121886647D01*
X157741714Y-121839028D01*
X157979809Y-121839028D01*
X158075047Y-121791409D01*
X158551238Y-122219980D02*
X158551238Y-121553314D01*
X158551238Y-121219980D02*
X158503619Y-121267600D01*
X158551238Y-121315219D01*
X158598857Y-121267600D01*
X158551238Y-121219980D01*
X158551238Y-121315219D01*
X159170285Y-122219980D02*
X159075047Y-122172361D01*
X159027428Y-122077123D01*
X159027428Y-121219980D01*
X151994123Y-119432366D02*
X152470314Y-119432366D01*
X151898885Y-119718080D02*
X152232219Y-118718080D01*
X152565552Y-119718080D01*
X153327457Y-119718080D02*
X153327457Y-118718080D01*
X153327457Y-119670461D02*
X153232219Y-119718080D01*
X153041742Y-119718080D01*
X152946504Y-119670461D01*
X152898885Y-119622842D01*
X152851266Y-119527604D01*
X152851266Y-119241890D01*
X152898885Y-119146652D01*
X152946504Y-119099033D01*
X153041742Y-119051414D01*
X153232219Y-119051414D01*
X153327457Y-119099033D01*
X153803647Y-119051414D02*
X153803647Y-119908557D01*
X153756028Y-120003795D01*
X153660790Y-120051414D01*
X153613171Y-120051414D01*
X153803647Y-118718080D02*
X153756028Y-118765700D01*
X153803647Y-118813319D01*
X153851266Y-118765700D01*
X153803647Y-118718080D01*
X153803647Y-118813319D01*
X154898885Y-118718080D02*
X155232219Y-119718080D01*
X155565552Y-118718080D01*
X155898885Y-119337128D02*
X156660790Y-119337128D01*
X156279838Y-119718080D02*
X156279838Y-118956176D01*
X158470314Y-119718080D02*
X158136980Y-119241890D01*
X157898885Y-119718080D02*
X157898885Y-118718080D01*
X158279838Y-118718080D01*
X158375076Y-118765700D01*
X158422695Y-118813319D01*
X158470314Y-118908557D01*
X158470314Y-119051414D01*
X158422695Y-119146652D01*
X158375076Y-119194271D01*
X158279838Y-119241890D01*
X157898885Y-119241890D01*
X159327457Y-119718080D02*
X159327457Y-119194271D01*
X159279838Y-119099033D01*
X159184600Y-119051414D01*
X158994123Y-119051414D01*
X158898885Y-119099033D01*
X159327457Y-119670461D02*
X159232219Y-119718080D01*
X158994123Y-119718080D01*
X158898885Y-119670461D01*
X158851266Y-119575223D01*
X158851266Y-119479985D01*
X158898885Y-119384747D01*
X158994123Y-119337128D01*
X159232219Y-119337128D01*
X159327457Y-119289509D01*
X159803647Y-119718080D02*
X159803647Y-119051414D01*
X159803647Y-118718080D02*
X159756028Y-118765700D01*
X159803647Y-118813319D01*
X159851266Y-118765700D01*
X159803647Y-118718080D01*
X159803647Y-118813319D01*
X160422695Y-119718080D02*
X160327457Y-119670461D01*
X160279838Y-119575223D01*
X160279838Y-118718080D01*
X141343166Y-104328247D02*
X141390785Y-104280628D01*
X141533642Y-104185390D01*
X141628880Y-104137771D01*
X141771738Y-104090152D01*
X142009833Y-104042533D01*
X142200309Y-104042533D01*
X142438404Y-104090152D01*
X142581261Y-104137771D01*
X142676500Y-104185390D01*
X142819357Y-104280628D01*
X142866976Y-104328247D01*
X141724119Y-104709200D02*
X142724119Y-104709200D01*
X142724119Y-104947295D01*
X142676500Y-105090152D01*
X142581261Y-105185390D01*
X142486023Y-105233009D01*
X142295547Y-105280628D01*
X142152690Y-105280628D01*
X141962214Y-105233009D01*
X141866976Y-105185390D01*
X141771738Y-105090152D01*
X141724119Y-104947295D01*
X141724119Y-104709200D01*
X141724119Y-105852057D02*
X141771738Y-105756819D01*
X141819357Y-105709200D01*
X141914595Y-105661580D01*
X142200309Y-105661580D01*
X142295547Y-105709200D01*
X142343166Y-105756819D01*
X142390785Y-105852057D01*
X142390785Y-105994914D01*
X142343166Y-106090152D01*
X142295547Y-106137771D01*
X142200309Y-106185390D01*
X141914595Y-106185390D01*
X141819357Y-106137771D01*
X141771738Y-106090152D01*
X141724119Y-105994914D01*
X141724119Y-105852057D01*
X142390785Y-107375866D02*
X141724119Y-107375866D01*
X142295547Y-107375866D02*
X142343166Y-107423485D01*
X142390785Y-107518723D01*
X142390785Y-107661580D01*
X142343166Y-107756819D01*
X142247928Y-107804438D01*
X141724119Y-107804438D01*
X141724119Y-108423485D02*
X141771738Y-108328247D01*
X141819357Y-108280628D01*
X141914595Y-108233009D01*
X142200309Y-108233009D01*
X142295547Y-108280628D01*
X142343166Y-108328247D01*
X142390785Y-108423485D01*
X142390785Y-108566342D01*
X142343166Y-108661580D01*
X142295547Y-108709200D01*
X142200309Y-108756819D01*
X141914595Y-108756819D01*
X141819357Y-108709200D01*
X141771738Y-108661580D01*
X141724119Y-108566342D01*
X141724119Y-108423485D01*
X142390785Y-109042533D02*
X142390785Y-109423485D01*
X142724119Y-109185390D02*
X141866976Y-109185390D01*
X141771738Y-109233009D01*
X141724119Y-109328247D01*
X141724119Y-109423485D01*
X141771738Y-110899676D02*
X141724119Y-110804438D01*
X141724119Y-110613961D01*
X141771738Y-110518723D01*
X141866976Y-110471104D01*
X142247928Y-110471104D01*
X142343166Y-110518723D01*
X142390785Y-110613961D01*
X142390785Y-110804438D01*
X142343166Y-110899676D01*
X142247928Y-110947295D01*
X142152690Y-110947295D01*
X142057452Y-110471104D01*
X141724119Y-111280628D02*
X142390785Y-111804438D01*
X142390785Y-111280628D02*
X141724119Y-111804438D01*
X141771738Y-112613961D02*
X141724119Y-112518723D01*
X141724119Y-112328247D01*
X141771738Y-112233009D01*
X141819357Y-112185390D01*
X141914595Y-112137771D01*
X142200309Y-112137771D01*
X142295547Y-112185390D01*
X142343166Y-112233009D01*
X142390785Y-112328247D01*
X142390785Y-112518723D01*
X142343166Y-112613961D01*
X141771738Y-113423485D02*
X141724119Y-113328247D01*
X141724119Y-113137771D01*
X141771738Y-113042533D01*
X141866976Y-112994914D01*
X142247928Y-112994914D01*
X142343166Y-113042533D01*
X142390785Y-113137771D01*
X142390785Y-113328247D01*
X142343166Y-113423485D01*
X142247928Y-113471104D01*
X142152690Y-113471104D01*
X142057452Y-112994914D01*
X141771738Y-114280628D02*
X141724119Y-114185390D01*
X141724119Y-113994914D01*
X141771738Y-113899676D01*
X141866976Y-113852057D01*
X142247928Y-113852057D01*
X142343166Y-113899676D01*
X142390785Y-113994914D01*
X142390785Y-114185390D01*
X142343166Y-114280628D01*
X142247928Y-114328247D01*
X142152690Y-114328247D01*
X142057452Y-113852057D01*
X141724119Y-115185390D02*
X142724119Y-115185390D01*
X141771738Y-115185390D02*
X141724119Y-115090152D01*
X141724119Y-114899676D01*
X141771738Y-114804438D01*
X141819357Y-114756819D01*
X141914595Y-114709200D01*
X142200309Y-114709200D01*
X142295547Y-114756819D01*
X142343166Y-114804438D01*
X142390785Y-114899676D01*
X142390785Y-115090152D01*
X142343166Y-115185390D01*
X142724119Y-116328247D02*
X142724119Y-116947295D01*
X142343166Y-116613961D01*
X142343166Y-116756819D01*
X142295547Y-116852057D01*
X142247928Y-116899676D01*
X142152690Y-116947295D01*
X141914595Y-116947295D01*
X141819357Y-116899676D01*
X141771738Y-116852057D01*
X141724119Y-116756819D01*
X141724119Y-116471104D01*
X141771738Y-116375866D01*
X141819357Y-116328247D01*
X142724119Y-117852057D02*
X142724119Y-117375866D01*
X142247928Y-117328247D01*
X142295547Y-117375866D01*
X142343166Y-117471104D01*
X142343166Y-117709200D01*
X142295547Y-117804438D01*
X142247928Y-117852057D01*
X142152690Y-117899676D01*
X141914595Y-117899676D01*
X141819357Y-117852057D01*
X141771738Y-117804438D01*
X141724119Y-117709200D01*
X141724119Y-117471104D01*
X141771738Y-117375866D01*
X141819357Y-117328247D01*
X142724119Y-118185390D02*
X141724119Y-118518723D01*
X142724119Y-118852057D01*
X141343166Y-119090152D02*
X141390785Y-119137771D01*
X141533642Y-119233009D01*
X141628880Y-119280628D01*
X141771738Y-119328247D01*
X142009833Y-119375866D01*
X142200309Y-119375866D01*
X142438404Y-119328247D01*
X142581261Y-119280628D01*
X142676500Y-119233009D01*
X142819357Y-119137771D01*
X142866976Y-119090152D01*
X163383980Y-81464066D02*
X163383980Y-81273590D01*
X163431600Y-81178352D01*
X163526838Y-81083114D01*
X163717314Y-81035495D01*
X164050647Y-81035495D01*
X164241123Y-81083114D01*
X164336361Y-81178352D01*
X164383980Y-81273590D01*
X164383980Y-81464066D01*
X164336361Y-81559304D01*
X164241123Y-81654542D01*
X164050647Y-81702161D01*
X163717314Y-81702161D01*
X163526838Y-81654542D01*
X163431600Y-81559304D01*
X163383980Y-81464066D01*
X163717314Y-80749780D02*
X163717314Y-80368828D01*
X164383980Y-80606923D02*
X163526838Y-80606923D01*
X163431600Y-80559304D01*
X163383980Y-80464066D01*
X163383980Y-80368828D01*
X163717314Y-80178352D02*
X163717314Y-79797400D01*
X164383980Y-80035495D02*
X163526838Y-80035495D01*
X163431600Y-79987876D01*
X163383980Y-79892638D01*
X163383980Y-79797400D01*
X163371280Y-88253819D02*
X163371280Y-88063342D01*
X163418900Y-87968104D01*
X163514138Y-87872866D01*
X163704614Y-87825247D01*
X164037947Y-87825247D01*
X164228423Y-87872866D01*
X164323661Y-87968104D01*
X164371280Y-88063342D01*
X164371280Y-88253819D01*
X164323661Y-88349057D01*
X164228423Y-88444295D01*
X164037947Y-88491914D01*
X163704614Y-88491914D01*
X163514138Y-88444295D01*
X163418900Y-88349057D01*
X163371280Y-88253819D01*
X163704614Y-87396676D02*
X164371280Y-87396676D01*
X163799852Y-87396676D02*
X163752233Y-87349057D01*
X163704614Y-87253819D01*
X163704614Y-87110961D01*
X163752233Y-87015723D01*
X163847471Y-86968104D01*
X164371280Y-86968104D01*
D11*
X143072825Y-99887700D02*
X143072825Y-100387700D01*
X142822825Y-100137700D02*
X143322825Y-100137700D01*
X148228600Y-101328700D02*
X148228600Y-101896700D01*
X148188600Y-101094700D02*
X148188600Y-102130700D01*
X148148600Y-100935700D02*
X148148600Y-102289700D01*
X148108600Y-100807700D02*
X148108600Y-102417700D01*
X148068600Y-100697700D02*
X148068600Y-102527700D01*
X148028600Y-100601700D02*
X148028600Y-102623700D01*
X147988600Y-100514700D02*
X147988600Y-102710700D01*
X147948600Y-100434700D02*
X147948600Y-102790700D01*
X147908600Y-100361700D02*
X147908600Y-102863700D01*
X147868600Y-100293700D02*
X147868600Y-102931700D01*
X147828600Y-100229700D02*
X147828600Y-102995700D01*
X147788600Y-100169700D02*
X147788600Y-103055700D01*
X147748600Y-100112700D02*
X147748600Y-103112700D01*
X147708600Y-100058700D02*
X147708600Y-103166700D01*
X147668600Y-100007700D02*
X147668600Y-103217700D01*
X147628600Y-102652700D02*
X147628600Y-103265700D01*
X147628600Y-99959700D02*
X147628600Y-100572700D01*
X147588600Y-102652700D02*
X147588600Y-103311700D01*
X147588600Y-99913700D02*
X147588600Y-100572700D01*
X147548600Y-102652700D02*
X147548600Y-103355700D01*
X147548600Y-99869700D02*
X147548600Y-100572700D01*
X147508600Y-102652700D02*
X147508600Y-103397700D01*
X147508600Y-99827700D02*
X147508600Y-100572700D01*
X147468600Y-102652700D02*
X147468600Y-103438700D01*
X147468600Y-99786700D02*
X147468600Y-100572700D01*
X147428600Y-102652700D02*
X147428600Y-103476700D01*
X147428600Y-99748700D02*
X147428600Y-100572700D01*
X147388600Y-102652700D02*
X147388600Y-103513700D01*
X147388600Y-99711700D02*
X147388600Y-100572700D01*
X147348600Y-102652700D02*
X147348600Y-103549700D01*
X147348600Y-99675700D02*
X147348600Y-100572700D01*
X147308600Y-102652700D02*
X147308600Y-103583700D01*
X147308600Y-99641700D02*
X147308600Y-100572700D01*
X147268600Y-102652700D02*
X147268600Y-103616700D01*
X147268600Y-99608700D02*
X147268600Y-100572700D01*
X147228600Y-102652700D02*
X147228600Y-103647700D01*
X147228600Y-99577700D02*
X147228600Y-100572700D01*
X147188600Y-102652700D02*
X147188600Y-103677700D01*
X147188600Y-99547700D02*
X147188600Y-100572700D01*
X147148600Y-102652700D02*
X147148600Y-103707700D01*
X147148600Y-99517700D02*
X147148600Y-100572700D01*
X147108600Y-102652700D02*
X147108600Y-103734700D01*
X147108600Y-99490700D02*
X147108600Y-100572700D01*
X147068600Y-102652700D02*
X147068600Y-103761700D01*
X147068600Y-99463700D02*
X147068600Y-100572700D01*
X147028600Y-102652700D02*
X147028600Y-103787700D01*
X147028600Y-99437700D02*
X147028600Y-100572700D01*
X146988600Y-102652700D02*
X146988600Y-103812700D01*
X146988600Y-99412700D02*
X146988600Y-100572700D01*
X146948600Y-102652700D02*
X146948600Y-103836700D01*
X146948600Y-99388700D02*
X146948600Y-100572700D01*
X146908600Y-102652700D02*
X146908600Y-103859700D01*
X146908600Y-99365700D02*
X146908600Y-100572700D01*
X146868600Y-102652700D02*
X146868600Y-103880700D01*
X146868600Y-99344700D02*
X146868600Y-100572700D01*
X146828600Y-102652700D02*
X146828600Y-103902700D01*
X146828600Y-99322700D02*
X146828600Y-100572700D01*
X146788600Y-102652700D02*
X146788600Y-103922700D01*
X146788600Y-99302700D02*
X146788600Y-100572700D01*
X146748600Y-102652700D02*
X146748600Y-103941700D01*
X146748600Y-99283700D02*
X146748600Y-100572700D01*
X146708600Y-102652700D02*
X146708600Y-103960700D01*
X146708600Y-99264700D02*
X146708600Y-100572700D01*
X146668600Y-102652700D02*
X146668600Y-103977700D01*
X146668600Y-99247700D02*
X146668600Y-100572700D01*
X146628600Y-102652700D02*
X146628600Y-103994700D01*
X146628600Y-99230700D02*
X146628600Y-100572700D01*
X146588600Y-102652700D02*
X146588600Y-104010700D01*
X146588600Y-99214700D02*
X146588600Y-100572700D01*
X146548600Y-102652700D02*
X146548600Y-104026700D01*
X146548600Y-99198700D02*
X146548600Y-100572700D01*
X146508600Y-102652700D02*
X146508600Y-104040700D01*
X146508600Y-99184700D02*
X146508600Y-100572700D01*
X146468600Y-102652700D02*
X146468600Y-104054700D01*
X146468600Y-99170700D02*
X146468600Y-100572700D01*
X146428600Y-102652700D02*
X146428600Y-104067700D01*
X146428600Y-99157700D02*
X146428600Y-100572700D01*
X146388600Y-102652700D02*
X146388600Y-104080700D01*
X146388600Y-99144700D02*
X146388600Y-100572700D01*
X146348600Y-102652700D02*
X146348600Y-104092700D01*
X146348600Y-99132700D02*
X146348600Y-100572700D01*
X146307600Y-102652700D02*
X146307600Y-104103700D01*
X146307600Y-99121700D02*
X146307600Y-100572700D01*
X146267600Y-102652700D02*
X146267600Y-104113700D01*
X146267600Y-99111700D02*
X146267600Y-100572700D01*
X146227600Y-102652700D02*
X146227600Y-104123700D01*
X146227600Y-99101700D02*
X146227600Y-100572700D01*
X146187600Y-102652700D02*
X146187600Y-104132700D01*
X146187600Y-99092700D02*
X146187600Y-100572700D01*
X146147600Y-102652700D02*
X146147600Y-104140700D01*
X146147600Y-99084700D02*
X146147600Y-100572700D01*
X146107600Y-102652700D02*
X146107600Y-104148700D01*
X146107600Y-99076700D02*
X146107600Y-100572700D01*
X146067600Y-102652700D02*
X146067600Y-104155700D01*
X146067600Y-99069700D02*
X146067600Y-100572700D01*
X146027600Y-102652700D02*
X146027600Y-104162700D01*
X146027600Y-99062700D02*
X146027600Y-100572700D01*
X145987600Y-102652700D02*
X145987600Y-104168700D01*
X145987600Y-99056700D02*
X145987600Y-100572700D01*
X145947600Y-102652700D02*
X145947600Y-104173700D01*
X145947600Y-99051700D02*
X145947600Y-100572700D01*
X145907600Y-102652700D02*
X145907600Y-104177700D01*
X145907600Y-99047700D02*
X145907600Y-100572700D01*
X145867600Y-102652700D02*
X145867600Y-104181700D01*
X145867600Y-99043700D02*
X145867600Y-100572700D01*
X145827600Y-102652700D02*
X145827600Y-104185700D01*
X145827600Y-99039700D02*
X145827600Y-100572700D01*
X145787600Y-102652700D02*
X145787600Y-104188700D01*
X145787600Y-99036700D02*
X145787600Y-100572700D01*
X145747600Y-102652700D02*
X145747600Y-104190700D01*
X145747600Y-99034700D02*
X145747600Y-100572700D01*
X145707600Y-102652700D02*
X145707600Y-104191700D01*
X145707600Y-99033700D02*
X145707600Y-100572700D01*
X145667600Y-99032700D02*
X145667600Y-100572700D01*
X145667600Y-102652700D02*
X145667600Y-104192700D01*
X145627600Y-99032700D02*
X145627600Y-100572700D01*
X145627600Y-102652700D02*
X145627600Y-104192700D01*
X148247600Y-101612700D02*
G75*
G03X148247600Y-101612700I-2620000J0D01*
G01*
X143097500Y-89766800D02*
X144607500Y-89766800D01*
X143097500Y-93467800D02*
X144607500Y-93467800D01*
X144607500Y-96737800D02*
X144607500Y-86497800D01*
X143097500Y-86497800D02*
X147738500Y-86497800D01*
X143097500Y-96737800D02*
X147738500Y-96737800D01*
X147738500Y-96737800D02*
X147738500Y-86497800D01*
X143097500Y-96737800D02*
X143097500Y-86497800D01*
X169977700Y-82783300D02*
X169977700Y-81783300D01*
X169477700Y-82283300D02*
X169977700Y-82783300D01*
X169977700Y-81783300D02*
X169477700Y-82283300D01*
X164757700Y-88693300D02*
X165067700Y-88693300D01*
X164757700Y-79873300D02*
X165067700Y-79873300D01*
X168967700Y-79873300D02*
X169277700Y-79873300D01*
X164757700Y-88693300D02*
X164757700Y-79873300D01*
X169277700Y-88693300D02*
X168967700Y-88693300D01*
X169277700Y-79873300D02*
X169277700Y-88693300D01*
X170434500Y-93988400D02*
X170434500Y-96228400D01*
X166693500Y-93988400D02*
X166693500Y-96228400D01*
X166693500Y-96228400D02*
X170434500Y-96228400D01*
X166693500Y-93988400D02*
X170434500Y-93988400D01*
X166693500Y-93674400D02*
X166693500Y-96543400D01*
X170434500Y-91838400D02*
X170434500Y-98378400D01*
X167739500Y-98378400D02*
X170434500Y-98378400D01*
X167739500Y-91838400D02*
X170434500Y-91838400D01*
X150450300Y-82738900D02*
X150450300Y-82408900D01*
X143910300Y-82738900D02*
X150450300Y-82738900D01*
X143910300Y-82408900D02*
X143910300Y-82738900D01*
X150450300Y-79998900D02*
X150450300Y-80328900D01*
X143910300Y-79998900D02*
X150450300Y-79998900D01*
X143910300Y-80328900D02*
X143910300Y-79998900D01*
X169913300Y-111061500D02*
G75*
G03X169913300Y-111061500I-5120000J0D01*
G01*
X164793300Y-105981500D02*
X164793300Y-116141500D01*
X164833300Y-105981500D02*
X164833300Y-116141500D01*
X164873300Y-105981500D02*
X164873300Y-116141500D01*
X164913300Y-105982500D02*
X164913300Y-116140500D01*
X164953300Y-105983500D02*
X164953300Y-116139500D01*
X164993300Y-105984500D02*
X164993300Y-116138500D01*
X165033300Y-105986500D02*
X165033300Y-116136500D01*
X165073300Y-105988500D02*
X165073300Y-116134500D01*
X165113300Y-105991500D02*
X165113300Y-116131500D01*
X165153300Y-105993500D02*
X165153300Y-116129500D01*
X165193300Y-105996500D02*
X165193300Y-116126500D01*
X165233300Y-105999500D02*
X165233300Y-116123500D01*
X165273300Y-106003500D02*
X165273300Y-116119500D01*
X165313300Y-106007500D02*
X165313300Y-116115500D01*
X165353300Y-106011500D02*
X165353300Y-116111500D01*
X165393300Y-106016500D02*
X165393300Y-116106500D01*
X165433300Y-106021500D02*
X165433300Y-116101500D01*
X165473300Y-106026500D02*
X165473300Y-116096500D01*
X165514300Y-106031500D02*
X165514300Y-116091500D01*
X165554300Y-106037500D02*
X165554300Y-116085500D01*
X165594300Y-106043500D02*
X165594300Y-116079500D01*
X165634300Y-106050500D02*
X165634300Y-116072500D01*
X165674300Y-106057500D02*
X165674300Y-116065500D01*
X165714300Y-106064500D02*
X165714300Y-116058500D01*
X165754300Y-106071500D02*
X165754300Y-116051500D01*
X165794300Y-106079500D02*
X165794300Y-116043500D01*
X165834300Y-106087500D02*
X165834300Y-116035500D01*
X165874300Y-106096500D02*
X165874300Y-116026500D01*
X165914300Y-106105500D02*
X165914300Y-116017500D01*
X165954300Y-106114500D02*
X165954300Y-116008500D01*
X165994300Y-106123500D02*
X165994300Y-115999500D01*
X166034300Y-106133500D02*
X166034300Y-115989500D01*
X166074300Y-106143500D02*
X166074300Y-109820500D01*
X166074300Y-112302500D02*
X166074300Y-115979500D01*
X166114300Y-106154500D02*
X166114300Y-109820500D01*
X166114300Y-112302500D02*
X166114300Y-115968500D01*
X166154300Y-106164500D02*
X166154300Y-109820500D01*
X166154300Y-112302500D02*
X166154300Y-115958500D01*
X166194300Y-106176500D02*
X166194300Y-109820500D01*
X166194300Y-112302500D02*
X166194300Y-115946500D01*
X166234300Y-106187500D02*
X166234300Y-109820500D01*
X166234300Y-112302500D02*
X166234300Y-115935500D01*
X166274300Y-106199500D02*
X166274300Y-109820500D01*
X166274300Y-112302500D02*
X166274300Y-115923500D01*
X166314300Y-106211500D02*
X166314300Y-109820500D01*
X166314300Y-112302500D02*
X166314300Y-115911500D01*
X166354300Y-106224500D02*
X166354300Y-109820500D01*
X166354300Y-112302500D02*
X166354300Y-115898500D01*
X166394300Y-106237500D02*
X166394300Y-109820500D01*
X166394300Y-112302500D02*
X166394300Y-115885500D01*
X166434300Y-106250500D02*
X166434300Y-109820500D01*
X166434300Y-112302500D02*
X166434300Y-115872500D01*
X166474300Y-106264500D02*
X166474300Y-109820500D01*
X166474300Y-112302500D02*
X166474300Y-115858500D01*
X166514300Y-106278500D02*
X166514300Y-109820500D01*
X166514300Y-112302500D02*
X166514300Y-115844500D01*
X166554300Y-106293500D02*
X166554300Y-109820500D01*
X166554300Y-112302500D02*
X166554300Y-115829500D01*
X166594300Y-106307500D02*
X166594300Y-109820500D01*
X166594300Y-112302500D02*
X166594300Y-115815500D01*
X166634300Y-106323500D02*
X166634300Y-109820500D01*
X166634300Y-112302500D02*
X166634300Y-115799500D01*
X166674300Y-106338500D02*
X166674300Y-109820500D01*
X166674300Y-112302500D02*
X166674300Y-115784500D01*
X166714300Y-106354500D02*
X166714300Y-109820500D01*
X166714300Y-112302500D02*
X166714300Y-115768500D01*
X166754300Y-106371500D02*
X166754300Y-109820500D01*
X166754300Y-112302500D02*
X166754300Y-115751500D01*
X166794300Y-106387500D02*
X166794300Y-109820500D01*
X166794300Y-112302500D02*
X166794300Y-115735500D01*
X166834300Y-106404500D02*
X166834300Y-109820500D01*
X166834300Y-112302500D02*
X166834300Y-115718500D01*
X166874300Y-106422500D02*
X166874300Y-109820500D01*
X166874300Y-112302500D02*
X166874300Y-115700500D01*
X166914300Y-106440500D02*
X166914300Y-109820500D01*
X166914300Y-112302500D02*
X166914300Y-115682500D01*
X166954300Y-106458500D02*
X166954300Y-109820500D01*
X166954300Y-112302500D02*
X166954300Y-115664500D01*
X166994300Y-106477500D02*
X166994300Y-109820500D01*
X166994300Y-112302500D02*
X166994300Y-115645500D01*
X167034300Y-106497500D02*
X167034300Y-109820500D01*
X167034300Y-112302500D02*
X167034300Y-115625500D01*
X167074300Y-106516500D02*
X167074300Y-109820500D01*
X167074300Y-112302500D02*
X167074300Y-115606500D01*
X167114300Y-106536500D02*
X167114300Y-109820500D01*
X167114300Y-112302500D02*
X167114300Y-115586500D01*
X167154300Y-106557500D02*
X167154300Y-109820500D01*
X167154300Y-112302500D02*
X167154300Y-115565500D01*
X167194300Y-106578500D02*
X167194300Y-109820500D01*
X167194300Y-112302500D02*
X167194300Y-115544500D01*
X167234300Y-106599500D02*
X167234300Y-109820500D01*
X167234300Y-112302500D02*
X167234300Y-115523500D01*
X167274300Y-106621500D02*
X167274300Y-109820500D01*
X167274300Y-112302500D02*
X167274300Y-115501500D01*
X167314300Y-106644500D02*
X167314300Y-109820500D01*
X167314300Y-112302500D02*
X167314300Y-115478500D01*
X167354300Y-106666500D02*
X167354300Y-109820500D01*
X167354300Y-112302500D02*
X167354300Y-115456500D01*
X167394300Y-106690500D02*
X167394300Y-109820500D01*
X167394300Y-112302500D02*
X167394300Y-115432500D01*
X167434300Y-106714500D02*
X167434300Y-109820500D01*
X167434300Y-112302500D02*
X167434300Y-115408500D01*
X167474300Y-106738500D02*
X167474300Y-109820500D01*
X167474300Y-112302500D02*
X167474300Y-115384500D01*
X167514300Y-106763500D02*
X167514300Y-109820500D01*
X167514300Y-112302500D02*
X167514300Y-115359500D01*
X167554300Y-106788500D02*
X167554300Y-109820500D01*
X167554300Y-112302500D02*
X167554300Y-115334500D01*
X167594300Y-106814500D02*
X167594300Y-109820500D01*
X167594300Y-112302500D02*
X167594300Y-115308500D01*
X167634300Y-106840500D02*
X167634300Y-109820500D01*
X167634300Y-112302500D02*
X167634300Y-115282500D01*
X167674300Y-106867500D02*
X167674300Y-109820500D01*
X167674300Y-112302500D02*
X167674300Y-115255500D01*
X167714300Y-106895500D02*
X167714300Y-109820500D01*
X167714300Y-112302500D02*
X167714300Y-115227500D01*
X167754300Y-106923500D02*
X167754300Y-109820500D01*
X167754300Y-112302500D02*
X167754300Y-115199500D01*
X167794300Y-106951500D02*
X167794300Y-109820500D01*
X167794300Y-112302500D02*
X167794300Y-115171500D01*
X167834300Y-106981500D02*
X167834300Y-109820500D01*
X167834300Y-112302500D02*
X167834300Y-115141500D01*
X167874300Y-107011500D02*
X167874300Y-109820500D01*
X167874300Y-112302500D02*
X167874300Y-115111500D01*
X167914300Y-107041500D02*
X167914300Y-109820500D01*
X167914300Y-112302500D02*
X167914300Y-115081500D01*
X167954300Y-107072500D02*
X167954300Y-109820500D01*
X167954300Y-112302500D02*
X167954300Y-115050500D01*
X167994300Y-107104500D02*
X167994300Y-109820500D01*
X167994300Y-112302500D02*
X167994300Y-115018500D01*
X168034300Y-107136500D02*
X168034300Y-109820500D01*
X168034300Y-112302500D02*
X168034300Y-114986500D01*
X168074300Y-107169500D02*
X168074300Y-109820500D01*
X168074300Y-112302500D02*
X168074300Y-114953500D01*
X168114300Y-107203500D02*
X168114300Y-109820500D01*
X168114300Y-112302500D02*
X168114300Y-114919500D01*
X168154300Y-107237500D02*
X168154300Y-109820500D01*
X168154300Y-112302500D02*
X168154300Y-114885500D01*
X168194300Y-107272500D02*
X168194300Y-109820500D01*
X168194300Y-112302500D02*
X168194300Y-114850500D01*
X168234300Y-107308500D02*
X168234300Y-109820500D01*
X168234300Y-112302500D02*
X168234300Y-114814500D01*
X168274300Y-107345500D02*
X168274300Y-109820500D01*
X168274300Y-112302500D02*
X168274300Y-114777500D01*
X168314300Y-107382500D02*
X168314300Y-109820500D01*
X168314300Y-112302500D02*
X168314300Y-114740500D01*
X168354300Y-107421500D02*
X168354300Y-109820500D01*
X168354300Y-112302500D02*
X168354300Y-114701500D01*
X168394300Y-107460500D02*
X168394300Y-109820500D01*
X168394300Y-112302500D02*
X168394300Y-114662500D01*
X168434300Y-107500500D02*
X168434300Y-109820500D01*
X168434300Y-112302500D02*
X168434300Y-114622500D01*
X168474300Y-107541500D02*
X168474300Y-109820500D01*
X168474300Y-112302500D02*
X168474300Y-114581500D01*
X168514300Y-107583500D02*
X168514300Y-109820500D01*
X168514300Y-112302500D02*
X168514300Y-114539500D01*
X168554300Y-107625500D02*
X168554300Y-114497500D01*
X168594300Y-107669500D02*
X168594300Y-114453500D01*
X168634300Y-107714500D02*
X168634300Y-114408500D01*
X168674300Y-107760500D02*
X168674300Y-114362500D01*
X168714300Y-107807500D02*
X168714300Y-114315500D01*
X168754300Y-107855500D02*
X168754300Y-114267500D01*
X168794300Y-107905500D02*
X168794300Y-114217500D01*
X168834300Y-107955500D02*
X168834300Y-114167500D01*
X168874300Y-108007500D02*
X168874300Y-114115500D01*
X168914300Y-108061500D02*
X168914300Y-114061500D01*
X168954300Y-108116500D02*
X168954300Y-114006500D01*
X168994300Y-108172500D02*
X168994300Y-113950500D01*
X169034300Y-108231500D02*
X169034300Y-113891500D01*
X169074300Y-108291500D02*
X169074300Y-113831500D01*
X169114300Y-108352500D02*
X169114300Y-113770500D01*
X169154300Y-108416500D02*
X169154300Y-113706500D01*
X169194300Y-108482500D02*
X169194300Y-113640500D01*
X169234300Y-108551500D02*
X169234300Y-113571500D01*
X169274300Y-108622500D02*
X169274300Y-113500500D01*
X169314300Y-108696500D02*
X169314300Y-113426500D01*
X169354300Y-108772500D02*
X169354300Y-113350500D01*
X169394300Y-108852500D02*
X169394300Y-113270500D01*
X169434300Y-108936500D02*
X169434300Y-113186500D01*
X169474300Y-109024500D02*
X169474300Y-113098500D01*
X169514300Y-109117500D02*
X169514300Y-113005500D01*
X169554300Y-109215500D02*
X169554300Y-112907500D01*
X169594300Y-109319500D02*
X169594300Y-112803500D01*
X169634300Y-109431500D02*
X169634300Y-112691500D01*
X169674300Y-109551500D02*
X169674300Y-112571500D01*
X169714300Y-109683500D02*
X169714300Y-112439500D01*
X169754300Y-109831500D02*
X169754300Y-112291500D01*
X169794300Y-109999500D02*
X169794300Y-112123500D01*
X169834300Y-110199500D02*
X169834300Y-111923500D01*
X169874300Y-110462500D02*
X169874300Y-111660500D01*
X159313654Y-108186500D02*
X160313654Y-108186500D01*
X159813654Y-107686500D02*
X159813654Y-108686500D01*
X153271000Y-101222200D02*
X153271000Y-104162200D01*
X153271000Y-104162200D02*
X158711000Y-104162200D01*
X158711000Y-104162200D02*
X158711000Y-101222200D01*
X158711000Y-101222200D02*
X153271000Y-101222200D01*
X152251000Y-102692200D02*
X153271000Y-102692200D01*
X159731000Y-102692200D02*
X158711000Y-102692200D01*
X154171000Y-101222200D02*
X154171000Y-104162200D01*
X154291000Y-101222200D02*
X154291000Y-104162200D01*
X154051000Y-101222200D02*
X154051000Y-104162200D01*
X154051000Y-95599675D02*
X154051000Y-98539675D01*
X154291000Y-95599675D02*
X154291000Y-98539675D01*
X154171000Y-95599675D02*
X154171000Y-98539675D01*
X159731000Y-97069675D02*
X158711000Y-97069675D01*
X152251000Y-97069675D02*
X153271000Y-97069675D01*
X158711000Y-95599675D02*
X153271000Y-95599675D01*
X158711000Y-98539675D02*
X158711000Y-95599675D01*
X153271000Y-98539675D02*
X158711000Y-98539675D01*
X153271000Y-95599675D02*
X153271000Y-98539675D01*
X153271000Y-89977150D02*
X153271000Y-92917150D01*
X153271000Y-92917150D02*
X158711000Y-92917150D01*
X158711000Y-92917150D02*
X158711000Y-89977150D01*
X158711000Y-89977150D02*
X153271000Y-89977150D01*
X152251000Y-91447150D02*
X153271000Y-91447150D01*
X159731000Y-91447150D02*
X158711000Y-91447150D01*
X154171000Y-89977150D02*
X154171000Y-92917150D01*
X154291000Y-89977150D02*
X154291000Y-92917150D01*
X154051000Y-89977150D02*
X154051000Y-92917150D01*
X154051000Y-84354625D02*
X154051000Y-87294625D01*
X154291000Y-84354625D02*
X154291000Y-87294625D01*
X154171000Y-84354625D02*
X154171000Y-87294625D01*
X159731000Y-85824625D02*
X158711000Y-85824625D01*
X152251000Y-85824625D02*
X153271000Y-85824625D01*
X158711000Y-84354625D02*
X153271000Y-84354625D01*
X158711000Y-87294625D02*
X158711000Y-84354625D01*
X153271000Y-87294625D02*
X158711000Y-87294625D01*
X153271000Y-84354625D02*
X153271000Y-87294625D01*
X165748592Y-100816665D02*
G75*
G03X165591684Y-104049000I1078608J-1672335D01*
G01*
X167905808Y-100816665D02*
G75*
G02X168062716Y-104049000I-1078608J-1672335D01*
G01*
X165747363Y-101447870D02*
G75*
G03X165747200Y-103529961I1079837J-1041130D01*
G01*
X167907037Y-101447870D02*
G75*
G02X167907200Y-103529961I-1079837J-1041130D01*
G01*
X165591200Y-104049000D02*
X165747200Y-104049000D01*
X167907200Y-104049000D02*
X168063200Y-104049000D01*
X152013300Y-115559900D02*
X143513300Y-115559900D01*
X143513300Y-115559900D02*
X143513300Y-106359900D01*
X143513300Y-106359900D02*
X158213300Y-106359900D01*
X158213300Y-113459900D02*
X158213300Y-115559900D01*
X158213300Y-115559900D02*
X156413300Y-115559900D01*
X158513300Y-107759900D02*
X158513300Y-106059900D01*
X158513300Y-106059900D02*
X156913300Y-106059900D01*
X158213300Y-106359900D02*
X158213300Y-108459900D01*
X146057500Y-123161100D02*
X151257500Y-123161100D01*
X146057500Y-120561100D02*
X146057500Y-123161100D01*
X151257500Y-117961100D02*
X151257500Y-123161100D01*
X146057500Y-120561100D02*
X148657500Y-120561100D01*
X148657500Y-120561100D02*
X148657500Y-117961100D01*
X148657500Y-117961100D02*
X151257500Y-117961100D01*
X146057500Y-119291100D02*
X146057500Y-117961100D01*
X146057500Y-117961100D02*
X147387500Y-117961100D01*
X161005400Y-72977700D02*
X162335400Y-72977700D01*
X161005400Y-74307700D02*
X161005400Y-72977700D01*
X163605400Y-72977700D02*
X166205400Y-72977700D01*
X163605400Y-75577700D02*
X163605400Y-72977700D01*
X161005400Y-75577700D02*
X163605400Y-75577700D01*
X166205400Y-72977700D02*
X166205400Y-78177700D01*
X161005400Y-75577700D02*
X161005400Y-78177700D01*
X161005400Y-78177700D02*
X166205400Y-78177700D01*
X146057500Y-72977700D02*
X147387500Y-72977700D01*
X146057500Y-74307700D02*
X146057500Y-72977700D01*
X148657500Y-72977700D02*
X151257500Y-72977700D01*
X148657500Y-75577700D02*
X148657500Y-72977700D01*
X146057500Y-75577700D02*
X148657500Y-75577700D01*
X151257500Y-72977700D02*
X151257500Y-78177700D01*
X146057500Y-75577700D02*
X146057500Y-78177700D01*
X146057500Y-78177700D02*
X151257500Y-78177700D01*
X161068900Y-123161100D02*
X166268900Y-123161100D01*
X161068900Y-120561100D02*
X161068900Y-123161100D01*
X166268900Y-117961100D02*
X166268900Y-123161100D01*
X161068900Y-120561100D02*
X163668900Y-120561100D01*
X163668900Y-120561100D02*
X163668900Y-117961100D01*
X163668900Y-117961100D02*
X166268900Y-117961100D01*
X161068900Y-119291100D02*
X161068900Y-117961100D01*
X161068900Y-117961100D02*
X162398900Y-117961100D01*
X154159200Y-80328900D02*
X154159200Y-79998900D01*
X154159200Y-79998900D02*
X160699200Y-79998900D01*
X160699200Y-79998900D02*
X160699200Y-80328900D01*
X154159200Y-82408900D02*
X154159200Y-82738900D01*
X154159200Y-82738900D02*
X160699200Y-82738900D01*
X160699200Y-82738900D02*
X160699200Y-82408900D01*
D10*
X145460933Y-98219842D02*
X145413314Y-98267461D01*
X145270457Y-98315080D01*
X145175219Y-98315080D01*
X145032361Y-98267461D01*
X144937123Y-98172223D01*
X144889504Y-98076985D01*
X144841885Y-97886509D01*
X144841885Y-97743652D01*
X144889504Y-97553176D01*
X144937123Y-97457938D01*
X145032361Y-97362700D01*
X145175219Y-97315080D01*
X145270457Y-97315080D01*
X145413314Y-97362700D01*
X145460933Y-97410319D01*
X145841885Y-97410319D02*
X145889504Y-97362700D01*
X145984742Y-97315080D01*
X146222838Y-97315080D01*
X146318076Y-97362700D01*
X146365695Y-97410319D01*
X146413314Y-97505557D01*
X146413314Y-97600795D01*
X146365695Y-97743652D01*
X145794266Y-98315080D01*
X146413314Y-98315080D01*
X141549880Y-92379704D02*
X142359404Y-92379704D01*
X142454642Y-92332085D01*
X142502261Y-92284466D01*
X142549880Y-92189228D01*
X142549880Y-91998752D01*
X142502261Y-91903514D01*
X142454642Y-91855895D01*
X142359404Y-91808276D01*
X141549880Y-91808276D01*
X142549880Y-90808276D02*
X142549880Y-91379704D01*
X142549880Y-91093990D02*
X141549880Y-91093990D01*
X141692738Y-91189228D01*
X141787976Y-91284466D01*
X141835595Y-91379704D01*
X164298261Y-85394633D02*
X164345880Y-85251776D01*
X164345880Y-85013680D01*
X164298261Y-84918442D01*
X164250642Y-84870823D01*
X164155404Y-84823204D01*
X164060166Y-84823204D01*
X163964928Y-84870823D01*
X163917309Y-84918442D01*
X163869690Y-85013680D01*
X163822071Y-85204157D01*
X163774452Y-85299395D01*
X163726833Y-85347014D01*
X163631595Y-85394633D01*
X163536357Y-85394633D01*
X163441119Y-85347014D01*
X163393500Y-85299395D01*
X163345880Y-85204157D01*
X163345880Y-84966061D01*
X163393500Y-84823204D01*
X163345880Y-84489871D02*
X164345880Y-84251776D01*
X163631595Y-84061300D01*
X164345880Y-83870823D01*
X163345880Y-83632728D01*
X164345880Y-82727966D02*
X164345880Y-83299395D01*
X164345880Y-83013680D02*
X163345880Y-83013680D01*
X163488738Y-83108919D01*
X163583976Y-83204157D01*
X163631595Y-83299395D01*
X165247580Y-95235638D02*
X164771390Y-95568971D01*
X165247580Y-95807066D02*
X164247580Y-95807066D01*
X164247580Y-95426114D01*
X164295200Y-95330876D01*
X164342819Y-95283257D01*
X164438057Y-95235638D01*
X164580914Y-95235638D01*
X164676152Y-95283257D01*
X164723771Y-95330876D01*
X164771390Y-95426114D01*
X164771390Y-95807066D01*
X164247580Y-94949923D02*
X165247580Y-94616590D01*
X164247580Y-94283257D01*
X165247580Y-93426114D02*
X165247580Y-93997542D01*
X165247580Y-93711828D02*
X164247580Y-93711828D01*
X164390438Y-93807066D01*
X164485676Y-93902304D01*
X164533295Y-93997542D01*
X143902133Y-79573380D02*
X143568800Y-79097190D01*
X143330704Y-79573380D02*
X143330704Y-78573380D01*
X143711657Y-78573380D01*
X143806895Y-78621000D01*
X143854514Y-78668619D01*
X143902133Y-78763857D01*
X143902133Y-78906714D01*
X143854514Y-79001952D01*
X143806895Y-79049571D01*
X143711657Y-79097190D01*
X143330704Y-79097190D01*
X144283085Y-78668619D02*
X144330704Y-78621000D01*
X144425942Y-78573380D01*
X144664038Y-78573380D01*
X144759276Y-78621000D01*
X144806895Y-78668619D01*
X144854514Y-78763857D01*
X144854514Y-78859095D01*
X144806895Y-79001952D01*
X144235466Y-79573380D01*
X144854514Y-79573380D01*
X160399433Y-106300542D02*
X160351814Y-106348161D01*
X160208957Y-106395780D01*
X160113719Y-106395780D01*
X159970861Y-106348161D01*
X159875623Y-106252923D01*
X159828004Y-106157685D01*
X159780385Y-105967209D01*
X159780385Y-105824352D01*
X159828004Y-105633876D01*
X159875623Y-105538638D01*
X159970861Y-105443400D01*
X160113719Y-105395780D01*
X160208957Y-105395780D01*
X160351814Y-105443400D01*
X160399433Y-105491019D01*
X161351814Y-106395780D02*
X160780385Y-106395780D01*
X161066100Y-106395780D02*
X161066100Y-105395780D01*
X160970861Y-105538638D01*
X160875623Y-105633876D01*
X160780385Y-105681495D01*
X155252904Y-100674580D02*
X155252904Y-99674580D01*
X155491000Y-99674580D01*
X155633857Y-99722200D01*
X155729095Y-99817438D01*
X155776714Y-99912676D01*
X155824333Y-100103152D01*
X155824333Y-100246009D01*
X155776714Y-100436485D01*
X155729095Y-100531723D01*
X155633857Y-100626961D01*
X155491000Y-100674580D01*
X155252904Y-100674580D01*
X156776714Y-100674580D02*
X156205285Y-100674580D01*
X156491000Y-100674580D02*
X156491000Y-99674580D01*
X156395761Y-99817438D01*
X156300523Y-99912676D01*
X156205285Y-99960295D01*
X150649095Y-101044580D02*
X150649095Y-100044580D01*
X151220523Y-101044580D02*
X150791952Y-100473152D01*
X151220523Y-100044580D02*
X150649095Y-100616009D01*
X155252904Y-95052055D02*
X155252904Y-94052055D01*
X155491000Y-94052055D01*
X155633857Y-94099675D01*
X155729095Y-94194913D01*
X155776714Y-94290151D01*
X155824333Y-94480627D01*
X155824333Y-94623484D01*
X155776714Y-94813960D01*
X155729095Y-94909198D01*
X155633857Y-95004436D01*
X155491000Y-95052055D01*
X155252904Y-95052055D01*
X156205285Y-94147294D02*
X156252904Y-94099675D01*
X156348142Y-94052055D01*
X156586238Y-94052055D01*
X156681476Y-94099675D01*
X156729095Y-94147294D01*
X156776714Y-94242532D01*
X156776714Y-94337770D01*
X156729095Y-94480627D01*
X156157666Y-95052055D01*
X156776714Y-95052055D01*
X150649095Y-95422055D02*
X150649095Y-94422055D01*
X151220523Y-95422055D02*
X150791952Y-94850627D01*
X151220523Y-94422055D02*
X150649095Y-94993484D01*
X155252904Y-89429530D02*
X155252904Y-88429530D01*
X155491000Y-88429530D01*
X155633857Y-88477150D01*
X155729095Y-88572388D01*
X155776714Y-88667626D01*
X155824333Y-88858102D01*
X155824333Y-89000959D01*
X155776714Y-89191435D01*
X155729095Y-89286673D01*
X155633857Y-89381911D01*
X155491000Y-89429530D01*
X155252904Y-89429530D01*
X156157666Y-88429530D02*
X156776714Y-88429530D01*
X156443380Y-88810483D01*
X156586238Y-88810483D01*
X156681476Y-88858102D01*
X156729095Y-88905721D01*
X156776714Y-89000959D01*
X156776714Y-89239054D01*
X156729095Y-89334292D01*
X156681476Y-89381911D01*
X156586238Y-89429530D01*
X156300523Y-89429530D01*
X156205285Y-89381911D01*
X156157666Y-89334292D01*
X150649095Y-89799530D02*
X150649095Y-88799530D01*
X151220523Y-89799530D02*
X150791952Y-89228102D01*
X151220523Y-88799530D02*
X150649095Y-89370959D01*
X155252904Y-83807005D02*
X155252904Y-82807005D01*
X155491000Y-82807005D01*
X155633857Y-82854625D01*
X155729095Y-82949863D01*
X155776714Y-83045101D01*
X155824333Y-83235577D01*
X155824333Y-83378434D01*
X155776714Y-83568910D01*
X155729095Y-83664148D01*
X155633857Y-83759386D01*
X155491000Y-83807005D01*
X155252904Y-83807005D01*
X156681476Y-83140339D02*
X156681476Y-83807005D01*
X156443380Y-82759386D02*
X156205285Y-83473672D01*
X156824333Y-83473672D01*
X150649095Y-84177005D02*
X150649095Y-83177005D01*
X151220523Y-84177005D02*
X150791952Y-83605577D01*
X151220523Y-83177005D02*
X150649095Y-83748434D01*
X164319580Y-103227095D02*
X163319580Y-103227095D01*
X163319580Y-102989000D01*
X163367200Y-102846142D01*
X163462438Y-102750904D01*
X163557676Y-102703285D01*
X163748152Y-102655666D01*
X163891009Y-102655666D01*
X164081485Y-102703285D01*
X164176723Y-102750904D01*
X164271961Y-102846142D01*
X164319580Y-102989000D01*
X164319580Y-103227095D01*
X163319580Y-101750904D02*
X163319580Y-102227095D01*
X163795771Y-102274714D01*
X163748152Y-102227095D01*
X163700533Y-102131857D01*
X163700533Y-101893761D01*
X163748152Y-101798523D01*
X163795771Y-101750904D01*
X163891009Y-101703285D01*
X164129104Y-101703285D01*
X164224342Y-101750904D01*
X164271961Y-101798523D01*
X164319580Y-101893761D01*
X164319580Y-102131857D01*
X164271961Y-102227095D01*
X164224342Y-102274714D01*
X153643080Y-111420233D02*
X154357366Y-111420233D01*
X154500223Y-111467852D01*
X154595461Y-111563090D01*
X154643080Y-111705947D01*
X154643080Y-111801185D01*
X154643080Y-110420233D02*
X154643080Y-110991661D01*
X154643080Y-110705947D02*
X153643080Y-110705947D01*
X153785938Y-110801185D01*
X153881176Y-110896423D01*
X153928795Y-110991661D01*
X157211733Y-79522580D02*
X156878400Y-79046390D01*
X156640304Y-79522580D02*
X156640304Y-78522580D01*
X157021257Y-78522580D01*
X157116495Y-78570200D01*
X157164114Y-78617819D01*
X157211733Y-78713057D01*
X157211733Y-78855914D01*
X157164114Y-78951152D01*
X157116495Y-78998771D01*
X157021257Y-79046390D01*
X156640304Y-79046390D01*
X158164114Y-79522580D02*
X157592685Y-79522580D01*
X157878400Y-79522580D02*
X157878400Y-78522580D01*
X157783161Y-78665438D01*
X157687923Y-78760676D01*
X157592685Y-78808295D01*
M02*
