G04 #@! TF.GenerationSoftware,KiCad,Pcbnew,(5.1.4)-1*
G04 #@! TF.CreationDate,2021-12-08T14:09:57-07:00*
G04 #@! TF.ProjectId,BreadBoard PS Variable,42726561-6442-46f6-9172-642050532056,2*
G04 #@! TF.SameCoordinates,Original*
G04 #@! TF.FileFunction,Copper,L1,Top*
G04 #@! TF.FilePolarity,Positive*
%FSLAX46Y46*%
G04 Gerber Fmt 4.6, Leading zero omitted, Abs format (unit mm)*
G04 Created by KiCad (PCBNEW (5.1.4)-1) date 2021-12-08 14:09:57*
%MOMM*%
%LPD*%
G04 APERTURE LIST*
%ADD10C,1.600000*%
%ADD11R,1.600000X1.600000*%
%ADD12O,2.000000X1.905000*%
%ADD13R,2.000000X1.905000*%
%ADD14O,3.500000X2.200000*%
%ADD15O,2.500000X1.500000*%
%ADD16R,2.500000X1.500000*%
%ADD17C,1.620000*%
%ADD18O,1.600000X1.600000*%
%ADD19R,2.000000X2.000000*%
%ADD20C,2.000000*%
%ADD21R,2.200000X2.200000*%
%ADD22O,2.200000X2.200000*%
%ADD23R,1.800000X1.800000*%
%ADD24C,1.800000*%
%ADD25O,4.000000X1.800000*%
%ADD26O,1.800000X4.000000*%
%ADD27R,1.800000X4.400000*%
%ADD28R,1.700000X1.700000*%
%ADD29O,1.700000X1.700000*%
%ADD30C,0.300000*%
G04 APERTURE END LIST*
D10*
X146627600Y-101612700D03*
D11*
X144627600Y-101612700D03*
D12*
X146367500Y-89077800D03*
X146367500Y-91617800D03*
D13*
X146367500Y-94157800D03*
D14*
X167017700Y-88383300D03*
X167017700Y-80183300D03*
D15*
X167017700Y-86283300D03*
X167017700Y-84283300D03*
D16*
X167017700Y-82283300D03*
D17*
X166814500Y-92608400D03*
X169314500Y-95108400D03*
X166814500Y-97608400D03*
D18*
X150990300Y-81368900D03*
D10*
X143370300Y-81368900D03*
D19*
X162293300Y-111061500D03*
D20*
X167293300Y-111061500D03*
D21*
X150911000Y-102692200D03*
D22*
X161071000Y-102692200D03*
X161071000Y-97069675D03*
D21*
X150911000Y-97069675D03*
X150911000Y-91447150D03*
D22*
X161071000Y-91447150D03*
X161071000Y-85824625D03*
D21*
X150911000Y-85824625D03*
D23*
X166827200Y-103759000D03*
D24*
X166827200Y-101219000D03*
D25*
X154213300Y-115759900D03*
D26*
X151413300Y-110959900D03*
D27*
X157213300Y-110959900D03*
D28*
X147387500Y-119291100D03*
D29*
X149927500Y-119291100D03*
X147387500Y-121831100D03*
X149927500Y-121831100D03*
X164875400Y-76847700D03*
X162335400Y-76847700D03*
X164875400Y-74307700D03*
D28*
X162335400Y-74307700D03*
D29*
X149927500Y-76847700D03*
X147387500Y-76847700D03*
X149927500Y-74307700D03*
D28*
X147387500Y-74307700D03*
X162398900Y-119291100D03*
D29*
X164938900Y-119291100D03*
X162398900Y-121831100D03*
X164938900Y-121831100D03*
D10*
X153619200Y-81368900D03*
D18*
X161239200Y-81368900D03*
D30*
X150911000Y-92847150D02*
X150911000Y-91447150D01*
X149460999Y-94297151D02*
X150911000Y-92847150D01*
X149460999Y-99842199D02*
X149460999Y-94297151D01*
X150911000Y-101292200D02*
X149460999Y-99842199D01*
X150911000Y-102692200D02*
X150911000Y-101292200D01*
X147667500Y-89077800D02*
X146367500Y-89077800D01*
X149941650Y-89077800D02*
X147667500Y-89077800D01*
X150911000Y-90047150D02*
X149941650Y-89077800D01*
X150911000Y-91447150D02*
X150911000Y-90047150D01*
X150911000Y-104092200D02*
X150911000Y-102692200D01*
X150163290Y-104839910D02*
X150911000Y-104092200D01*
X150163290Y-112577671D02*
X150163290Y-104839910D01*
X151595530Y-114009911D02*
X150163290Y-112577671D01*
X160644889Y-114009911D02*
X151595530Y-114009911D01*
X162293300Y-112361500D02*
X160644889Y-114009911D01*
X162293300Y-111061500D02*
X162293300Y-112361500D01*
X157213300Y-106549900D02*
X161071000Y-102692200D01*
X157213300Y-110959900D02*
X157213300Y-106549900D01*
X155448475Y-97069675D02*
X161071000Y-102692200D01*
X150911000Y-97069675D02*
X155448475Y-97069675D01*
X151413300Y-110959900D02*
X151413300Y-109859900D01*
X162170999Y-92547149D02*
X161071000Y-91447150D01*
X162521001Y-92897151D02*
X162170999Y-92547149D01*
X160943299Y-104965903D02*
X162521001Y-103388201D01*
X160943299Y-110959903D02*
X160943299Y-104965903D01*
X162521001Y-103388201D02*
X162521001Y-92897151D01*
X158393301Y-113509901D02*
X160943299Y-110959903D01*
X155163301Y-113509901D02*
X158393301Y-113509901D01*
X152613300Y-110959900D02*
X155163301Y-113509901D01*
X151413300Y-110959900D02*
X152613300Y-110959900D01*
X150911000Y-87224625D02*
X150911000Y-85824625D01*
X155133525Y-91447150D02*
X150911000Y-87224625D01*
X161071000Y-91447150D02*
X155133525Y-91447150D01*
X154419199Y-82168899D02*
X153619200Y-81368900D01*
X163021011Y-90770711D02*
X154419199Y-82168899D01*
X163021011Y-101152811D02*
X163021011Y-90770711D01*
X165627200Y-103759000D02*
X163021011Y-101152811D01*
X166827200Y-103759000D02*
X165627200Y-103759000D01*
X167742200Y-82690200D02*
X166192200Y-82690200D01*
X166692200Y-82690200D02*
X166192200Y-82690200D01*
X143370300Y-82500270D02*
X143370300Y-81368900D01*
X145503900Y-79235300D02*
X143370300Y-81368900D01*
X161469700Y-79235300D02*
X145503900Y-79235300D01*
X167017700Y-84283300D02*
X166517700Y-84283300D01*
X166517700Y-84283300D02*
X161469700Y-79235300D01*
X147717501Y-97709999D02*
X144627600Y-100799900D01*
X147717501Y-92920301D02*
X147717501Y-97709999D01*
X146415000Y-91617800D02*
X147717501Y-92920301D01*
X146367500Y-91617800D02*
X146415000Y-91617800D01*
X144627600Y-100799900D02*
X144627600Y-101612700D01*
X143527600Y-101612700D02*
X144627600Y-101612700D01*
X143370300Y-101455400D02*
X143527600Y-101612700D01*
X143370300Y-81368900D02*
X143370300Y-101455400D01*
X149927500Y-74307700D02*
X162335400Y-74307700D01*
X149927500Y-74307700D02*
X147387500Y-74307700D01*
X149927500Y-119291100D02*
X162398900Y-119291100D01*
X162398900Y-119291100D02*
X164938900Y-119291100D01*
X149927500Y-119291100D02*
X147387500Y-119291100D01*
X162335400Y-74307700D02*
X164875400Y-74307700D01*
X165788899Y-118441101D02*
X164938900Y-119291100D01*
X168643301Y-115586699D02*
X165788899Y-118441101D01*
X168643301Y-103035101D02*
X168643301Y-115586699D01*
X166827200Y-101219000D02*
X168643301Y-103035101D01*
X168099992Y-101219000D02*
X170474501Y-98844491D01*
X166827200Y-101219000D02*
X168099992Y-101219000D01*
X168567700Y-86283300D02*
X167017700Y-86283300D01*
X170474501Y-88190101D02*
X168567700Y-86283300D01*
X170474501Y-98844491D02*
X170474501Y-88190101D01*
X167517700Y-86283300D02*
X167017700Y-86283300D01*
X169887900Y-83913100D02*
X167517700Y-86283300D01*
X169887900Y-78118119D02*
X169887900Y-83913100D01*
X164875400Y-74307700D02*
X166077481Y-74307700D01*
X166077481Y-74307700D02*
X169887900Y-78118119D01*
X150190301Y-82168899D02*
X150990300Y-81368900D01*
X145017490Y-87341710D02*
X150190301Y-82168899D01*
X145017490Y-92157317D02*
X145017490Y-87341710D01*
X146367500Y-93507327D02*
X145017490Y-92157317D01*
X146367500Y-94157800D02*
X146367500Y-93507327D01*
X165366700Y-92608400D02*
X166814500Y-92608400D01*
X164092190Y-91333890D02*
X165366700Y-92608400D01*
X164092190Y-86699813D02*
X164092190Y-91333890D01*
X157592877Y-80200500D02*
X164092190Y-86699813D01*
X150990300Y-81368900D02*
X152158700Y-80200500D01*
X152158700Y-80200500D02*
X157592877Y-80200500D01*
X167624499Y-93418399D02*
X169314500Y-95108400D01*
X166814500Y-92608400D02*
X167624499Y-93418399D01*
M02*
