M48
; DRILL file {KiCad (5.1.4)-1} date 12/8/2021 2:10:06 PM
; FORMAT={-:-/ absolute / inch / decimal}
; #@! TF.CreationDate,2021-12-08T14:10:06-07:00
; #@! TF.GenerationSoftware,Kicad,Pcbnew,(5.1.4)-1
; #@! TF.FileFunction,Plated,1,2,PTH
FMAT,2
INCH
T1C0.0315
T2C0.0354
T3C0.0394
T4C0.0433
T5C0.0591
%
G90
G05
T1
X5.7727Y-4.0005
X6.5755Y-3.2395
X5.6445Y-3.2035
X5.9445Y-3.2035
X6.048Y-3.2035
X6.348Y-3.2035
X5.694Y-4.0005
X6.5755Y-3.3182
X6.5755Y-3.397
T2
X6.568Y-3.985
X6.568Y-4.085
X6.5675Y-3.646
X6.5675Y-3.8429
X6.6659Y-3.7444
T3
X5.8027Y-4.6965
X5.8027Y-4.7965
X5.9027Y-4.6965
X5.9027Y-4.7965
X6.3937Y-4.6965
X6.3937Y-4.7965
X6.4937Y-4.6965
X6.4937Y-4.7965
X5.8027Y-2.9255
X5.8027Y-3.0255
X5.9027Y-2.9255
X5.9027Y-3.0255
X6.3912Y-2.9255
X6.3912Y-3.0255
X6.4912Y-2.9255
X6.4912Y-3.0255
X6.3895Y-4.3725
X6.5864Y-4.3725
T4
X5.9414Y-4.043
X6.3414Y-4.043
X5.9414Y-3.8216
X6.3414Y-3.8216
X5.9414Y-3.3789
X6.3414Y-3.3789
X5.7625Y-3.507
X5.7625Y-3.607
X5.7625Y-3.707
X5.9414Y-3.6003
X6.3414Y-3.6003
T5
X6.5755Y-3.1568
X6.5755Y-3.4797
T1
G00X5.9612Y-4.3252
M15
G01X5.9612Y-4.4118
M16
G05
G00X6.0281Y-4.5575
M15
G01X6.1147Y-4.5575
M16
G05
G00X6.1895Y-4.3173
M15
G01X6.1895Y-4.4197
M16
G05
T0
M30
